G04 EAGLE Gerber RS-274X export*
G75*
%MOMM*%
%FSLAX34Y34*%
%LPD*%
%INTop Copper*%
%IPPOS*%
%AMOC8*
5,1,8,0,0,1.08239X$1,22.5*%
G01*
%ADD10R,1.300000X1.500000*%
%ADD11R,0.750000X0.300000*%
%ADD12R,0.660400X1.270000*%
%ADD13R,0.600000X0.350000*%
%ADD14R,0.635000X1.270000*%
%ADD15R,1.000000X1.100000*%
%ADD16C,1.508000*%
%ADD17C,0.508000*%
%ADD18C,0.254000*%
%ADD19C,0.914400*%

G36*
X116653Y10172D02*
X116653Y10172D01*
X116783Y10174D01*
X116877Y10192D01*
X116972Y10201D01*
X117098Y10235D01*
X117225Y10260D01*
X117315Y10294D01*
X117407Y10319D01*
X117524Y10375D01*
X117645Y10422D01*
X117727Y10472D01*
X117813Y10513D01*
X117919Y10588D01*
X118030Y10656D01*
X118102Y10719D01*
X118179Y10775D01*
X118270Y10868D01*
X118367Y10954D01*
X118427Y11029D01*
X118493Y11097D01*
X118566Y11205D01*
X118647Y11307D01*
X118692Y11391D01*
X118745Y11470D01*
X118798Y11589D01*
X118859Y11704D01*
X118889Y11795D01*
X118928Y11882D01*
X118959Y12009D01*
X118999Y12132D01*
X119012Y12227D01*
X119034Y12320D01*
X119042Y12449D01*
X119060Y12578D01*
X119056Y12674D01*
X119062Y12769D01*
X119047Y12898D01*
X119042Y13028D01*
X119021Y13121D01*
X119010Y13216D01*
X118972Y13341D01*
X118944Y13468D01*
X118907Y13556D01*
X118880Y13647D01*
X118821Y13763D01*
X118771Y13883D01*
X118719Y13964D01*
X118675Y14049D01*
X118597Y14152D01*
X118526Y14261D01*
X118440Y14359D01*
X118403Y14407D01*
X118370Y14438D01*
X118319Y14496D01*
X25693Y107122D01*
X24919Y108989D01*
X24919Y131011D01*
X25693Y132878D01*
X39522Y146707D01*
X41389Y147481D01*
X45733Y147481D01*
X45896Y147495D01*
X46061Y147502D01*
X46120Y147515D01*
X46181Y147521D01*
X46340Y147564D01*
X46500Y147600D01*
X46557Y147623D01*
X46616Y147639D01*
X46764Y147710D01*
X46916Y147773D01*
X46967Y147806D01*
X47022Y147833D01*
X47156Y147928D01*
X47294Y148018D01*
X47352Y148069D01*
X47388Y148095D01*
X47431Y148138D01*
X47528Y148224D01*
X50250Y150946D01*
X53955Y152481D01*
X73045Y152481D01*
X76750Y150946D01*
X79472Y148224D01*
X79598Y148119D01*
X79719Y148007D01*
X79770Y147975D01*
X79817Y147936D01*
X79960Y147854D01*
X80099Y147766D01*
X80155Y147742D01*
X80208Y147712D01*
X80363Y147657D01*
X80515Y147595D01*
X80575Y147582D01*
X80632Y147561D01*
X80795Y147535D01*
X80955Y147500D01*
X81032Y147495D01*
X81077Y147488D01*
X81138Y147489D01*
X81267Y147481D01*
X140711Y147481D01*
X142578Y146707D01*
X144007Y145278D01*
X144781Y143411D01*
X144781Y113456D01*
X144795Y113293D01*
X144802Y113128D01*
X144815Y113069D01*
X144821Y113008D01*
X144864Y112849D01*
X144900Y112689D01*
X144923Y112632D01*
X144939Y112573D01*
X145010Y112425D01*
X145073Y112273D01*
X145106Y112222D01*
X145133Y112167D01*
X145228Y112033D01*
X145318Y111895D01*
X145369Y111837D01*
X145395Y111801D01*
X145438Y111758D01*
X145524Y111661D01*
X152461Y104724D01*
X152587Y104619D01*
X152708Y104507D01*
X152759Y104475D01*
X152806Y104436D01*
X152949Y104354D01*
X153088Y104266D01*
X153144Y104242D01*
X153197Y104212D01*
X153352Y104157D01*
X153504Y104095D01*
X153564Y104082D01*
X153621Y104061D01*
X153784Y104035D01*
X153944Y104000D01*
X154021Y103995D01*
X154066Y103988D01*
X154127Y103989D01*
X154256Y103981D01*
X159236Y103981D01*
X159399Y103995D01*
X159564Y104002D01*
X159623Y104015D01*
X159684Y104021D01*
X159843Y104064D01*
X160004Y104100D01*
X160060Y104123D01*
X160119Y104139D01*
X160267Y104210D01*
X160419Y104273D01*
X160470Y104306D01*
X160525Y104333D01*
X160659Y104428D01*
X160797Y104518D01*
X160855Y104569D01*
X160891Y104595D01*
X160934Y104638D01*
X161031Y104724D01*
X163248Y106941D01*
X175352Y106941D01*
X176004Y106289D01*
X176031Y106266D01*
X176054Y106240D01*
X176203Y106122D01*
X176350Y106000D01*
X176380Y105983D01*
X176407Y105961D01*
X176575Y105871D01*
X176741Y105776D01*
X176773Y105765D01*
X176804Y105748D01*
X176985Y105690D01*
X177165Y105626D01*
X177199Y105620D01*
X177232Y105609D01*
X177421Y105583D01*
X177609Y105552D01*
X177644Y105553D01*
X177678Y105548D01*
X177869Y105556D01*
X178059Y105558D01*
X178094Y105565D01*
X178128Y105566D01*
X178314Y105608D01*
X178502Y105644D01*
X178534Y105656D01*
X178568Y105664D01*
X178744Y105737D01*
X178922Y105806D01*
X178951Y105824D01*
X178983Y105837D01*
X179144Y105941D01*
X179306Y106040D01*
X179332Y106063D01*
X179361Y106082D01*
X179596Y106289D01*
X180248Y106941D01*
X192352Y106941D01*
X194569Y104724D01*
X194695Y104619D01*
X194816Y104507D01*
X194867Y104475D01*
X194914Y104436D01*
X195057Y104354D01*
X195196Y104266D01*
X195252Y104242D01*
X195305Y104212D01*
X195460Y104157D01*
X195612Y104095D01*
X195672Y104082D01*
X195729Y104061D01*
X195891Y104035D01*
X196052Y104000D01*
X196129Y103995D01*
X196173Y103988D01*
X196234Y103989D01*
X196364Y103981D01*
X209870Y103981D01*
X210034Y103995D01*
X210198Y104002D01*
X210258Y104015D01*
X210319Y104021D01*
X210477Y104064D01*
X210638Y104100D01*
X210694Y104123D01*
X210753Y104139D01*
X210901Y104210D01*
X211053Y104273D01*
X211105Y104306D01*
X211160Y104333D01*
X211293Y104428D01*
X211431Y104518D01*
X211489Y104569D01*
X211526Y104595D01*
X211568Y104638D01*
X211666Y104724D01*
X211871Y104930D01*
X214485Y106013D01*
X217315Y106013D01*
X219929Y104930D01*
X221930Y102929D01*
X223013Y100315D01*
X223013Y97485D01*
X221930Y94871D01*
X219929Y92870D01*
X217315Y91787D01*
X214485Y91787D01*
X211871Y92870D01*
X211666Y93076D01*
X211539Y93181D01*
X211418Y93293D01*
X211367Y93325D01*
X211320Y93364D01*
X211177Y93446D01*
X211039Y93534D01*
X210982Y93558D01*
X210929Y93588D01*
X210774Y93643D01*
X210622Y93705D01*
X210562Y93718D01*
X210505Y93739D01*
X210343Y93765D01*
X210182Y93800D01*
X210105Y93805D01*
X210061Y93812D01*
X210000Y93811D01*
X209870Y93819D01*
X196364Y93819D01*
X196200Y93805D01*
X196036Y93798D01*
X195976Y93785D01*
X195916Y93779D01*
X195757Y93736D01*
X195596Y93700D01*
X195540Y93677D01*
X195481Y93661D01*
X195333Y93590D01*
X195181Y93527D01*
X195130Y93494D01*
X195075Y93467D01*
X194941Y93372D01*
X194803Y93282D01*
X194745Y93231D01*
X194709Y93205D01*
X194666Y93162D01*
X194569Y93076D01*
X192352Y90859D01*
X180248Y90859D01*
X179596Y91511D01*
X179569Y91534D01*
X179546Y91560D01*
X179397Y91677D01*
X179250Y91800D01*
X179220Y91818D01*
X179193Y91839D01*
X179025Y91929D01*
X178859Y92024D01*
X178827Y92035D01*
X178796Y92052D01*
X178615Y92111D01*
X178435Y92174D01*
X178401Y92180D01*
X178368Y92191D01*
X178179Y92217D01*
X177991Y92248D01*
X177956Y92247D01*
X177922Y92252D01*
X177731Y92244D01*
X177540Y92242D01*
X177506Y92235D01*
X177472Y92234D01*
X177286Y92192D01*
X177098Y92156D01*
X177066Y92144D01*
X177032Y92136D01*
X176856Y92063D01*
X176678Y91994D01*
X176649Y91976D01*
X176617Y91963D01*
X176457Y91859D01*
X176294Y91760D01*
X176268Y91737D01*
X176239Y91718D01*
X176004Y91511D01*
X175124Y90631D01*
X175034Y90524D01*
X174992Y90480D01*
X174982Y90465D01*
X174907Y90384D01*
X174875Y90333D01*
X174836Y90286D01*
X174754Y90143D01*
X174666Y90004D01*
X174642Y89948D01*
X174612Y89895D01*
X174557Y89740D01*
X174495Y89588D01*
X174482Y89528D01*
X174461Y89471D01*
X174435Y89309D01*
X174400Y89148D01*
X174395Y89071D01*
X174388Y89026D01*
X174389Y88965D01*
X174381Y88836D01*
X174381Y85080D01*
X174395Y84916D01*
X174402Y84752D01*
X174415Y84692D01*
X174421Y84632D01*
X174464Y84473D01*
X174500Y84312D01*
X174523Y84256D01*
X174539Y84197D01*
X174610Y84049D01*
X174673Y83897D01*
X174706Y83845D01*
X174733Y83791D01*
X174828Y83657D01*
X174918Y83519D01*
X174969Y83461D01*
X174995Y83424D01*
X175038Y83382D01*
X175124Y83284D01*
X192204Y66204D01*
X192331Y66099D01*
X192452Y65987D01*
X192503Y65955D01*
X192550Y65916D01*
X192693Y65834D01*
X192831Y65746D01*
X192888Y65722D01*
X192941Y65692D01*
X193096Y65637D01*
X193248Y65575D01*
X193308Y65562D01*
X193365Y65541D01*
X193527Y65515D01*
X193688Y65480D01*
X193765Y65475D01*
X193809Y65468D01*
X193870Y65469D01*
X194000Y65461D01*
X260014Y65461D01*
X260178Y65475D01*
X260342Y65482D01*
X260402Y65495D01*
X260463Y65501D01*
X260622Y65544D01*
X260782Y65580D01*
X260838Y65603D01*
X260897Y65619D01*
X261045Y65690D01*
X261197Y65753D01*
X261249Y65786D01*
X261304Y65813D01*
X261437Y65908D01*
X261576Y65998D01*
X261633Y66049D01*
X261670Y66075D01*
X261712Y66118D01*
X261810Y66204D01*
X285090Y89484D01*
X285173Y89584D01*
X285264Y89677D01*
X285317Y89757D01*
X285379Y89830D01*
X285443Y89943D01*
X285516Y90050D01*
X285555Y90138D01*
X285602Y90221D01*
X285646Y90343D01*
X285698Y90462D01*
X285721Y90555D01*
X285753Y90645D01*
X285774Y90774D01*
X285805Y90900D01*
X285811Y90995D01*
X285826Y91089D01*
X285825Y91220D01*
X285833Y91349D01*
X285822Y91444D01*
X285820Y91540D01*
X285796Y91667D01*
X285780Y91796D01*
X285753Y91888D01*
X285735Y91982D01*
X285688Y92103D01*
X285650Y92227D01*
X285607Y92312D01*
X285572Y92402D01*
X285505Y92513D01*
X285446Y92629D01*
X285388Y92705D01*
X285338Y92786D01*
X285252Y92884D01*
X285174Y92987D01*
X285103Y93052D01*
X285040Y93124D01*
X284938Y93204D01*
X284843Y93293D01*
X284762Y93344D01*
X284687Y93403D01*
X284573Y93464D01*
X284463Y93534D01*
X284375Y93571D01*
X284290Y93616D01*
X284167Y93656D01*
X284046Y93705D01*
X283953Y93725D01*
X283862Y93755D01*
X283733Y93773D01*
X283606Y93800D01*
X283476Y93808D01*
X283416Y93816D01*
X283371Y93815D01*
X283294Y93819D01*
X265689Y93819D01*
X263822Y94593D01*
X227239Y131176D01*
X227113Y131281D01*
X226992Y131393D01*
X226941Y131425D01*
X226894Y131464D01*
X226751Y131546D01*
X226612Y131634D01*
X226556Y131658D01*
X226503Y131688D01*
X226348Y131743D01*
X226196Y131805D01*
X226136Y131818D01*
X226079Y131839D01*
X225916Y131865D01*
X225756Y131900D01*
X225679Y131905D01*
X225634Y131912D01*
X225573Y131911D01*
X225444Y131919D01*
X176789Y131919D01*
X174922Y132693D01*
X164993Y142622D01*
X164219Y144489D01*
X164219Y152336D01*
X164205Y152499D01*
X164198Y152664D01*
X164185Y152723D01*
X164179Y152784D01*
X164136Y152943D01*
X164100Y153104D01*
X164077Y153160D01*
X164061Y153219D01*
X163990Y153367D01*
X163927Y153519D01*
X163894Y153570D01*
X163867Y153625D01*
X163772Y153759D01*
X163682Y153897D01*
X163631Y153955D01*
X163605Y153991D01*
X163562Y154034D01*
X163557Y154039D01*
X163537Y154066D01*
X163518Y154083D01*
X163476Y154131D01*
X161759Y155848D01*
X161759Y160180D01*
X161756Y160215D01*
X161758Y160249D01*
X161736Y160438D01*
X161719Y160629D01*
X161710Y160662D01*
X161706Y160696D01*
X161651Y160879D01*
X161601Y161063D01*
X161586Y161094D01*
X161576Y161127D01*
X161489Y161298D01*
X161407Y161470D01*
X161387Y161498D01*
X161372Y161529D01*
X161256Y161681D01*
X161145Y161836D01*
X161120Y161860D01*
X161100Y161887D01*
X160960Y162016D01*
X160823Y162150D01*
X160794Y162169D01*
X160768Y162193D01*
X160607Y162295D01*
X160450Y162402D01*
X160418Y162416D01*
X160389Y162434D01*
X160212Y162507D01*
X160038Y162584D01*
X160004Y162592D01*
X159972Y162605D01*
X159785Y162645D01*
X159600Y162691D01*
X159566Y162693D01*
X159532Y162700D01*
X159220Y162719D01*
X81267Y162719D01*
X81104Y162705D01*
X80939Y162698D01*
X80880Y162685D01*
X80819Y162679D01*
X80660Y162636D01*
X80500Y162600D01*
X80443Y162577D01*
X80384Y162561D01*
X80236Y162490D01*
X80084Y162427D01*
X80033Y162394D01*
X79978Y162367D01*
X79844Y162272D01*
X79706Y162182D01*
X79648Y162131D01*
X79612Y162105D01*
X79569Y162062D01*
X79472Y161976D01*
X76750Y159254D01*
X73045Y157719D01*
X53955Y157719D01*
X50250Y159254D01*
X47414Y162090D01*
X45879Y165795D01*
X45879Y169805D01*
X47414Y173510D01*
X50250Y176346D01*
X53955Y177881D01*
X73045Y177881D01*
X76750Y176346D01*
X79472Y173624D01*
X79598Y173519D01*
X79719Y173407D01*
X79770Y173375D01*
X79817Y173336D01*
X79960Y173254D01*
X80099Y173166D01*
X80155Y173142D01*
X80208Y173112D01*
X80363Y173057D01*
X80515Y172995D01*
X80575Y172982D01*
X80632Y172961D01*
X80795Y172935D01*
X80955Y172900D01*
X81032Y172895D01*
X81077Y172888D01*
X81138Y172889D01*
X81267Y172881D01*
X164911Y172881D01*
X166778Y172107D01*
X167701Y171184D01*
X167827Y171079D01*
X167948Y170967D01*
X167999Y170935D01*
X168046Y170896D01*
X168189Y170814D01*
X168328Y170726D01*
X168384Y170702D01*
X168437Y170672D01*
X168592Y170617D01*
X168744Y170555D01*
X168804Y170542D01*
X168861Y170521D01*
X169024Y170495D01*
X169184Y170460D01*
X169261Y170455D01*
X169306Y170448D01*
X169367Y170449D01*
X169496Y170441D01*
X175352Y170441D01*
X176004Y169789D01*
X176031Y169766D01*
X176054Y169740D01*
X176203Y169622D01*
X176350Y169500D01*
X176380Y169483D01*
X176407Y169461D01*
X176575Y169371D01*
X176741Y169276D01*
X176773Y169265D01*
X176804Y169248D01*
X176985Y169190D01*
X177165Y169126D01*
X177199Y169120D01*
X177232Y169109D01*
X177421Y169083D01*
X177609Y169052D01*
X177644Y169053D01*
X177678Y169048D01*
X177869Y169056D01*
X178059Y169058D01*
X178094Y169065D01*
X178128Y169066D01*
X178314Y169108D01*
X178502Y169144D01*
X178534Y169156D01*
X178568Y169164D01*
X178744Y169237D01*
X178922Y169306D01*
X178951Y169324D01*
X178983Y169337D01*
X179144Y169441D01*
X179306Y169540D01*
X179332Y169563D01*
X179361Y169582D01*
X179596Y169789D01*
X180248Y170441D01*
X192352Y170441D01*
X194569Y168224D01*
X194695Y168119D01*
X194816Y168007D01*
X194867Y167975D01*
X194914Y167936D01*
X195057Y167854D01*
X195196Y167766D01*
X195252Y167742D01*
X195305Y167712D01*
X195460Y167657D01*
X195612Y167595D01*
X195672Y167582D01*
X195729Y167561D01*
X195892Y167535D01*
X196052Y167500D01*
X196129Y167495D01*
X196173Y167488D01*
X196235Y167489D01*
X196364Y167481D01*
X209870Y167481D01*
X210034Y167495D01*
X210198Y167502D01*
X210258Y167515D01*
X210319Y167521D01*
X210477Y167564D01*
X210638Y167600D01*
X210694Y167623D01*
X210753Y167639D01*
X210901Y167710D01*
X211053Y167773D01*
X211105Y167806D01*
X211160Y167833D01*
X211293Y167928D01*
X211431Y168018D01*
X211489Y168069D01*
X211526Y168095D01*
X211568Y168138D01*
X211666Y168224D01*
X211871Y168430D01*
X214485Y169513D01*
X217315Y169513D01*
X219929Y168430D01*
X221930Y166429D01*
X223013Y163815D01*
X223013Y160985D01*
X221930Y158371D01*
X219929Y156370D01*
X217315Y155287D01*
X214485Y155287D01*
X211871Y156370D01*
X211666Y156576D01*
X211539Y156681D01*
X211418Y156793D01*
X211367Y156825D01*
X211320Y156864D01*
X211177Y156946D01*
X211039Y157034D01*
X210982Y157058D01*
X210929Y157088D01*
X210774Y157143D01*
X210622Y157205D01*
X210562Y157218D01*
X210505Y157239D01*
X210343Y157265D01*
X210182Y157300D01*
X210105Y157305D01*
X210061Y157312D01*
X210000Y157311D01*
X209870Y157319D01*
X196364Y157319D01*
X196201Y157305D01*
X196036Y157298D01*
X195977Y157285D01*
X195916Y157279D01*
X195757Y157236D01*
X195596Y157200D01*
X195540Y157177D01*
X195481Y157161D01*
X195333Y157090D01*
X195181Y157027D01*
X195130Y156994D01*
X195075Y156967D01*
X194941Y156872D01*
X194803Y156782D01*
X194745Y156731D01*
X194709Y156705D01*
X194666Y156662D01*
X194569Y156576D01*
X192352Y154359D01*
X180248Y154359D01*
X179596Y155011D01*
X179569Y155034D01*
X179546Y155060D01*
X179397Y155177D01*
X179250Y155300D01*
X179220Y155318D01*
X179193Y155339D01*
X179025Y155429D01*
X178859Y155524D01*
X178827Y155535D01*
X178796Y155552D01*
X178615Y155611D01*
X178435Y155674D01*
X178401Y155680D01*
X178368Y155691D01*
X178179Y155717D01*
X177991Y155748D01*
X177956Y155747D01*
X177922Y155752D01*
X177731Y155744D01*
X177540Y155742D01*
X177506Y155735D01*
X177472Y155734D01*
X177286Y155692D01*
X177098Y155656D01*
X177066Y155644D01*
X177032Y155636D01*
X176856Y155563D01*
X176678Y155494D01*
X176649Y155476D01*
X176617Y155463D01*
X176457Y155359D01*
X176294Y155260D01*
X176268Y155237D01*
X176239Y155218D01*
X176004Y155011D01*
X175124Y154131D01*
X175037Y154027D01*
X174973Y153961D01*
X174959Y153940D01*
X174907Y153884D01*
X174875Y153833D01*
X174836Y153786D01*
X174754Y153643D01*
X174666Y153504D01*
X174642Y153448D01*
X174612Y153395D01*
X174557Y153240D01*
X174495Y153088D01*
X174482Y153028D01*
X174461Y152971D01*
X174435Y152809D01*
X174400Y152648D01*
X174395Y152571D01*
X174388Y152526D01*
X174389Y152465D01*
X174381Y152336D01*
X174381Y148656D01*
X174395Y148493D01*
X174402Y148328D01*
X174415Y148269D01*
X174421Y148208D01*
X174464Y148049D01*
X174500Y147889D01*
X174523Y147832D01*
X174539Y147773D01*
X174610Y147625D01*
X174673Y147473D01*
X174706Y147422D01*
X174733Y147367D01*
X174828Y147233D01*
X174918Y147095D01*
X174969Y147037D01*
X174995Y147001D01*
X175038Y146958D01*
X175124Y146861D01*
X179161Y142824D01*
X179287Y142719D01*
X179408Y142607D01*
X179459Y142575D01*
X179506Y142536D01*
X179649Y142454D01*
X179788Y142366D01*
X179844Y142342D01*
X179897Y142312D01*
X180052Y142257D01*
X180204Y142195D01*
X180264Y142182D01*
X180321Y142161D01*
X180484Y142135D01*
X180644Y142100D01*
X180721Y142095D01*
X180766Y142088D01*
X180827Y142089D01*
X180956Y142081D01*
X229611Y142081D01*
X231478Y141307D01*
X268061Y104724D01*
X268187Y104619D01*
X268308Y104507D01*
X268359Y104475D01*
X268406Y104436D01*
X268549Y104354D01*
X268688Y104266D01*
X268744Y104242D01*
X268797Y104212D01*
X268952Y104157D01*
X269104Y104095D01*
X269164Y104082D01*
X269221Y104061D01*
X269384Y104035D01*
X269544Y104000D01*
X269621Y103995D01*
X269666Y103988D01*
X269727Y103989D01*
X269856Y103981D01*
X285970Y103981D01*
X286005Y103984D01*
X286039Y103982D01*
X286228Y104004D01*
X286419Y104021D01*
X286452Y104030D01*
X286486Y104034D01*
X286669Y104089D01*
X286853Y104139D01*
X286884Y104154D01*
X286917Y104164D01*
X287088Y104251D01*
X287260Y104333D01*
X287288Y104353D01*
X287319Y104368D01*
X287471Y104484D01*
X287626Y104595D01*
X287650Y104620D01*
X287677Y104640D01*
X287806Y104780D01*
X287940Y104917D01*
X287959Y104946D01*
X287983Y104972D01*
X288085Y105133D01*
X288192Y105290D01*
X288206Y105322D01*
X288224Y105351D01*
X288297Y105528D01*
X288374Y105702D01*
X288382Y105736D01*
X288395Y105768D01*
X288435Y105955D01*
X288481Y106140D01*
X288483Y106174D01*
X288490Y106208D01*
X288509Y106520D01*
X288509Y107952D01*
X290084Y109527D01*
X290190Y109653D01*
X290301Y109774D01*
X290334Y109826D01*
X290373Y109872D01*
X290454Y110015D01*
X290543Y110154D01*
X290566Y110210D01*
X290596Y110263D01*
X290651Y110418D01*
X290714Y110570D01*
X290726Y110630D01*
X290747Y110688D01*
X290774Y110850D01*
X290808Y111011D01*
X290813Y111088D01*
X290820Y111132D01*
X290820Y111193D01*
X290828Y111323D01*
X290828Y113364D01*
X290813Y113527D01*
X290806Y113692D01*
X290793Y113751D01*
X290788Y113812D01*
X290744Y113971D01*
X290709Y114131D01*
X290685Y114188D01*
X290669Y114247D01*
X290599Y114395D01*
X290535Y114547D01*
X290502Y114598D01*
X290476Y114653D01*
X290380Y114787D01*
X290291Y114925D01*
X290240Y114983D01*
X290214Y115019D01*
X290170Y115062D01*
X290084Y115159D01*
X210568Y194676D01*
X210441Y194781D01*
X210320Y194893D01*
X210269Y194925D01*
X210222Y194964D01*
X210079Y195046D01*
X209941Y195134D01*
X209884Y195158D01*
X209831Y195188D01*
X209676Y195243D01*
X209524Y195305D01*
X209464Y195318D01*
X209407Y195339D01*
X209245Y195365D01*
X209084Y195400D01*
X209007Y195405D01*
X208963Y195412D01*
X208902Y195411D01*
X208772Y195419D01*
X176789Y195419D01*
X174922Y196193D01*
X164993Y206122D01*
X164219Y207989D01*
X164219Y220204D01*
X164208Y220333D01*
X164206Y220463D01*
X164188Y220557D01*
X164179Y220652D01*
X164145Y220778D01*
X164120Y220905D01*
X164086Y220995D01*
X164061Y221087D01*
X164005Y221204D01*
X163958Y221325D01*
X163908Y221407D01*
X163867Y221493D01*
X163792Y221599D01*
X163724Y221710D01*
X163661Y221782D01*
X163605Y221859D01*
X163512Y221950D01*
X163426Y222047D01*
X163351Y222107D01*
X163283Y222173D01*
X163175Y222246D01*
X163073Y222327D01*
X162989Y222372D01*
X162910Y222425D01*
X162791Y222478D01*
X162676Y222539D01*
X162585Y222569D01*
X162498Y222608D01*
X162371Y222639D01*
X162248Y222679D01*
X162153Y222692D01*
X162060Y222714D01*
X161931Y222722D01*
X161802Y222740D01*
X161706Y222736D01*
X161611Y222742D01*
X161482Y222727D01*
X161352Y222722D01*
X161259Y222701D01*
X161164Y222690D01*
X161039Y222652D01*
X160912Y222624D01*
X160824Y222587D01*
X160733Y222560D01*
X160617Y222501D01*
X160497Y222451D01*
X160416Y222399D01*
X160331Y222355D01*
X160228Y222277D01*
X160119Y222206D01*
X160021Y222120D01*
X159973Y222083D01*
X159942Y222050D01*
X159884Y221999D01*
X128564Y190679D01*
X126778Y188893D01*
X124911Y188119D01*
X81267Y188119D01*
X81104Y188105D01*
X80939Y188098D01*
X80880Y188085D01*
X80819Y188079D01*
X80660Y188036D01*
X80500Y188000D01*
X80443Y187977D01*
X80384Y187961D01*
X80236Y187890D01*
X80084Y187827D01*
X80033Y187794D01*
X79978Y187767D01*
X79844Y187672D01*
X79706Y187582D01*
X79648Y187531D01*
X79612Y187505D01*
X79569Y187462D01*
X79472Y187376D01*
X76750Y184654D01*
X73045Y183119D01*
X53955Y183119D01*
X50250Y184654D01*
X47528Y187376D01*
X47402Y187481D01*
X47281Y187593D01*
X47230Y187625D01*
X47183Y187664D01*
X47040Y187746D01*
X46901Y187834D01*
X46845Y187858D01*
X46792Y187888D01*
X46637Y187943D01*
X46485Y188005D01*
X46425Y188018D01*
X46368Y188039D01*
X46205Y188065D01*
X46045Y188100D01*
X45968Y188105D01*
X45923Y188112D01*
X45862Y188111D01*
X45799Y188115D01*
X43922Y188893D01*
X25693Y207122D01*
X24919Y208989D01*
X24919Y251011D01*
X25693Y252878D01*
X102836Y330021D01*
X104622Y331807D01*
X106489Y332581D01*
X277536Y332581D01*
X279404Y331807D01*
X297577Y313634D01*
X297703Y313529D01*
X297824Y313417D01*
X297829Y313414D01*
X299509Y311734D01*
X299635Y311629D01*
X299756Y311517D01*
X299807Y311485D01*
X299854Y311446D01*
X299997Y311364D01*
X300136Y311276D01*
X300192Y311252D01*
X300245Y311222D01*
X300400Y311167D01*
X300552Y311105D01*
X300612Y311092D01*
X300669Y311071D01*
X300831Y311045D01*
X300992Y311010D01*
X301069Y311005D01*
X301113Y310998D01*
X301174Y310999D01*
X301304Y310991D01*
X302261Y310991D01*
X302261Y302100D01*
X302261Y293209D01*
X301304Y293209D01*
X301140Y293195D01*
X300976Y293188D01*
X300916Y293175D01*
X300856Y293169D01*
X300697Y293126D01*
X300536Y293090D01*
X300480Y293067D01*
X300421Y293051D01*
X300273Y292980D01*
X300121Y292917D01*
X300070Y292884D01*
X300015Y292857D01*
X299881Y292762D01*
X299743Y292672D01*
X299685Y292621D01*
X299649Y292595D01*
X299606Y292552D01*
X299509Y292466D01*
X298080Y291037D01*
X298032Y291017D01*
X297981Y290984D01*
X297926Y290957D01*
X297792Y290862D01*
X297654Y290772D01*
X297596Y290721D01*
X297560Y290695D01*
X297517Y290652D01*
X297420Y290566D01*
X279247Y272393D01*
X277380Y271619D01*
X176789Y271619D01*
X174922Y272393D01*
X164993Y282322D01*
X164073Y284543D01*
X164061Y284587D01*
X164005Y284704D01*
X163958Y284825D01*
X163908Y284907D01*
X163867Y284993D01*
X163792Y285099D01*
X163724Y285210D01*
X163661Y285282D01*
X163605Y285359D01*
X163512Y285450D01*
X163426Y285547D01*
X163351Y285607D01*
X163283Y285673D01*
X163175Y285746D01*
X163073Y285827D01*
X162989Y285872D01*
X162910Y285925D01*
X162791Y285978D01*
X162676Y286039D01*
X162585Y286069D01*
X162498Y286108D01*
X162371Y286139D01*
X162248Y286179D01*
X162153Y286192D01*
X162060Y286214D01*
X161931Y286222D01*
X161802Y286240D01*
X161706Y286236D01*
X161611Y286242D01*
X161482Y286227D01*
X161352Y286222D01*
X161259Y286201D01*
X161164Y286190D01*
X161039Y286152D01*
X160912Y286124D01*
X160824Y286087D01*
X160733Y286060D01*
X160617Y286001D01*
X160497Y285951D01*
X160416Y285899D01*
X160331Y285855D01*
X160228Y285777D01*
X160119Y285706D01*
X160021Y285620D01*
X159973Y285583D01*
X159942Y285550D01*
X159884Y285499D01*
X90464Y216079D01*
X88678Y214293D01*
X86811Y213519D01*
X81267Y213519D01*
X81104Y213505D01*
X80939Y213498D01*
X80880Y213485D01*
X80819Y213479D01*
X80660Y213436D01*
X80500Y213400D01*
X80443Y213377D01*
X80384Y213361D01*
X80236Y213290D01*
X80084Y213227D01*
X80033Y213194D01*
X79978Y213167D01*
X79844Y213072D01*
X79706Y212982D01*
X79648Y212931D01*
X79612Y212905D01*
X79569Y212862D01*
X79472Y212776D01*
X76750Y210054D01*
X73045Y208519D01*
X53955Y208519D01*
X50250Y210054D01*
X47414Y212890D01*
X45879Y216595D01*
X45879Y220605D01*
X47414Y224310D01*
X50250Y227146D01*
X53955Y228681D01*
X73045Y228681D01*
X76750Y227146D01*
X79472Y224424D01*
X79598Y224319D01*
X79719Y224207D01*
X79770Y224175D01*
X79817Y224136D01*
X79960Y224054D01*
X80099Y223966D01*
X80155Y223942D01*
X80208Y223912D01*
X80363Y223857D01*
X80515Y223795D01*
X80575Y223782D01*
X80632Y223761D01*
X80795Y223735D01*
X80955Y223700D01*
X81032Y223695D01*
X81077Y223688D01*
X81138Y223689D01*
X81267Y223681D01*
X82644Y223681D01*
X82807Y223695D01*
X82972Y223702D01*
X83031Y223715D01*
X83092Y223721D01*
X83251Y223764D01*
X83411Y223800D01*
X83468Y223823D01*
X83527Y223839D01*
X83675Y223910D01*
X83827Y223973D01*
X83878Y224006D01*
X83933Y224033D01*
X84067Y224128D01*
X84205Y224218D01*
X84263Y224269D01*
X84299Y224295D01*
X84342Y224338D01*
X84439Y224424D01*
X161016Y301001D01*
X161121Y301127D01*
X161233Y301248D01*
X161265Y301299D01*
X161304Y301346D01*
X161386Y301489D01*
X161474Y301628D01*
X161498Y301684D01*
X161528Y301737D01*
X161583Y301892D01*
X161645Y302044D01*
X161658Y302104D01*
X161679Y302161D01*
X161705Y302324D01*
X161740Y302484D01*
X161745Y302561D01*
X161752Y302606D01*
X161751Y302667D01*
X161759Y302796D01*
X161759Y308652D01*
X163248Y310141D01*
X175352Y310141D01*
X176004Y309489D01*
X176031Y309466D01*
X176054Y309440D01*
X176203Y309322D01*
X176350Y309200D01*
X176380Y309183D01*
X176407Y309161D01*
X176575Y309071D01*
X176741Y308976D01*
X176773Y308965D01*
X176804Y308948D01*
X176985Y308890D01*
X177165Y308826D01*
X177199Y308820D01*
X177232Y308809D01*
X177421Y308783D01*
X177609Y308752D01*
X177644Y308753D01*
X177678Y308748D01*
X177869Y308756D01*
X178059Y308758D01*
X178094Y308765D01*
X178128Y308766D01*
X178314Y308808D01*
X178502Y308844D01*
X178534Y308856D01*
X178568Y308864D01*
X178744Y308937D01*
X178922Y309006D01*
X178951Y309024D01*
X178983Y309037D01*
X179144Y309141D01*
X179306Y309240D01*
X179332Y309263D01*
X179361Y309282D01*
X179596Y309489D01*
X180248Y310141D01*
X192352Y310141D01*
X194569Y307924D01*
X194695Y307819D01*
X194816Y307707D01*
X194867Y307675D01*
X194914Y307636D01*
X195057Y307554D01*
X195196Y307466D01*
X195252Y307442D01*
X195305Y307412D01*
X195460Y307357D01*
X195612Y307295D01*
X195672Y307282D01*
X195729Y307261D01*
X195892Y307235D01*
X196052Y307200D01*
X196129Y307195D01*
X196173Y307188D01*
X196235Y307189D01*
X196364Y307181D01*
X209870Y307181D01*
X210034Y307195D01*
X210198Y307202D01*
X210258Y307215D01*
X210319Y307221D01*
X210477Y307264D01*
X210638Y307300D01*
X210694Y307323D01*
X210753Y307339D01*
X210901Y307410D01*
X211053Y307473D01*
X211105Y307506D01*
X211160Y307533D01*
X211293Y307628D01*
X211431Y307718D01*
X211489Y307769D01*
X211526Y307795D01*
X211568Y307838D01*
X211666Y307924D01*
X211871Y308130D01*
X214485Y309213D01*
X217315Y309213D01*
X219929Y308130D01*
X221930Y306129D01*
X223013Y303515D01*
X223013Y300685D01*
X221930Y298071D01*
X219929Y296070D01*
X217315Y294987D01*
X214485Y294987D01*
X211871Y296070D01*
X211666Y296276D01*
X211539Y296381D01*
X211418Y296493D01*
X211367Y296525D01*
X211320Y296564D01*
X211177Y296646D01*
X211039Y296734D01*
X210982Y296758D01*
X210929Y296788D01*
X210774Y296843D01*
X210622Y296905D01*
X210562Y296918D01*
X210505Y296939D01*
X210343Y296965D01*
X210182Y297000D01*
X210105Y297005D01*
X210061Y297012D01*
X210000Y297011D01*
X209870Y297019D01*
X196364Y297019D01*
X196201Y297005D01*
X196036Y296998D01*
X195977Y296985D01*
X195916Y296979D01*
X195757Y296936D01*
X195596Y296900D01*
X195540Y296877D01*
X195481Y296861D01*
X195333Y296790D01*
X195181Y296727D01*
X195130Y296694D01*
X195075Y296667D01*
X194941Y296572D01*
X194803Y296482D01*
X194745Y296431D01*
X194709Y296405D01*
X194666Y296362D01*
X194569Y296276D01*
X192352Y294059D01*
X180248Y294059D01*
X179596Y294711D01*
X179569Y294734D01*
X179546Y294760D01*
X179397Y294877D01*
X179250Y295000D01*
X179220Y295018D01*
X179193Y295039D01*
X179025Y295129D01*
X178859Y295224D01*
X178827Y295235D01*
X178796Y295252D01*
X178615Y295311D01*
X178435Y295374D01*
X178401Y295380D01*
X178368Y295391D01*
X178179Y295417D01*
X177991Y295448D01*
X177956Y295447D01*
X177922Y295452D01*
X177731Y295444D01*
X177540Y295442D01*
X177506Y295435D01*
X177472Y295434D01*
X177286Y295392D01*
X177098Y295356D01*
X177066Y295344D01*
X177032Y295336D01*
X176856Y295263D01*
X176678Y295194D01*
X176649Y295176D01*
X176617Y295163D01*
X176457Y295059D01*
X176294Y294960D01*
X176268Y294937D01*
X176239Y294918D01*
X176004Y294711D01*
X175124Y293831D01*
X175019Y293705D01*
X174907Y293584D01*
X174875Y293533D01*
X174836Y293486D01*
X174754Y293343D01*
X174666Y293204D01*
X174642Y293148D01*
X174612Y293095D01*
X174557Y292940D01*
X174495Y292788D01*
X174482Y292728D01*
X174461Y292671D01*
X174435Y292509D01*
X174421Y292445D01*
X174409Y292398D01*
X174409Y292389D01*
X174400Y292348D01*
X174395Y292271D01*
X174388Y292226D01*
X174389Y292165D01*
X174381Y292036D01*
X174381Y288356D01*
X174395Y288193D01*
X174402Y288028D01*
X174415Y287969D01*
X174421Y287908D01*
X174464Y287749D01*
X174500Y287589D01*
X174523Y287532D01*
X174539Y287473D01*
X174610Y287325D01*
X174673Y287173D01*
X174706Y287122D01*
X174733Y287067D01*
X174828Y286933D01*
X174918Y286795D01*
X174969Y286737D01*
X174995Y286701D01*
X175038Y286658D01*
X175124Y286561D01*
X179161Y282524D01*
X179287Y282419D01*
X179408Y282307D01*
X179459Y282275D01*
X179506Y282236D01*
X179649Y282154D01*
X179788Y282066D01*
X179844Y282042D01*
X179897Y282012D01*
X180052Y281957D01*
X180204Y281895D01*
X180264Y281882D01*
X180321Y281861D01*
X180484Y281835D01*
X180644Y281800D01*
X180721Y281795D01*
X180766Y281788D01*
X180827Y281789D01*
X180956Y281781D01*
X273213Y281781D01*
X273376Y281795D01*
X273541Y281802D01*
X273600Y281815D01*
X273661Y281821D01*
X273820Y281864D01*
X273981Y281900D01*
X274037Y281923D01*
X274096Y281939D01*
X274244Y282010D01*
X274396Y282073D01*
X274447Y282106D01*
X274502Y282133D01*
X274636Y282228D01*
X274774Y282318D01*
X274832Y282369D01*
X274868Y282395D01*
X274911Y282438D01*
X275008Y282524D01*
X288016Y295532D01*
X288121Y295658D01*
X288233Y295779D01*
X288265Y295830D01*
X288304Y295877D01*
X288386Y296020D01*
X288474Y296159D01*
X288498Y296215D01*
X288528Y296268D01*
X288583Y296423D01*
X288645Y296575D01*
X288658Y296635D01*
X288679Y296692D01*
X288705Y296855D01*
X288740Y297015D01*
X288745Y297092D01*
X288752Y297136D01*
X288751Y297198D01*
X288759Y297327D01*
X288759Y299044D01*
X288771Y299134D01*
X288800Y299311D01*
X288799Y299358D01*
X288805Y299404D01*
X288798Y299561D01*
X288866Y299561D01*
X288912Y299565D01*
X288956Y299562D01*
X289072Y299577D01*
X289194Y299582D01*
X289253Y299595D01*
X289314Y299600D01*
X289359Y299613D01*
X289403Y299618D01*
X289515Y299653D01*
X289633Y299679D01*
X289690Y299703D01*
X289749Y299719D01*
X289790Y299739D01*
X289833Y299752D01*
X289937Y299807D01*
X290049Y299853D01*
X290100Y299886D01*
X290155Y299912D01*
X290192Y299939D01*
X290232Y299960D01*
X290326Y300032D01*
X290427Y300097D01*
X290485Y300148D01*
X290521Y300175D01*
X290553Y300207D01*
X290589Y300235D01*
X290614Y300263D01*
X290661Y300304D01*
X290745Y300404D01*
X290835Y300497D01*
X290861Y300535D01*
X290891Y300568D01*
X290918Y300611D01*
X290950Y300650D01*
X291015Y300763D01*
X291087Y300870D01*
X291105Y300911D01*
X291130Y300950D01*
X291149Y300997D01*
X291174Y301041D01*
X291218Y301164D01*
X291270Y301282D01*
X291280Y301325D01*
X291297Y301368D01*
X291308Y301418D01*
X291324Y301465D01*
X291346Y301595D01*
X291376Y301719D01*
X291376Y301720D01*
X291379Y301763D01*
X291388Y301809D01*
X291390Y301859D01*
X291398Y301909D01*
X291396Y302042D01*
X291404Y302169D01*
X291399Y302213D01*
X291400Y302259D01*
X291392Y302309D01*
X291392Y302360D01*
X291367Y302489D01*
X291352Y302616D01*
X291339Y302659D01*
X291332Y302704D01*
X291316Y302752D01*
X291306Y302802D01*
X291259Y302924D01*
X291222Y303047D01*
X291201Y303087D01*
X291187Y303130D01*
X291162Y303175D01*
X291144Y303222D01*
X291076Y303334D01*
X291017Y303449D01*
X290990Y303484D01*
X290968Y303524D01*
X290936Y303563D01*
X290910Y303606D01*
X290824Y303704D01*
X290745Y303807D01*
X290712Y303838D01*
X290684Y303873D01*
X290637Y303915D01*
X290612Y303944D01*
X290563Y303983D01*
X290452Y304083D01*
X290432Y304096D01*
X290414Y304113D01*
X290333Y304164D01*
X290259Y304223D01*
X290165Y304273D01*
X290077Y304332D01*
X290055Y304341D01*
X290034Y304354D01*
X289946Y304391D01*
X289862Y304436D01*
X289762Y304468D01*
X289664Y304511D01*
X289640Y304516D01*
X289618Y304525D01*
X289524Y304546D01*
X289434Y304575D01*
X289330Y304589D01*
X289225Y304614D01*
X289201Y304615D01*
X289178Y304620D01*
X289046Y304628D01*
X288988Y304636D01*
X288944Y304635D01*
X288866Y304639D01*
X288802Y304639D01*
X288797Y304755D01*
X288796Y304934D01*
X288788Y304980D01*
X288786Y305027D01*
X288759Y305146D01*
X288759Y307030D01*
X288745Y307193D01*
X288738Y307358D01*
X288725Y307417D01*
X288719Y307478D01*
X288676Y307637D01*
X288640Y307797D01*
X288617Y307854D01*
X288601Y307912D01*
X288530Y308060D01*
X288467Y308213D01*
X288434Y308264D01*
X288407Y308319D01*
X288312Y308452D01*
X288222Y308591D01*
X288171Y308649D01*
X288145Y308685D01*
X288102Y308728D01*
X288016Y308825D01*
X275165Y321676D01*
X275039Y321781D01*
X274918Y321893D01*
X274867Y321925D01*
X274820Y321964D01*
X274677Y322046D01*
X274538Y322134D01*
X274482Y322158D01*
X274429Y322188D01*
X274274Y322243D01*
X274122Y322305D01*
X274062Y322318D01*
X274004Y322339D01*
X273842Y322365D01*
X273681Y322400D01*
X273604Y322405D01*
X273560Y322412D01*
X273499Y322411D01*
X273370Y322419D01*
X110656Y322419D01*
X110493Y322405D01*
X110328Y322398D01*
X110269Y322385D01*
X110208Y322379D01*
X110049Y322336D01*
X109889Y322300D01*
X109832Y322277D01*
X109773Y322261D01*
X109625Y322190D01*
X109473Y322127D01*
X109422Y322094D01*
X109367Y322067D01*
X109233Y321972D01*
X109095Y321882D01*
X109037Y321831D01*
X109001Y321805D01*
X108958Y321762D01*
X108861Y321676D01*
X35824Y248639D01*
X35719Y248513D01*
X35607Y248392D01*
X35575Y248341D01*
X35536Y248294D01*
X35454Y248151D01*
X35366Y248012D01*
X35342Y247956D01*
X35312Y247903D01*
X35257Y247748D01*
X35195Y247596D01*
X35182Y247536D01*
X35161Y247479D01*
X35135Y247316D01*
X35100Y247156D01*
X35095Y247079D01*
X35088Y247034D01*
X35089Y246973D01*
X35081Y246844D01*
X35081Y213156D01*
X35095Y212993D01*
X35102Y212828D01*
X35115Y212769D01*
X35121Y212708D01*
X35164Y212549D01*
X35200Y212389D01*
X35223Y212332D01*
X35239Y212273D01*
X35310Y212125D01*
X35373Y211973D01*
X35406Y211922D01*
X35433Y211867D01*
X35528Y211733D01*
X35618Y211595D01*
X35669Y211537D01*
X35695Y211501D01*
X35738Y211458D01*
X35824Y211361D01*
X46049Y201136D01*
X46076Y201114D01*
X46099Y201088D01*
X46247Y200970D01*
X46394Y200847D01*
X46425Y200830D01*
X46452Y200809D01*
X46619Y200719D01*
X46785Y200624D01*
X46818Y200612D01*
X46848Y200596D01*
X47030Y200537D01*
X47210Y200473D01*
X47244Y200468D01*
X47277Y200457D01*
X47466Y200431D01*
X47654Y200400D01*
X47688Y200400D01*
X47723Y200395D01*
X47914Y200403D01*
X48104Y200406D01*
X48138Y200412D01*
X48173Y200414D01*
X48359Y200455D01*
X48546Y200491D01*
X48578Y200504D01*
X48612Y200511D01*
X48788Y200585D01*
X48966Y200654D01*
X48996Y200672D01*
X49028Y200685D01*
X49188Y200788D01*
X49351Y200888D01*
X49377Y200911D01*
X49406Y200929D01*
X49640Y201136D01*
X50250Y201746D01*
X53955Y203281D01*
X73045Y203281D01*
X76750Y201746D01*
X79472Y199024D01*
X79598Y198919D01*
X79719Y198807D01*
X79770Y198775D01*
X79817Y198736D01*
X79960Y198654D01*
X80099Y198566D01*
X80155Y198542D01*
X80208Y198512D01*
X80363Y198457D01*
X80515Y198395D01*
X80575Y198382D01*
X80632Y198361D01*
X80795Y198335D01*
X80955Y198300D01*
X81032Y198295D01*
X81077Y198288D01*
X81138Y198289D01*
X81267Y198281D01*
X120744Y198281D01*
X120907Y198295D01*
X121072Y198302D01*
X121131Y198315D01*
X121192Y198321D01*
X121351Y198364D01*
X121511Y198400D01*
X121568Y198423D01*
X121627Y198439D01*
X121775Y198510D01*
X121927Y198573D01*
X121978Y198606D01*
X122033Y198633D01*
X122167Y198728D01*
X122305Y198818D01*
X122363Y198869D01*
X122399Y198895D01*
X122442Y198938D01*
X122539Y199024D01*
X161016Y237501D01*
X161121Y237627D01*
X161233Y237748D01*
X161265Y237799D01*
X161304Y237846D01*
X161386Y237989D01*
X161474Y238128D01*
X161498Y238184D01*
X161528Y238237D01*
X161583Y238392D01*
X161645Y238544D01*
X161658Y238604D01*
X161679Y238661D01*
X161705Y238824D01*
X161740Y238984D01*
X161745Y239061D01*
X161752Y239106D01*
X161751Y239167D01*
X161759Y239296D01*
X161759Y245152D01*
X163248Y246641D01*
X175352Y246641D01*
X176004Y245989D01*
X176031Y245966D01*
X176054Y245940D01*
X176203Y245822D01*
X176350Y245700D01*
X176380Y245683D01*
X176407Y245661D01*
X176575Y245571D01*
X176741Y245476D01*
X176773Y245465D01*
X176804Y245448D01*
X176985Y245390D01*
X177165Y245326D01*
X177199Y245320D01*
X177232Y245309D01*
X177421Y245283D01*
X177609Y245252D01*
X177644Y245253D01*
X177678Y245248D01*
X177869Y245256D01*
X178059Y245258D01*
X178094Y245265D01*
X178128Y245266D01*
X178314Y245308D01*
X178502Y245344D01*
X178534Y245356D01*
X178568Y245364D01*
X178744Y245437D01*
X178922Y245506D01*
X178951Y245524D01*
X178983Y245537D01*
X179144Y245641D01*
X179306Y245740D01*
X179332Y245763D01*
X179361Y245782D01*
X179596Y245989D01*
X180248Y246641D01*
X192352Y246641D01*
X194569Y244424D01*
X194695Y244319D01*
X194816Y244207D01*
X194867Y244175D01*
X194914Y244136D01*
X195057Y244054D01*
X195196Y243966D01*
X195252Y243942D01*
X195305Y243912D01*
X195460Y243857D01*
X195612Y243795D01*
X195672Y243782D01*
X195729Y243761D01*
X195892Y243735D01*
X196052Y243700D01*
X196129Y243695D01*
X196173Y243688D01*
X196235Y243689D01*
X196364Y243681D01*
X209870Y243681D01*
X210034Y243695D01*
X210198Y243702D01*
X210258Y243715D01*
X210319Y243721D01*
X210477Y243764D01*
X210638Y243800D01*
X210694Y243823D01*
X210753Y243839D01*
X210901Y243910D01*
X211053Y243973D01*
X211105Y244006D01*
X211160Y244033D01*
X211293Y244128D01*
X211431Y244218D01*
X211489Y244269D01*
X211526Y244295D01*
X211568Y244338D01*
X211666Y244424D01*
X211871Y244630D01*
X214485Y245713D01*
X217315Y245713D01*
X219929Y244630D01*
X221930Y242629D01*
X223013Y240015D01*
X223013Y237185D01*
X221930Y234571D01*
X219929Y232570D01*
X217315Y231487D01*
X214485Y231487D01*
X211871Y232570D01*
X211666Y232776D01*
X211539Y232881D01*
X211418Y232993D01*
X211367Y233025D01*
X211320Y233064D01*
X211177Y233146D01*
X211039Y233234D01*
X210982Y233258D01*
X210929Y233288D01*
X210774Y233343D01*
X210622Y233405D01*
X210562Y233418D01*
X210505Y233439D01*
X210343Y233465D01*
X210182Y233500D01*
X210105Y233505D01*
X210061Y233512D01*
X210000Y233511D01*
X209870Y233519D01*
X196364Y233519D01*
X196201Y233505D01*
X196036Y233498D01*
X195977Y233485D01*
X195916Y233479D01*
X195757Y233436D01*
X195596Y233400D01*
X195540Y233377D01*
X195481Y233361D01*
X195333Y233290D01*
X195181Y233227D01*
X195130Y233194D01*
X195075Y233167D01*
X194941Y233072D01*
X194803Y232982D01*
X194745Y232931D01*
X194709Y232905D01*
X194666Y232862D01*
X194569Y232776D01*
X192352Y230559D01*
X180248Y230559D01*
X179596Y231211D01*
X179569Y231234D01*
X179546Y231260D01*
X179397Y231377D01*
X179250Y231500D01*
X179220Y231518D01*
X179193Y231539D01*
X179025Y231629D01*
X178859Y231724D01*
X178827Y231735D01*
X178796Y231752D01*
X178615Y231810D01*
X178435Y231874D01*
X178401Y231880D01*
X178368Y231891D01*
X178179Y231917D01*
X177991Y231948D01*
X177956Y231947D01*
X177922Y231952D01*
X177731Y231944D01*
X177540Y231942D01*
X177506Y231935D01*
X177472Y231934D01*
X177286Y231893D01*
X177098Y231856D01*
X177066Y231844D01*
X177032Y231836D01*
X176856Y231763D01*
X176678Y231694D01*
X176649Y231676D01*
X176617Y231663D01*
X176457Y231559D01*
X176294Y231460D01*
X176268Y231437D01*
X176239Y231418D01*
X176004Y231211D01*
X175124Y230331D01*
X175041Y230231D01*
X174951Y230139D01*
X174931Y230110D01*
X174907Y230084D01*
X174875Y230033D01*
X174836Y229986D01*
X174770Y229872D01*
X174699Y229766D01*
X174685Y229735D01*
X174666Y229704D01*
X174642Y229648D01*
X174612Y229595D01*
X174568Y229470D01*
X174516Y229354D01*
X174509Y229322D01*
X174495Y229288D01*
X174482Y229228D01*
X174461Y229171D01*
X174439Y229038D01*
X174410Y228917D01*
X174408Y228884D01*
X174400Y228848D01*
X174395Y228771D01*
X174388Y228727D01*
X174389Y228665D01*
X174381Y228536D01*
X174381Y212156D01*
X174395Y211993D01*
X174402Y211828D01*
X174415Y211769D01*
X174421Y211708D01*
X174464Y211549D01*
X174500Y211389D01*
X174523Y211332D01*
X174539Y211273D01*
X174610Y211125D01*
X174673Y210973D01*
X174706Y210922D01*
X174733Y210867D01*
X174828Y210733D01*
X174918Y210595D01*
X174969Y210537D01*
X174995Y210501D01*
X175038Y210458D01*
X175124Y210361D01*
X179161Y206324D01*
X179287Y206219D01*
X179408Y206107D01*
X179459Y206075D01*
X179506Y206036D01*
X179649Y205954D01*
X179788Y205866D01*
X179844Y205842D01*
X179897Y205812D01*
X180052Y205757D01*
X180204Y205695D01*
X180264Y205682D01*
X180321Y205661D01*
X180484Y205635D01*
X180644Y205600D01*
X180721Y205595D01*
X180766Y205588D01*
X180827Y205589D01*
X180956Y205581D01*
X212939Y205581D01*
X214806Y204807D01*
X300216Y119398D01*
X300989Y117531D01*
X300989Y110330D01*
X300992Y110295D01*
X300990Y110261D01*
X301012Y110072D01*
X301029Y109881D01*
X301038Y109848D01*
X301042Y109814D01*
X301097Y109631D01*
X301147Y109447D01*
X301162Y109416D01*
X301172Y109383D01*
X301259Y109212D01*
X301341Y109040D01*
X301361Y109012D01*
X301377Y108981D01*
X301492Y108829D01*
X301603Y108674D01*
X301628Y108650D01*
X301649Y108623D01*
X301789Y108494D01*
X301926Y108360D01*
X301954Y108341D01*
X301980Y108317D01*
X302141Y108215D01*
X302261Y108134D01*
X302261Y98900D01*
X302261Y90005D01*
X302141Y89995D01*
X301976Y89988D01*
X301917Y89975D01*
X301856Y89969D01*
X301697Y89926D01*
X301536Y89890D01*
X301480Y89867D01*
X301421Y89851D01*
X301273Y89780D01*
X301121Y89717D01*
X301070Y89684D01*
X301015Y89657D01*
X300881Y89562D01*
X300743Y89472D01*
X300685Y89421D01*
X300649Y89395D01*
X300606Y89352D01*
X300509Y89266D01*
X299602Y88359D01*
X299387Y88359D01*
X299223Y88345D01*
X299059Y88338D01*
X298999Y88325D01*
X298938Y88319D01*
X298779Y88276D01*
X298619Y88240D01*
X298563Y88217D01*
X298504Y88201D01*
X298356Y88130D01*
X298204Y88067D01*
X298152Y88034D01*
X298097Y88007D01*
X297964Y87912D01*
X297825Y87822D01*
X297768Y87771D01*
X297731Y87745D01*
X297689Y87702D01*
X297591Y87616D01*
X266049Y56073D01*
X264181Y55299D01*
X189833Y55299D01*
X187966Y56073D01*
X164993Y79046D01*
X164219Y80913D01*
X164219Y88836D01*
X164205Y88999D01*
X164198Y89164D01*
X164185Y89223D01*
X164179Y89284D01*
X164136Y89443D01*
X164100Y89604D01*
X164077Y89660D01*
X164061Y89719D01*
X163990Y89867D01*
X163927Y90019D01*
X163894Y90070D01*
X163867Y90125D01*
X163772Y90259D01*
X163682Y90397D01*
X163631Y90455D01*
X163605Y90491D01*
X163562Y90534D01*
X163525Y90575D01*
X163518Y90585D01*
X163511Y90591D01*
X163476Y90631D01*
X161031Y93076D01*
X160905Y93181D01*
X160784Y93293D01*
X160733Y93325D01*
X160686Y93364D01*
X160543Y93446D01*
X160404Y93534D01*
X160348Y93558D01*
X160295Y93588D01*
X160140Y93643D01*
X159988Y93705D01*
X159928Y93718D01*
X159871Y93739D01*
X159708Y93765D01*
X159548Y93800D01*
X159471Y93805D01*
X159427Y93812D01*
X159365Y93811D01*
X159236Y93819D01*
X150089Y93819D01*
X148222Y94593D01*
X135393Y107422D01*
X134619Y109289D01*
X134619Y134780D01*
X134616Y134815D01*
X134618Y134849D01*
X134596Y135038D01*
X134579Y135229D01*
X134570Y135262D01*
X134566Y135296D01*
X134511Y135479D01*
X134461Y135663D01*
X134446Y135694D01*
X134436Y135727D01*
X134349Y135898D01*
X134267Y136070D01*
X134247Y136098D01*
X134232Y136129D01*
X134116Y136281D01*
X134005Y136436D01*
X133980Y136460D01*
X133960Y136487D01*
X133820Y136616D01*
X133683Y136750D01*
X133654Y136769D01*
X133628Y136793D01*
X133467Y136895D01*
X133310Y137002D01*
X133278Y137016D01*
X133249Y137034D01*
X133072Y137107D01*
X132898Y137184D01*
X132864Y137192D01*
X132832Y137205D01*
X132645Y137245D01*
X132460Y137291D01*
X132426Y137293D01*
X132392Y137300D01*
X132080Y137319D01*
X81267Y137319D01*
X81104Y137305D01*
X80939Y137298D01*
X80880Y137285D01*
X80819Y137279D01*
X80660Y137236D01*
X80500Y137200D01*
X80443Y137177D01*
X80384Y137161D01*
X80236Y137090D01*
X80084Y137027D01*
X80033Y136994D01*
X79978Y136967D01*
X79844Y136872D01*
X79706Y136782D01*
X79648Y136731D01*
X79612Y136705D01*
X79569Y136662D01*
X79472Y136576D01*
X76750Y133854D01*
X73045Y132319D01*
X53955Y132319D01*
X50250Y133854D01*
X47528Y136576D01*
X47402Y136681D01*
X47281Y136793D01*
X47230Y136825D01*
X47183Y136864D01*
X47040Y136946D01*
X46901Y137034D01*
X46845Y137058D01*
X46792Y137088D01*
X46637Y137143D01*
X46485Y137205D01*
X46425Y137218D01*
X46368Y137239D01*
X46205Y137265D01*
X46045Y137300D01*
X45968Y137305D01*
X45923Y137312D01*
X45862Y137311D01*
X45733Y137319D01*
X45556Y137319D01*
X45393Y137305D01*
X45228Y137298D01*
X45169Y137285D01*
X45108Y137279D01*
X44949Y137236D01*
X44789Y137200D01*
X44732Y137177D01*
X44673Y137161D01*
X44525Y137090D01*
X44373Y137027D01*
X44322Y136994D01*
X44267Y136967D01*
X44133Y136872D01*
X43995Y136782D01*
X43937Y136731D01*
X43901Y136705D01*
X43858Y136662D01*
X43761Y136576D01*
X35824Y128639D01*
X35719Y128513D01*
X35607Y128392D01*
X35575Y128341D01*
X35536Y128294D01*
X35454Y128151D01*
X35366Y128012D01*
X35342Y127956D01*
X35312Y127903D01*
X35257Y127748D01*
X35195Y127596D01*
X35182Y127536D01*
X35161Y127479D01*
X35135Y127316D01*
X35100Y127156D01*
X35095Y127079D01*
X35088Y127034D01*
X35089Y126973D01*
X35081Y126844D01*
X35081Y113156D01*
X35095Y112993D01*
X35102Y112828D01*
X35115Y112769D01*
X35121Y112708D01*
X35164Y112549D01*
X35200Y112389D01*
X35223Y112332D01*
X35239Y112273D01*
X35310Y112125D01*
X35373Y111973D01*
X35406Y111922D01*
X35433Y111867D01*
X35528Y111733D01*
X35618Y111595D01*
X35669Y111537D01*
X35695Y111501D01*
X35738Y111458D01*
X35824Y111361D01*
X128661Y18524D01*
X128787Y18419D01*
X128908Y18307D01*
X128959Y18275D01*
X129006Y18236D01*
X129149Y18154D01*
X129288Y18066D01*
X129344Y18042D01*
X129397Y18012D01*
X129552Y17957D01*
X129704Y17895D01*
X129764Y17882D01*
X129821Y17861D01*
X129984Y17835D01*
X130144Y17800D01*
X130221Y17795D01*
X130266Y17788D01*
X130327Y17789D01*
X130456Y17781D01*
X279544Y17781D01*
X279707Y17795D01*
X279872Y17802D01*
X279931Y17815D01*
X279992Y17821D01*
X280151Y17864D01*
X280311Y17900D01*
X280368Y17923D01*
X280427Y17939D01*
X280575Y18010D01*
X280727Y18073D01*
X280778Y18106D01*
X280833Y18133D01*
X280967Y18228D01*
X281105Y18318D01*
X281163Y18369D01*
X281199Y18395D01*
X281242Y18438D01*
X281339Y18524D01*
X354176Y91361D01*
X354281Y91487D01*
X354392Y91608D01*
X354425Y91659D01*
X354464Y91706D01*
X354546Y91849D01*
X354634Y91988D01*
X354658Y92044D01*
X354688Y92097D01*
X354743Y92252D01*
X354805Y92404D01*
X354818Y92464D01*
X354839Y92521D01*
X354865Y92684D01*
X354900Y92844D01*
X354905Y92921D01*
X354912Y92966D01*
X354911Y93027D01*
X354919Y93156D01*
X354919Y266844D01*
X354905Y267007D01*
X354898Y267172D01*
X354885Y267231D01*
X354879Y267292D01*
X354836Y267451D01*
X354800Y267611D01*
X354777Y267668D01*
X354761Y267727D01*
X354690Y267875D01*
X354627Y268027D01*
X354594Y268078D01*
X354567Y268133D01*
X354472Y268267D01*
X354382Y268405D01*
X354331Y268463D01*
X354305Y268499D01*
X354262Y268542D01*
X354176Y268639D01*
X349116Y273699D01*
X349016Y273783D01*
X348923Y273873D01*
X348843Y273927D01*
X348770Y273988D01*
X348657Y274053D01*
X348550Y274125D01*
X348462Y274164D01*
X348379Y274212D01*
X348257Y274255D01*
X348138Y274308D01*
X348045Y274330D01*
X347955Y274362D01*
X347827Y274384D01*
X347700Y274414D01*
X347605Y274420D01*
X347511Y274436D01*
X347381Y274434D01*
X347251Y274442D01*
X347156Y274431D01*
X347060Y274430D01*
X346933Y274405D01*
X346804Y274390D01*
X346712Y274362D01*
X346618Y274344D01*
X346497Y274297D01*
X346373Y274260D01*
X346288Y274216D01*
X346198Y274182D01*
X346087Y274114D01*
X345971Y274055D01*
X345895Y273998D01*
X345814Y273948D01*
X345716Y273862D01*
X345613Y273783D01*
X345548Y273713D01*
X345476Y273650D01*
X345396Y273548D01*
X345307Y273452D01*
X345256Y273372D01*
X345197Y273297D01*
X345136Y273182D01*
X345066Y273072D01*
X345029Y272984D01*
X344984Y272900D01*
X344944Y272776D01*
X344895Y272656D01*
X344875Y272562D01*
X344845Y272472D01*
X344827Y272343D01*
X344800Y272216D01*
X344792Y272086D01*
X344784Y272026D01*
X344785Y271981D01*
X344781Y271904D01*
X344781Y251180D01*
X344784Y251145D01*
X344782Y251111D01*
X344804Y250922D01*
X344821Y250731D01*
X344830Y250698D01*
X344834Y250664D01*
X344889Y250481D01*
X344939Y250297D01*
X344954Y250266D01*
X344964Y250233D01*
X345051Y250062D01*
X345133Y249890D01*
X345153Y249862D01*
X345168Y249831D01*
X345284Y249679D01*
X345395Y249524D01*
X345420Y249500D01*
X345440Y249473D01*
X345580Y249344D01*
X345717Y249210D01*
X345746Y249191D01*
X345772Y249167D01*
X345933Y249065D01*
X346090Y248958D01*
X346122Y248944D01*
X346151Y248926D01*
X346328Y248853D01*
X346502Y248776D01*
X346536Y248768D01*
X346568Y248755D01*
X346755Y248715D01*
X346940Y248669D01*
X346974Y248667D01*
X347008Y248660D01*
X347248Y248645D01*
X348741Y247152D01*
X348741Y230048D01*
X347251Y228558D01*
X347062Y228536D01*
X346871Y228519D01*
X346838Y228510D01*
X346804Y228506D01*
X346621Y228451D01*
X346437Y228401D01*
X346406Y228386D01*
X346373Y228376D01*
X346202Y228289D01*
X346030Y228207D01*
X346002Y228187D01*
X345971Y228172D01*
X345819Y228056D01*
X345664Y227945D01*
X345640Y227920D01*
X345613Y227900D01*
X345484Y227760D01*
X345350Y227623D01*
X345331Y227594D01*
X345307Y227568D01*
X345205Y227407D01*
X345098Y227250D01*
X345084Y227218D01*
X345066Y227189D01*
X344993Y227012D01*
X344916Y226838D01*
X344908Y226804D01*
X344895Y226772D01*
X344855Y226585D01*
X344809Y226400D01*
X344807Y226366D01*
X344800Y226332D01*
X344781Y226020D01*
X344781Y174980D01*
X344784Y174945D01*
X344782Y174911D01*
X344804Y174722D01*
X344821Y174531D01*
X344830Y174498D01*
X344834Y174464D01*
X344889Y174281D01*
X344939Y174097D01*
X344954Y174066D01*
X344964Y174033D01*
X345051Y173862D01*
X345133Y173690D01*
X345153Y173662D01*
X345168Y173631D01*
X345284Y173479D01*
X345395Y173324D01*
X345420Y173300D01*
X345440Y173273D01*
X345580Y173144D01*
X345717Y173010D01*
X345746Y172991D01*
X345772Y172967D01*
X345933Y172865D01*
X346090Y172758D01*
X346122Y172744D01*
X346151Y172726D01*
X346328Y172653D01*
X346502Y172576D01*
X346536Y172568D01*
X346568Y172555D01*
X346755Y172515D01*
X346940Y172469D01*
X346974Y172467D01*
X347008Y172460D01*
X347248Y172445D01*
X348741Y170952D01*
X348741Y153848D01*
X347251Y152358D01*
X347062Y152336D01*
X346871Y152319D01*
X346838Y152310D01*
X346804Y152306D01*
X346621Y152251D01*
X346437Y152201D01*
X346406Y152186D01*
X346373Y152176D01*
X346202Y152089D01*
X346030Y152007D01*
X346002Y151987D01*
X345971Y151972D01*
X345819Y151856D01*
X345664Y151745D01*
X345640Y151720D01*
X345613Y151700D01*
X345484Y151560D01*
X345350Y151423D01*
X345331Y151394D01*
X345307Y151368D01*
X345205Y151207D01*
X345098Y151050D01*
X345084Y151018D01*
X345066Y150989D01*
X344993Y150812D01*
X344916Y150638D01*
X344908Y150604D01*
X344895Y150572D01*
X344855Y150385D01*
X344809Y150200D01*
X344807Y150166D01*
X344800Y150132D01*
X344781Y149820D01*
X344781Y101989D01*
X344007Y100122D01*
X274978Y31093D01*
X273111Y30319D01*
X164089Y30319D01*
X162222Y31093D01*
X127671Y65644D01*
X127545Y65749D01*
X127424Y65861D01*
X127373Y65893D01*
X127326Y65932D01*
X127183Y66014D01*
X127044Y66102D01*
X126988Y66126D01*
X126935Y66156D01*
X126780Y66211D01*
X126628Y66273D01*
X126568Y66286D01*
X126511Y66307D01*
X126348Y66333D01*
X126188Y66368D01*
X126111Y66373D01*
X126066Y66380D01*
X126005Y66379D01*
X125876Y66387D01*
X125585Y66387D01*
X122971Y67470D01*
X120970Y69471D01*
X119887Y72085D01*
X119887Y72376D01*
X119873Y72539D01*
X119866Y72704D01*
X119853Y72763D01*
X119847Y72824D01*
X119804Y72983D01*
X119768Y73143D01*
X119745Y73200D01*
X119729Y73259D01*
X119658Y73407D01*
X119595Y73559D01*
X119562Y73610D01*
X119535Y73665D01*
X119440Y73799D01*
X119350Y73937D01*
X119299Y73995D01*
X119273Y74031D01*
X119230Y74074D01*
X119144Y74171D01*
X82601Y110714D01*
X82574Y110736D01*
X82552Y110762D01*
X82402Y110880D01*
X82256Y111003D01*
X82226Y111020D01*
X82198Y111041D01*
X82030Y111132D01*
X81865Y111226D01*
X81832Y111238D01*
X81802Y111254D01*
X81620Y111313D01*
X81440Y111377D01*
X81406Y111382D01*
X81373Y111393D01*
X81185Y111419D01*
X80996Y111450D01*
X80962Y111450D01*
X80927Y111455D01*
X80737Y111447D01*
X80546Y111444D01*
X80512Y111438D01*
X80477Y111436D01*
X80291Y111395D01*
X80104Y111359D01*
X80072Y111346D01*
X80038Y111339D01*
X79862Y111265D01*
X79684Y111196D01*
X79654Y111178D01*
X79622Y111165D01*
X79463Y111062D01*
X79299Y110962D01*
X79273Y110939D01*
X79244Y110921D01*
X79010Y110714D01*
X76750Y108454D01*
X73045Y106919D01*
X53955Y106919D01*
X50250Y108454D01*
X47414Y111290D01*
X45879Y114995D01*
X45879Y119005D01*
X47414Y122710D01*
X50250Y125546D01*
X53955Y127081D01*
X73045Y127081D01*
X76750Y125546D01*
X79472Y122824D01*
X79598Y122719D01*
X79719Y122607D01*
X79770Y122575D01*
X79817Y122536D01*
X79960Y122454D01*
X80099Y122366D01*
X80155Y122342D01*
X80208Y122312D01*
X80363Y122257D01*
X80515Y122195D01*
X80575Y122182D01*
X80632Y122161D01*
X80795Y122135D01*
X80955Y122100D01*
X81032Y122095D01*
X81077Y122088D01*
X81138Y122089D01*
X81267Y122081D01*
X84511Y122081D01*
X86378Y121307D01*
X126329Y81356D01*
X126455Y81251D01*
X126576Y81139D01*
X126627Y81107D01*
X126674Y81068D01*
X126817Y80986D01*
X126956Y80898D01*
X127012Y80874D01*
X127065Y80844D01*
X127220Y80789D01*
X127372Y80727D01*
X127432Y80714D01*
X127489Y80693D01*
X127652Y80667D01*
X127812Y80632D01*
X127889Y80627D01*
X127934Y80620D01*
X127995Y80621D01*
X128124Y80613D01*
X128415Y80613D01*
X131029Y79530D01*
X133030Y77529D01*
X134113Y74915D01*
X134113Y74624D01*
X134127Y74461D01*
X134134Y74296D01*
X134147Y74237D01*
X134153Y74176D01*
X134196Y74017D01*
X134232Y73857D01*
X134255Y73800D01*
X134271Y73741D01*
X134342Y73593D01*
X134405Y73441D01*
X134438Y73390D01*
X134465Y73335D01*
X134560Y73201D01*
X134650Y73063D01*
X134701Y73005D01*
X134727Y72969D01*
X134770Y72926D01*
X134856Y72829D01*
X166461Y41224D01*
X166587Y41119D01*
X166708Y41007D01*
X166759Y40975D01*
X166806Y40936D01*
X166949Y40854D01*
X167088Y40766D01*
X167144Y40742D01*
X167197Y40712D01*
X167352Y40657D01*
X167504Y40595D01*
X167564Y40582D01*
X167621Y40561D01*
X167784Y40535D01*
X167944Y40500D01*
X168021Y40495D01*
X168066Y40488D01*
X168127Y40489D01*
X168256Y40481D01*
X268944Y40481D01*
X269107Y40495D01*
X269272Y40502D01*
X269331Y40515D01*
X269392Y40521D01*
X269551Y40564D01*
X269711Y40600D01*
X269768Y40623D01*
X269827Y40639D01*
X269975Y40710D01*
X270127Y40773D01*
X270178Y40806D01*
X270233Y40833D01*
X270367Y40928D01*
X270505Y41018D01*
X270563Y41069D01*
X270599Y41095D01*
X270642Y41138D01*
X270739Y41224D01*
X312427Y82912D01*
X312450Y82939D01*
X312475Y82962D01*
X312593Y83111D01*
X312716Y83258D01*
X312733Y83288D01*
X312755Y83315D01*
X312845Y83483D01*
X312939Y83649D01*
X312951Y83681D01*
X312967Y83712D01*
X313026Y83893D01*
X313090Y84073D01*
X313096Y84107D01*
X313107Y84140D01*
X313132Y84328D01*
X313164Y84517D01*
X313163Y84552D01*
X313168Y84586D01*
X313160Y84777D01*
X313158Y84967D01*
X313151Y85002D01*
X313150Y85036D01*
X313108Y85222D01*
X313072Y85410D01*
X313060Y85442D01*
X313052Y85476D01*
X312979Y85651D01*
X312910Y85830D01*
X312892Y85859D01*
X312878Y85891D01*
X312775Y86051D01*
X312676Y86214D01*
X312653Y86240D01*
X312634Y86269D01*
X312427Y86503D01*
X311315Y87616D01*
X311189Y87721D01*
X311068Y87833D01*
X311017Y87865D01*
X310970Y87904D01*
X310827Y87986D01*
X310688Y88074D01*
X310632Y88098D01*
X310579Y88128D01*
X310424Y88183D01*
X310272Y88245D01*
X310212Y88258D01*
X310155Y88279D01*
X310063Y88294D01*
X309091Y89266D01*
X308965Y89371D01*
X308844Y89483D01*
X308793Y89515D01*
X308746Y89554D01*
X308603Y89636D01*
X308464Y89724D01*
X308408Y89748D01*
X308355Y89778D01*
X308200Y89833D01*
X308048Y89895D01*
X307988Y89908D01*
X307931Y89929D01*
X307768Y89955D01*
X307608Y89990D01*
X307531Y89995D01*
X307487Y90002D01*
X307425Y90001D01*
X307339Y90007D01*
X307339Y98900D01*
X307339Y107795D01*
X307459Y107805D01*
X307624Y107812D01*
X307683Y107825D01*
X307744Y107831D01*
X307903Y107874D01*
X308063Y107910D01*
X308120Y107933D01*
X308179Y107949D01*
X308327Y108020D01*
X308479Y108083D01*
X308530Y108116D01*
X308585Y108143D01*
X308719Y108238D01*
X308857Y108328D01*
X308915Y108379D01*
X308951Y108405D01*
X308994Y108448D01*
X309091Y108534D01*
X309490Y108933D01*
X310069Y109268D01*
X310715Y109441D01*
X312261Y109441D01*
X312261Y105400D01*
X312261Y98980D01*
X312262Y98968D01*
X312262Y98965D01*
X312263Y98952D01*
X312264Y98945D01*
X312262Y98911D01*
X312284Y98722D01*
X312300Y98531D01*
X312310Y98498D01*
X312314Y98464D01*
X312369Y98281D01*
X312419Y98097D01*
X312434Y98066D01*
X312444Y98033D01*
X312531Y97862D01*
X312612Y97690D01*
X312633Y97662D01*
X312648Y97631D01*
X312763Y97479D01*
X312875Y97324D01*
X312899Y97300D01*
X312920Y97273D01*
X313060Y97144D01*
X313197Y97010D01*
X313226Y96991D01*
X313251Y96967D01*
X313412Y96865D01*
X313570Y96758D01*
X313602Y96744D01*
X313631Y96726D01*
X313808Y96653D01*
X313982Y96576D01*
X314016Y96568D01*
X314048Y96555D01*
X314234Y96515D01*
X314419Y96469D01*
X314454Y96467D01*
X314488Y96460D01*
X314800Y96441D01*
X314835Y96444D01*
X314869Y96442D01*
X315059Y96464D01*
X315249Y96481D01*
X315282Y96490D01*
X315316Y96494D01*
X315499Y96549D01*
X315683Y96599D01*
X315714Y96614D01*
X315747Y96624D01*
X315918Y96711D01*
X316090Y96793D01*
X316118Y96813D01*
X316149Y96828D01*
X316301Y96944D01*
X316456Y97055D01*
X316480Y97080D01*
X316507Y97100D01*
X316637Y97240D01*
X316770Y97377D01*
X316789Y97406D01*
X316813Y97432D01*
X316915Y97593D01*
X317022Y97750D01*
X317036Y97782D01*
X317054Y97811D01*
X317127Y97988D01*
X317204Y98162D01*
X317212Y98196D01*
X317225Y98228D01*
X317266Y98415D01*
X317311Y98600D01*
X317313Y98634D01*
X317320Y98668D01*
X317339Y98980D01*
X317339Y104102D01*
X317365Y104052D01*
X317445Y103946D01*
X317517Y103835D01*
X317581Y103767D01*
X317637Y103693D01*
X317734Y103603D01*
X317825Y103507D01*
X317900Y103451D01*
X317968Y103388D01*
X318080Y103316D01*
X318186Y103238D01*
X318269Y103196D01*
X318348Y103146D01*
X318470Y103096D01*
X318589Y103037D01*
X318709Y102998D01*
X318765Y102975D01*
X318766Y102975D01*
X318810Y102965D01*
X318886Y102940D01*
X318887Y102940D01*
X319047Y102914D01*
X319206Y102880D01*
X319286Y102875D01*
X319332Y102867D01*
X319392Y102868D01*
X319518Y102861D01*
X320902Y102861D01*
X320888Y102807D01*
X320878Y102750D01*
X320860Y102695D01*
X320839Y102529D01*
X320810Y102364D01*
X320810Y102306D01*
X320803Y102249D01*
X320811Y102081D01*
X320812Y101913D01*
X320823Y101857D01*
X320825Y101799D01*
X320888Y101493D01*
X320902Y101439D01*
X320734Y101439D01*
X320544Y101423D01*
X320355Y101411D01*
X320321Y101403D01*
X320286Y101399D01*
X320102Y101349D01*
X319917Y101304D01*
X319885Y101290D01*
X319851Y101281D01*
X319680Y101200D01*
X319505Y101122D01*
X319476Y101103D01*
X319445Y101088D01*
X319290Y100977D01*
X319132Y100870D01*
X319107Y100846D01*
X319078Y100825D01*
X318946Y100689D01*
X318809Y100556D01*
X318789Y100528D01*
X318764Y100503D01*
X318658Y100345D01*
X318547Y100190D01*
X318532Y100159D01*
X318512Y100130D01*
X318435Y99956D01*
X318354Y99784D01*
X318344Y99750D01*
X318330Y99718D01*
X318285Y99533D01*
X318235Y99350D01*
X318232Y99315D01*
X318223Y99280D01*
X318212Y99091D01*
X318195Y98901D01*
X318198Y98866D01*
X318196Y98831D01*
X318218Y98642D01*
X318235Y98453D01*
X318244Y98419D01*
X318248Y98384D01*
X318303Y98201D01*
X318353Y98018D01*
X318368Y97987D01*
X318378Y97953D01*
X318465Y97783D01*
X318546Y97611D01*
X318566Y97583D01*
X318582Y97552D01*
X318698Y97400D01*
X318808Y97245D01*
X318838Y97215D01*
X318854Y97193D01*
X318899Y97151D01*
X319026Y97021D01*
X319109Y96958D01*
X319186Y96888D01*
X319186Y96887D01*
X319288Y96822D01*
X319385Y96749D01*
X319478Y96702D01*
X319566Y96645D01*
X319678Y96599D01*
X319786Y96544D01*
X319886Y96514D01*
X319982Y96475D01*
X320101Y96449D01*
X320217Y96414D01*
X320320Y96402D01*
X320422Y96380D01*
X320604Y96369D01*
X320664Y96362D01*
X320692Y96363D01*
X320734Y96361D01*
X321483Y96361D01*
X321518Y96311D01*
X321586Y96200D01*
X321649Y96128D01*
X321705Y96051D01*
X321798Y95960D01*
X321884Y95863D01*
X321959Y95803D01*
X322027Y95737D01*
X322135Y95664D01*
X322237Y95583D01*
X322321Y95538D01*
X322400Y95485D01*
X322519Y95432D01*
X322634Y95371D01*
X322725Y95341D01*
X322812Y95302D01*
X322939Y95271D01*
X323062Y95231D01*
X323157Y95218D01*
X323250Y95196D01*
X323379Y95188D01*
X323508Y95170D01*
X323604Y95174D01*
X323699Y95168D01*
X323828Y95183D01*
X323958Y95188D01*
X324051Y95209D01*
X324146Y95220D01*
X324271Y95258D01*
X324398Y95286D01*
X324486Y95323D01*
X324577Y95350D01*
X324693Y95409D01*
X324813Y95460D01*
X324893Y95511D01*
X324979Y95555D01*
X325082Y95633D01*
X325191Y95704D01*
X325289Y95790D01*
X325337Y95827D01*
X325368Y95860D01*
X325426Y95911D01*
X333876Y104361D01*
X333981Y104487D01*
X334093Y104608D01*
X334125Y104659D01*
X334164Y104706D01*
X334246Y104849D01*
X334334Y104988D01*
X334358Y105044D01*
X334388Y105097D01*
X334443Y105252D01*
X334505Y105404D01*
X334518Y105464D01*
X334539Y105521D01*
X334565Y105684D01*
X334600Y105844D01*
X334605Y105921D01*
X334612Y105966D01*
X334611Y106027D01*
X334619Y106156D01*
X334619Y149820D01*
X334616Y149854D01*
X334618Y149889D01*
X334596Y150078D01*
X334579Y150269D01*
X334570Y150302D01*
X334566Y150336D01*
X334511Y150519D01*
X334461Y150703D01*
X334446Y150734D01*
X334436Y150767D01*
X334349Y150938D01*
X334267Y151110D01*
X334247Y151138D01*
X334232Y151169D01*
X334116Y151321D01*
X334005Y151476D01*
X333980Y151500D01*
X333960Y151527D01*
X333820Y151656D01*
X333683Y151790D01*
X333654Y151809D01*
X333628Y151833D01*
X333467Y151935D01*
X333310Y152042D01*
X333278Y152056D01*
X333249Y152074D01*
X333072Y152147D01*
X332898Y152224D01*
X332864Y152232D01*
X332832Y152245D01*
X332645Y152285D01*
X332460Y152331D01*
X332426Y152333D01*
X332392Y152340D01*
X332152Y152355D01*
X331964Y152543D01*
X331846Y152642D01*
X331735Y152746D01*
X331674Y152786D01*
X331618Y152832D01*
X331485Y152908D01*
X331357Y152991D01*
X331290Y153020D01*
X331227Y153056D01*
X331083Y153107D01*
X330942Y153166D01*
X330871Y153182D01*
X330803Y153206D01*
X330652Y153231D01*
X330503Y153265D01*
X330430Y153268D01*
X330359Y153280D01*
X330206Y153278D01*
X330053Y153284D01*
X329981Y153275D01*
X329909Y153274D01*
X329758Y153245D01*
X329607Y153224D01*
X329538Y153202D01*
X329467Y153188D01*
X329324Y153133D01*
X329178Y153086D01*
X329094Y153044D01*
X329047Y153026D01*
X328998Y152996D01*
X328898Y152947D01*
X328181Y152532D01*
X327535Y152359D01*
X323949Y152359D01*
X323949Y161690D01*
X323946Y161724D01*
X323948Y161759D01*
X323926Y161948D01*
X323909Y162138D01*
X323900Y162172D01*
X323896Y162206D01*
X323842Y162387D01*
X323875Y162545D01*
X323921Y162730D01*
X323923Y162764D01*
X323930Y162798D01*
X323949Y163110D01*
X323949Y172441D01*
X327535Y172441D01*
X328181Y172268D01*
X328898Y171853D01*
X329037Y171789D01*
X329172Y171716D01*
X329241Y171694D01*
X329307Y171664D01*
X329455Y171625D01*
X329600Y171577D01*
X329672Y171567D01*
X329742Y171549D01*
X329895Y171537D01*
X330046Y171516D01*
X330119Y171519D01*
X330191Y171513D01*
X330343Y171528D01*
X330496Y171534D01*
X330567Y171550D01*
X330639Y171557D01*
X330786Y171599D01*
X330936Y171632D01*
X331003Y171660D01*
X331073Y171680D01*
X331210Y171746D01*
X331351Y171805D01*
X331412Y171845D01*
X331477Y171877D01*
X331601Y171967D01*
X331729Y172050D01*
X331800Y172112D01*
X331841Y172142D01*
X331880Y172183D01*
X331964Y172257D01*
X332149Y172442D01*
X332338Y172464D01*
X332529Y172481D01*
X332562Y172490D01*
X332596Y172494D01*
X332779Y172549D01*
X332963Y172599D01*
X332994Y172614D01*
X333027Y172624D01*
X333198Y172711D01*
X333370Y172793D01*
X333398Y172813D01*
X333429Y172828D01*
X333581Y172944D01*
X333736Y173055D01*
X333760Y173080D01*
X333787Y173100D01*
X333916Y173240D01*
X334050Y173377D01*
X334069Y173406D01*
X334093Y173432D01*
X334195Y173593D01*
X334302Y173750D01*
X334316Y173782D01*
X334334Y173811D01*
X334407Y173988D01*
X334484Y174162D01*
X334492Y174196D01*
X334505Y174228D01*
X334545Y174415D01*
X334591Y174600D01*
X334593Y174634D01*
X334600Y174668D01*
X334619Y174980D01*
X334619Y226020D01*
X334617Y226045D01*
X334618Y226066D01*
X334617Y226074D01*
X334618Y226089D01*
X334596Y226278D01*
X334579Y226469D01*
X334570Y226502D01*
X334566Y226536D01*
X334511Y226719D01*
X334461Y226903D01*
X334446Y226934D01*
X334436Y226967D01*
X334349Y227138D01*
X334267Y227310D01*
X334247Y227338D01*
X334232Y227369D01*
X334116Y227521D01*
X334005Y227676D01*
X333980Y227700D01*
X333960Y227727D01*
X333820Y227856D01*
X333683Y227990D01*
X333654Y228009D01*
X333628Y228033D01*
X333467Y228135D01*
X333310Y228242D01*
X333278Y228256D01*
X333249Y228274D01*
X333072Y228347D01*
X332898Y228424D01*
X332864Y228432D01*
X332832Y228445D01*
X332645Y228485D01*
X332460Y228531D01*
X332426Y228533D01*
X332392Y228540D01*
X332152Y228555D01*
X331964Y228743D01*
X331846Y228842D01*
X331735Y228946D01*
X331674Y228986D01*
X331618Y229032D01*
X331485Y229108D01*
X331357Y229191D01*
X331290Y229220D01*
X331227Y229256D01*
X331083Y229307D01*
X330942Y229366D01*
X330871Y229382D01*
X330803Y229406D01*
X330652Y229431D01*
X330503Y229465D01*
X330430Y229468D01*
X330359Y229480D01*
X330206Y229478D01*
X330053Y229484D01*
X329981Y229475D01*
X329909Y229474D01*
X329758Y229445D01*
X329607Y229424D01*
X329538Y229402D01*
X329467Y229388D01*
X329324Y229333D01*
X329178Y229286D01*
X329094Y229244D01*
X329047Y229226D01*
X328998Y229196D01*
X328898Y229147D01*
X328181Y228732D01*
X327535Y228559D01*
X323949Y228559D01*
X323949Y237890D01*
X323946Y237924D01*
X323948Y237959D01*
X323926Y238148D01*
X323909Y238338D01*
X323900Y238372D01*
X323896Y238406D01*
X323842Y238587D01*
X323875Y238745D01*
X323921Y238930D01*
X323923Y238964D01*
X323930Y238998D01*
X323949Y239310D01*
X323949Y248641D01*
X327535Y248641D01*
X328181Y248468D01*
X328898Y248053D01*
X329037Y247989D01*
X329172Y247916D01*
X329241Y247894D01*
X329307Y247864D01*
X329455Y247825D01*
X329600Y247777D01*
X329672Y247767D01*
X329742Y247749D01*
X329895Y247737D01*
X330046Y247716D01*
X330119Y247719D01*
X330191Y247713D01*
X330343Y247728D01*
X330496Y247734D01*
X330567Y247750D01*
X330639Y247757D01*
X330786Y247799D01*
X330936Y247832D01*
X331003Y247860D01*
X331073Y247880D01*
X331210Y247946D01*
X331351Y248005D01*
X331412Y248045D01*
X331477Y248077D01*
X331601Y248167D01*
X331729Y248250D01*
X331800Y248312D01*
X331841Y248342D01*
X331880Y248383D01*
X331964Y248457D01*
X332149Y248642D01*
X332338Y248664D01*
X332529Y248681D01*
X332562Y248690D01*
X332596Y248694D01*
X332779Y248749D01*
X332963Y248799D01*
X332994Y248814D01*
X333027Y248824D01*
X333198Y248911D01*
X333370Y248993D01*
X333398Y249013D01*
X333429Y249028D01*
X333581Y249144D01*
X333736Y249255D01*
X333760Y249280D01*
X333787Y249300D01*
X333916Y249440D01*
X334050Y249577D01*
X334069Y249606D01*
X334093Y249632D01*
X334195Y249793D01*
X334302Y249950D01*
X334316Y249982D01*
X334334Y250011D01*
X334407Y250188D01*
X334484Y250362D01*
X334492Y250396D01*
X334505Y250428D01*
X334545Y250615D01*
X334591Y250800D01*
X334593Y250834D01*
X334600Y250868D01*
X334619Y251180D01*
X334619Y268044D01*
X334605Y268207D01*
X334598Y268372D01*
X334585Y268431D01*
X334579Y268492D01*
X334536Y268651D01*
X334500Y268811D01*
X334477Y268868D01*
X334461Y268927D01*
X334390Y269075D01*
X334327Y269227D01*
X334294Y269278D01*
X334267Y269333D01*
X334172Y269467D01*
X334082Y269605D01*
X334031Y269663D01*
X334005Y269699D01*
X333962Y269742D01*
X333876Y269839D01*
X313149Y290566D01*
X313023Y290671D01*
X312902Y290783D01*
X312851Y290815D01*
X312804Y290854D01*
X312661Y290936D01*
X312522Y291024D01*
X312466Y291048D01*
X312413Y291078D01*
X312258Y291133D01*
X312106Y291195D01*
X312046Y291208D01*
X311989Y291229D01*
X311826Y291255D01*
X311666Y291290D01*
X311589Y291295D01*
X311544Y291302D01*
X311483Y291301D01*
X311354Y291309D01*
X311248Y291309D01*
X310091Y292466D01*
X309965Y292571D01*
X309844Y292683D01*
X309793Y292715D01*
X309746Y292754D01*
X309603Y292836D01*
X309464Y292924D01*
X309408Y292948D01*
X309355Y292978D01*
X309200Y293033D01*
X309048Y293095D01*
X308988Y293108D01*
X308931Y293129D01*
X308768Y293155D01*
X308608Y293190D01*
X308531Y293195D01*
X308487Y293202D01*
X308425Y293201D01*
X308296Y293209D01*
X307339Y293209D01*
X307339Y302100D01*
X307339Y310991D01*
X308296Y310991D01*
X308459Y311005D01*
X308624Y311012D01*
X308683Y311025D01*
X308744Y311031D01*
X308903Y311074D01*
X309064Y311110D01*
X309120Y311133D01*
X309179Y311149D01*
X309327Y311220D01*
X309479Y311283D01*
X309530Y311316D01*
X309585Y311343D01*
X309719Y311438D01*
X309857Y311528D01*
X309915Y311579D01*
X309951Y311605D01*
X309994Y311648D01*
X310091Y311734D01*
X311765Y313408D01*
X311795Y313428D01*
X311853Y313479D01*
X311889Y313505D01*
X311932Y313548D01*
X312029Y313634D01*
X312422Y314027D01*
X314289Y314801D01*
X321291Y314801D01*
X323158Y314027D01*
X364307Y272878D01*
X365081Y271011D01*
X365081Y88989D01*
X364307Y87122D01*
X362521Y85336D01*
X291681Y14496D01*
X291597Y14396D01*
X291507Y14303D01*
X291453Y14223D01*
X291392Y14150D01*
X291327Y14037D01*
X291255Y13930D01*
X291216Y13842D01*
X291168Y13759D01*
X291125Y13637D01*
X291072Y13518D01*
X291050Y13425D01*
X291018Y13335D01*
X290996Y13206D01*
X290966Y13080D01*
X290960Y12985D01*
X290944Y12891D01*
X290946Y12760D01*
X290938Y12631D01*
X290949Y12536D01*
X290950Y12440D01*
X290975Y12313D01*
X290990Y12184D01*
X291018Y12092D01*
X291036Y11998D01*
X291083Y11877D01*
X291120Y11753D01*
X291164Y11668D01*
X291198Y11578D01*
X291266Y11467D01*
X291325Y11351D01*
X291382Y11275D01*
X291432Y11194D01*
X291518Y11096D01*
X291597Y10993D01*
X291667Y10928D01*
X291730Y10856D01*
X291832Y10776D01*
X291928Y10687D01*
X292009Y10636D01*
X292083Y10577D01*
X292198Y10516D01*
X292308Y10446D01*
X292396Y10409D01*
X292480Y10364D01*
X292604Y10324D01*
X292724Y10275D01*
X292818Y10255D01*
X292908Y10225D01*
X293037Y10207D01*
X293164Y10180D01*
X293294Y10172D01*
X293355Y10164D01*
X293399Y10165D01*
X293476Y10161D01*
X359065Y10161D01*
X359183Y10171D01*
X359302Y10172D01*
X359407Y10191D01*
X359514Y10201D01*
X359628Y10232D01*
X359745Y10253D01*
X359845Y10291D01*
X359948Y10319D01*
X360055Y10370D01*
X360166Y10412D01*
X360258Y10467D01*
X360355Y10513D01*
X360451Y10582D01*
X360553Y10642D01*
X360634Y10712D01*
X360721Y10775D01*
X360804Y10860D01*
X360893Y10938D01*
X360960Y11021D01*
X361035Y11097D01*
X361101Y11196D01*
X361176Y11288D01*
X361227Y11382D01*
X361287Y11470D01*
X361335Y11579D01*
X361392Y11683D01*
X361426Y11784D01*
X361469Y11882D01*
X361497Y11998D01*
X361535Y12110D01*
X361550Y12216D01*
X361576Y12320D01*
X361583Y12438D01*
X361600Y12555D01*
X361597Y12662D01*
X361603Y12769D01*
X361590Y12887D01*
X361586Y13006D01*
X361564Y13110D01*
X361551Y13216D01*
X361517Y13330D01*
X361492Y13446D01*
X361452Y13545D01*
X361421Y13647D01*
X361367Y13753D01*
X361322Y13863D01*
X361265Y13953D01*
X361217Y14049D01*
X361145Y14143D01*
X361082Y14243D01*
X361009Y14322D01*
X360945Y14407D01*
X360857Y14488D01*
X360777Y14575D01*
X360692Y14640D01*
X360614Y14712D01*
X360513Y14776D01*
X360419Y14848D01*
X360324Y14897D01*
X360234Y14954D01*
X360124Y14999D01*
X360018Y15054D01*
X359875Y15101D01*
X359817Y15125D01*
X359781Y15133D01*
X359722Y15153D01*
X359709Y15156D01*
X353630Y18666D01*
X348666Y23630D01*
X345156Y29709D01*
X343339Y36490D01*
X343339Y43510D01*
X345156Y50291D01*
X348666Y56370D01*
X353630Y61334D01*
X359709Y64844D01*
X366490Y66661D01*
X373510Y66661D01*
X380291Y64844D01*
X386370Y61334D01*
X391304Y56399D01*
X391404Y56316D01*
X391497Y56225D01*
X391577Y56172D01*
X391650Y56111D01*
X391763Y56046D01*
X391870Y55973D01*
X391958Y55935D01*
X392041Y55887D01*
X392163Y55844D01*
X392282Y55791D01*
X392375Y55768D01*
X392465Y55736D01*
X392593Y55715D01*
X392720Y55684D01*
X392815Y55678D01*
X392909Y55663D01*
X393039Y55665D01*
X393169Y55657D01*
X393264Y55668D01*
X393360Y55669D01*
X393487Y55694D01*
X393616Y55709D01*
X393708Y55736D01*
X393802Y55755D01*
X393923Y55801D01*
X394047Y55839D01*
X394132Y55882D01*
X394222Y55917D01*
X394333Y55984D01*
X394449Y56043D01*
X394525Y56101D01*
X394606Y56151D01*
X394704Y56237D01*
X394807Y56315D01*
X394872Y56386D01*
X394944Y56449D01*
X395024Y56551D01*
X395113Y56647D01*
X395164Y56727D01*
X395223Y56802D01*
X395284Y56917D01*
X395354Y57026D01*
X395391Y57115D01*
X395436Y57199D01*
X395476Y57323D01*
X395525Y57443D01*
X395545Y57536D01*
X395575Y57627D01*
X395593Y57756D01*
X395620Y57883D01*
X395628Y58013D01*
X395636Y58073D01*
X395635Y58118D01*
X395639Y58195D01*
X395639Y301805D01*
X395628Y301935D01*
X395626Y302065D01*
X395608Y302158D01*
X395599Y302254D01*
X395565Y302379D01*
X395540Y302507D01*
X395506Y302596D01*
X395481Y302688D01*
X395425Y302805D01*
X395378Y302927D01*
X395328Y303008D01*
X395287Y303095D01*
X395212Y303200D01*
X395144Y303311D01*
X395081Y303383D01*
X395025Y303461D01*
X394932Y303551D01*
X394846Y303649D01*
X394771Y303708D01*
X394703Y303775D01*
X394595Y303848D01*
X394493Y303928D01*
X394409Y303973D01*
X394330Y304027D01*
X394211Y304079D01*
X394096Y304141D01*
X394005Y304170D01*
X393918Y304209D01*
X393791Y304240D01*
X393668Y304280D01*
X393573Y304293D01*
X393480Y304316D01*
X393351Y304324D01*
X393222Y304341D01*
X393126Y304337D01*
X393031Y304343D01*
X392902Y304328D01*
X392772Y304323D01*
X392679Y304302D01*
X392584Y304291D01*
X392459Y304254D01*
X392332Y304225D01*
X392244Y304189D01*
X392153Y304161D01*
X392037Y304102D01*
X391917Y304052D01*
X391837Y304000D01*
X391751Y303957D01*
X391648Y303878D01*
X391539Y303808D01*
X391441Y303721D01*
X391393Y303685D01*
X391362Y303652D01*
X391304Y303601D01*
X386370Y298666D01*
X380291Y295156D01*
X373510Y293339D01*
X366490Y293339D01*
X359709Y295156D01*
X353630Y298666D01*
X348666Y303630D01*
X345156Y309709D01*
X343339Y316490D01*
X343339Y323510D01*
X345156Y330291D01*
X348666Y336370D01*
X353630Y341334D01*
X359709Y344844D01*
X366490Y346661D01*
X373510Y346661D01*
X380291Y344844D01*
X386370Y341334D01*
X391304Y336399D01*
X391404Y336316D01*
X391497Y336225D01*
X391577Y336172D01*
X391650Y336111D01*
X391763Y336046D01*
X391870Y335973D01*
X391958Y335935D01*
X392041Y335887D01*
X392163Y335844D01*
X392282Y335791D01*
X392375Y335768D01*
X392465Y335736D01*
X392593Y335715D01*
X392720Y335684D01*
X392815Y335678D01*
X392909Y335663D01*
X393039Y335665D01*
X393169Y335657D01*
X393264Y335668D01*
X393360Y335669D01*
X393487Y335694D01*
X393616Y335709D01*
X393708Y335736D01*
X393802Y335755D01*
X393923Y335801D01*
X394047Y335839D01*
X394132Y335882D01*
X394222Y335917D01*
X394333Y335984D01*
X394449Y336043D01*
X394525Y336101D01*
X394606Y336151D01*
X394704Y336237D01*
X394807Y336315D01*
X394872Y336386D01*
X394944Y336449D01*
X395024Y336551D01*
X395113Y336647D01*
X395164Y336727D01*
X395223Y336802D01*
X395284Y336917D01*
X395354Y337026D01*
X395391Y337115D01*
X395436Y337199D01*
X395476Y337323D01*
X395525Y337443D01*
X395545Y337536D01*
X395575Y337627D01*
X395593Y337756D01*
X395620Y337883D01*
X395628Y338013D01*
X395636Y338073D01*
X395635Y338118D01*
X395639Y338195D01*
X395639Y350100D01*
X395636Y350135D01*
X395638Y350169D01*
X395616Y350358D01*
X395599Y350549D01*
X395590Y350582D01*
X395586Y350616D01*
X395531Y350799D01*
X395481Y350983D01*
X395466Y351014D01*
X395456Y351047D01*
X395369Y351218D01*
X395287Y351390D01*
X395267Y351418D01*
X395252Y351449D01*
X395136Y351601D01*
X395025Y351756D01*
X395000Y351780D01*
X394980Y351807D01*
X394840Y351936D01*
X394703Y352070D01*
X394674Y352089D01*
X394648Y352113D01*
X394487Y352215D01*
X394330Y352322D01*
X394298Y352336D01*
X394269Y352354D01*
X394092Y352427D01*
X393918Y352504D01*
X393884Y352512D01*
X393852Y352525D01*
X393665Y352565D01*
X393480Y352611D01*
X393446Y352613D01*
X393412Y352620D01*
X393100Y352639D01*
X12700Y352639D01*
X12665Y352636D01*
X12631Y352638D01*
X12442Y352616D01*
X12251Y352599D01*
X12218Y352590D01*
X12184Y352586D01*
X12001Y352531D01*
X11817Y352481D01*
X11786Y352466D01*
X11753Y352456D01*
X11582Y352369D01*
X11410Y352287D01*
X11382Y352267D01*
X11351Y352252D01*
X11199Y352136D01*
X11044Y352025D01*
X11020Y352000D01*
X10993Y351980D01*
X10864Y351840D01*
X10730Y351703D01*
X10711Y351674D01*
X10687Y351648D01*
X10585Y351487D01*
X10478Y351330D01*
X10464Y351298D01*
X10446Y351269D01*
X10373Y351092D01*
X10296Y350918D01*
X10288Y350884D01*
X10275Y350852D01*
X10235Y350665D01*
X10189Y350480D01*
X10187Y350446D01*
X10180Y350412D01*
X10161Y350100D01*
X10161Y330935D01*
X10171Y330817D01*
X10172Y330698D01*
X10191Y330593D01*
X10201Y330486D01*
X10232Y330372D01*
X10253Y330255D01*
X10291Y330155D01*
X10319Y330052D01*
X10370Y329945D01*
X10412Y329834D01*
X10467Y329742D01*
X10513Y329645D01*
X10582Y329549D01*
X10642Y329447D01*
X10712Y329366D01*
X10775Y329279D01*
X10860Y329197D01*
X10937Y329107D01*
X11021Y329040D01*
X11097Y328965D01*
X11196Y328899D01*
X11288Y328824D01*
X11382Y328773D01*
X11470Y328713D01*
X11579Y328665D01*
X11683Y328608D01*
X11784Y328574D01*
X11882Y328531D01*
X11998Y328503D01*
X12110Y328465D01*
X12216Y328450D01*
X12320Y328424D01*
X12438Y328417D01*
X12555Y328400D01*
X12662Y328403D01*
X12769Y328397D01*
X12887Y328410D01*
X13005Y328414D01*
X13110Y328436D01*
X13216Y328449D01*
X13330Y328483D01*
X13446Y328508D01*
X13545Y328548D01*
X13647Y328579D01*
X13753Y328633D01*
X13863Y328678D01*
X13953Y328735D01*
X14049Y328783D01*
X14143Y328855D01*
X14243Y328918D01*
X14322Y328991D01*
X14407Y329055D01*
X14488Y329143D01*
X14575Y329223D01*
X14640Y329308D01*
X14712Y329386D01*
X14776Y329487D01*
X14848Y329581D01*
X14897Y329676D01*
X14954Y329766D01*
X14999Y329876D01*
X15053Y329982D01*
X15101Y330125D01*
X15125Y330183D01*
X15133Y330219D01*
X15153Y330278D01*
X15156Y330291D01*
X18666Y336370D01*
X23630Y341334D01*
X29709Y344844D01*
X36490Y346661D01*
X43510Y346661D01*
X50291Y344844D01*
X56370Y341334D01*
X61334Y336370D01*
X64844Y330291D01*
X66661Y323510D01*
X66661Y316490D01*
X64844Y309709D01*
X61334Y303630D01*
X56370Y298666D01*
X50291Y295156D01*
X43510Y293339D01*
X36490Y293339D01*
X29709Y295156D01*
X23630Y298666D01*
X18666Y303630D01*
X15156Y309709D01*
X15153Y309722D01*
X15112Y309834D01*
X15081Y309948D01*
X15035Y310044D01*
X14998Y310145D01*
X14938Y310248D01*
X14887Y310355D01*
X14825Y310441D01*
X14771Y310534D01*
X14694Y310624D01*
X14625Y310721D01*
X14549Y310795D01*
X14479Y310877D01*
X14388Y310952D01*
X14303Y311035D01*
X14214Y311095D01*
X14131Y311162D01*
X14028Y311220D01*
X13930Y311287D01*
X13832Y311330D01*
X13738Y311382D01*
X13626Y311421D01*
X13518Y311469D01*
X13414Y311494D01*
X13313Y311529D01*
X13196Y311548D01*
X13080Y311576D01*
X12974Y311582D01*
X12868Y311599D01*
X12749Y311596D01*
X12631Y311603D01*
X12525Y311591D01*
X12418Y311589D01*
X12302Y311565D01*
X12184Y311551D01*
X12081Y311520D01*
X11976Y311499D01*
X11866Y311455D01*
X11753Y311421D01*
X11657Y311372D01*
X11558Y311333D01*
X11457Y311270D01*
X11351Y311217D01*
X11266Y311152D01*
X11175Y311096D01*
X11087Y311016D01*
X10993Y310945D01*
X10920Y310866D01*
X10841Y310794D01*
X10768Y310701D01*
X10687Y310614D01*
X10630Y310523D01*
X10564Y310439D01*
X10509Y310334D01*
X10446Y310234D01*
X10405Y310135D01*
X10355Y310040D01*
X10320Y309927D01*
X10275Y309817D01*
X10252Y309712D01*
X10220Y309611D01*
X10205Y309493D01*
X10180Y309377D01*
X10171Y309226D01*
X10163Y309164D01*
X10165Y309127D01*
X10161Y309065D01*
X10161Y50935D01*
X10171Y50817D01*
X10172Y50698D01*
X10191Y50593D01*
X10201Y50486D01*
X10232Y50372D01*
X10253Y50255D01*
X10291Y50155D01*
X10319Y50052D01*
X10370Y49945D01*
X10412Y49834D01*
X10467Y49742D01*
X10513Y49645D01*
X10582Y49549D01*
X10642Y49447D01*
X10712Y49366D01*
X10775Y49279D01*
X10860Y49197D01*
X10937Y49107D01*
X11021Y49040D01*
X11097Y48965D01*
X11196Y48899D01*
X11288Y48824D01*
X11382Y48773D01*
X11470Y48713D01*
X11579Y48665D01*
X11683Y48608D01*
X11784Y48574D01*
X11882Y48531D01*
X11998Y48503D01*
X12110Y48465D01*
X12216Y48450D01*
X12320Y48424D01*
X12438Y48417D01*
X12555Y48400D01*
X12662Y48403D01*
X12769Y48397D01*
X12887Y48410D01*
X13005Y48414D01*
X13110Y48436D01*
X13216Y48449D01*
X13330Y48483D01*
X13446Y48508D01*
X13545Y48548D01*
X13647Y48579D01*
X13753Y48633D01*
X13863Y48678D01*
X13953Y48735D01*
X14049Y48783D01*
X14143Y48855D01*
X14243Y48918D01*
X14322Y48991D01*
X14407Y49055D01*
X14488Y49143D01*
X14575Y49223D01*
X14640Y49308D01*
X14712Y49386D01*
X14776Y49487D01*
X14848Y49581D01*
X14897Y49676D01*
X14954Y49766D01*
X14999Y49876D01*
X15053Y49982D01*
X15101Y50125D01*
X15125Y50183D01*
X15133Y50219D01*
X15153Y50278D01*
X15156Y50291D01*
X18666Y56370D01*
X23630Y61334D01*
X29709Y64844D01*
X36490Y66661D01*
X43510Y66661D01*
X50291Y64844D01*
X56370Y61334D01*
X61334Y56370D01*
X64844Y50291D01*
X66661Y43510D01*
X66661Y36490D01*
X64844Y29709D01*
X61334Y23630D01*
X56370Y18666D01*
X50291Y15156D01*
X50278Y15153D01*
X50167Y15112D01*
X50052Y15081D01*
X49955Y15035D01*
X49855Y14998D01*
X49752Y14938D01*
X49645Y14887D01*
X49559Y14825D01*
X49466Y14771D01*
X49376Y14694D01*
X49279Y14625D01*
X49205Y14549D01*
X49123Y14479D01*
X49048Y14388D01*
X48965Y14303D01*
X48905Y14214D01*
X48838Y14131D01*
X48780Y14028D01*
X48713Y13930D01*
X48670Y13832D01*
X48618Y13738D01*
X48579Y13626D01*
X48531Y13518D01*
X48506Y13414D01*
X48471Y13313D01*
X48452Y13195D01*
X48424Y13080D01*
X48418Y12974D01*
X48401Y12868D01*
X48404Y12749D01*
X48397Y12631D01*
X48409Y12525D01*
X48411Y12418D01*
X48435Y12302D01*
X48449Y12184D01*
X48480Y12081D01*
X48501Y11977D01*
X48545Y11866D01*
X48579Y11753D01*
X48628Y11657D01*
X48667Y11558D01*
X48729Y11457D01*
X48783Y11351D01*
X48848Y11266D01*
X48904Y11175D01*
X48984Y11087D01*
X49055Y10993D01*
X49134Y10920D01*
X49205Y10841D01*
X49299Y10768D01*
X49386Y10687D01*
X49477Y10630D01*
X49561Y10564D01*
X49666Y10509D01*
X49766Y10446D01*
X49865Y10405D01*
X49960Y10355D01*
X50073Y10320D01*
X50183Y10275D01*
X50287Y10252D01*
X50389Y10220D01*
X50507Y10205D01*
X50623Y10180D01*
X50774Y10171D01*
X50836Y10163D01*
X50873Y10165D01*
X50935Y10161D01*
X116524Y10161D01*
X116653Y10172D01*
G37*
%LPC*%
G36*
X66039Y246539D02*
X66039Y246539D01*
X66039Y254081D01*
X71833Y254081D01*
X73401Y253832D01*
X74910Y253342D01*
X76323Y252622D01*
X77607Y251689D01*
X78729Y250567D01*
X79662Y249283D01*
X80382Y247870D01*
X80814Y246539D01*
X66039Y246539D01*
G37*
%LPD*%
%LPC*%
G36*
X46186Y246539D02*
X46186Y246539D01*
X46618Y247870D01*
X47338Y249283D01*
X48271Y250567D01*
X49393Y251689D01*
X50677Y252622D01*
X52090Y253342D01*
X53599Y253832D01*
X55167Y254081D01*
X60961Y254081D01*
X60961Y246539D01*
X46186Y246539D01*
G37*
%LPD*%
%LPC*%
G36*
X66039Y233919D02*
X66039Y233919D01*
X66039Y241461D01*
X80814Y241461D01*
X80382Y240130D01*
X79662Y238717D01*
X78729Y237433D01*
X77607Y236311D01*
X76323Y235378D01*
X74910Y234658D01*
X73401Y234168D01*
X71833Y233919D01*
X66039Y233919D01*
G37*
%LPD*%
%LPC*%
G36*
X55167Y233919D02*
X55167Y233919D01*
X53599Y234168D01*
X52090Y234658D01*
X50677Y235378D01*
X49393Y236311D01*
X48271Y237433D01*
X47338Y238717D01*
X46618Y240130D01*
X46186Y241461D01*
X60961Y241461D01*
X60961Y233919D01*
X55167Y233919D01*
G37*
%LPD*%
%LPC*%
G36*
X311659Y241849D02*
X311659Y241849D01*
X311659Y246435D01*
X311832Y247081D01*
X312167Y247660D01*
X312640Y248133D01*
X313219Y248468D01*
X313865Y248641D01*
X317451Y248641D01*
X317451Y241849D01*
X311659Y241849D01*
G37*
%LPD*%
%LPC*%
G36*
X311659Y165649D02*
X311659Y165649D01*
X311659Y170235D01*
X311832Y170881D01*
X312167Y171460D01*
X312640Y171933D01*
X313219Y172268D01*
X313865Y172441D01*
X317451Y172441D01*
X317451Y165649D01*
X311659Y165649D01*
G37*
%LPD*%
%LPC*%
G36*
X313865Y228559D02*
X313865Y228559D01*
X313219Y228732D01*
X312640Y229067D01*
X312167Y229540D01*
X311832Y230119D01*
X311659Y230765D01*
X311659Y235351D01*
X317451Y235351D01*
X317451Y228559D01*
X313865Y228559D01*
G37*
%LPD*%
%LPC*%
G36*
X313865Y152359D02*
X313865Y152359D01*
X313219Y152532D01*
X312640Y152867D01*
X312167Y153340D01*
X311832Y153919D01*
X311659Y154565D01*
X311659Y159151D01*
X317451Y159151D01*
X317451Y152359D01*
X313865Y152359D01*
G37*
%LPD*%
%LPC*%
G36*
X317339Y109441D02*
X317339Y109441D01*
X318885Y109441D01*
X319531Y109268D01*
X320110Y108933D01*
X320583Y108460D01*
X320884Y107939D01*
X319517Y107939D01*
X319385Y107928D01*
X319253Y107926D01*
X319161Y107908D01*
X319068Y107899D01*
X318941Y107865D01*
X318811Y107839D01*
X318724Y107806D01*
X318634Y107781D01*
X318515Y107724D01*
X318391Y107676D01*
X318311Y107628D01*
X318227Y107588D01*
X318120Y107511D01*
X318007Y107442D01*
X317937Y107380D01*
X317861Y107325D01*
X317769Y107231D01*
X317670Y107143D01*
X317612Y107070D01*
X317547Y107003D01*
X317473Y106893D01*
X317391Y106789D01*
X317347Y106707D01*
X317339Y106695D01*
X317339Y109441D01*
G37*
%LPD*%
D10*
X339700Y162400D03*
X320700Y162400D03*
X339700Y238600D03*
X320700Y238600D03*
D11*
X314800Y92400D03*
X314800Y98900D03*
X314800Y105400D03*
X294800Y105400D03*
X294800Y98900D03*
X294800Y92400D03*
D12*
X304800Y98900D03*
D13*
X294300Y308600D03*
X294300Y302100D03*
X294300Y295600D03*
X315300Y295600D03*
X315300Y302100D03*
X315300Y308600D03*
D14*
X304800Y302100D03*
D15*
X169300Y98900D03*
X186300Y98900D03*
X169300Y162400D03*
X186300Y162400D03*
X169300Y238600D03*
X186300Y238600D03*
D16*
X71040Y117000D02*
X55960Y117000D01*
X55960Y142400D02*
X71040Y142400D01*
X71040Y167800D02*
X55960Y167800D01*
X55960Y193200D02*
X71040Y193200D01*
X71040Y218600D02*
X55960Y218600D01*
X55960Y244000D02*
X71040Y244000D01*
D15*
X169300Y302100D03*
X186300Y302100D03*
D17*
X169300Y81924D02*
X190844Y60380D01*
X169300Y81924D02*
X169300Y98900D01*
X190844Y60380D02*
X263171Y60380D01*
X294067Y91276D01*
X139700Y142400D02*
X63500Y142400D01*
X139700Y142400D02*
X139700Y110300D01*
X151100Y98900D01*
X169300Y98900D01*
X63500Y142400D02*
X42400Y142400D01*
X30000Y130000D01*
X30000Y110000D01*
X127300Y12700D01*
X282700Y12700D01*
X360000Y90000D01*
X360000Y270000D01*
X320280Y309720D01*
X315300Y309720D01*
D18*
X294800Y92400D02*
X294800Y92009D01*
X294067Y91276D01*
X315300Y308600D02*
X315300Y309720D01*
D17*
X169300Y162400D02*
X163900Y167800D01*
X63500Y167800D01*
X266700Y98900D02*
X290140Y98900D01*
X177800Y137000D02*
X169300Y145500D01*
X169300Y162400D01*
X228600Y137000D02*
X266700Y98900D01*
X228600Y137000D02*
X177800Y137000D01*
D18*
X290140Y98900D02*
X294800Y98900D01*
D17*
X169300Y238600D02*
X123900Y193200D01*
X63500Y193200D01*
X169300Y209000D02*
X169300Y238600D01*
X169300Y209000D02*
X177800Y200500D01*
X211928Y200500D01*
X295908Y116520D01*
X295908Y106520D02*
X295943Y106485D01*
X63500Y193200D02*
X46800Y193200D01*
X30000Y210000D01*
X30000Y250000D01*
X107500Y327500D01*
X276526Y327500D01*
X294300Y309726D01*
D18*
X295908Y106508D02*
X294800Y105400D01*
X295908Y106508D02*
X295908Y106520D01*
D17*
X295908Y116520D01*
D18*
X294300Y308600D02*
X294300Y309726D01*
X294300Y302100D02*
X304800Y302100D01*
D17*
X169300Y302100D02*
X85800Y218600D01*
X63500Y218600D01*
X169300Y285200D02*
X169300Y302100D01*
X169300Y285200D02*
X177800Y276700D01*
X276369Y276700D01*
X292837Y293168D01*
D18*
X294300Y294700D02*
X294300Y295600D01*
X294300Y294631D01*
X292837Y293168D01*
D19*
X127000Y73500D03*
X215900Y98900D03*
X215900Y162400D03*
X215900Y238600D03*
D17*
X83500Y117000D02*
X127000Y73500D01*
X83500Y117000D02*
X63500Y117000D01*
X186300Y162400D02*
X215900Y162400D01*
X215900Y238600D02*
X186300Y238600D01*
X186300Y98900D02*
X215900Y98900D01*
D19*
X215900Y302100D03*
D17*
X186300Y302100D01*
X339700Y238600D02*
X339700Y162400D01*
X165100Y35400D02*
X127000Y73500D01*
X165100Y35400D02*
X272100Y35400D01*
X323350Y86650D01*
X339700Y103000D02*
X339700Y162400D01*
X339700Y271200D02*
X315300Y295600D01*
X339700Y271200D02*
X339700Y238600D01*
X339700Y103000D02*
X323350Y86650D01*
X319466Y86650D02*
X318058Y88058D01*
X315050Y91066D01*
X319466Y86650D02*
X323350Y86650D01*
D18*
X314800Y91316D02*
X314800Y92400D01*
X315300Y295600D02*
X315300Y302100D01*
X314800Y91316D02*
X318058Y88058D01*
M02*
