G04 EAGLE Gerber RS-274X export*
G75*
%MOMM*%
%FSLAX34Y34*%
%LPD*%
%IN*%
%IPPOS*%
%AMOC8*
5,1,8,0,0,1.08239X$1,22.5*%
G01*
%ADD10C,0.254000*%


D10*
X0Y0D02*
X405800Y0D01*
X405800Y362800D01*
X0Y362800D01*
X0Y0D01*
X56500Y319460D02*
X56429Y318382D01*
X56288Y317311D01*
X56078Y316251D01*
X55798Y315208D01*
X55451Y314185D01*
X55037Y313187D01*
X54560Y312218D01*
X54019Y311282D01*
X53419Y310384D01*
X52762Y309527D01*
X52049Y308715D01*
X51285Y307951D01*
X50473Y307239D01*
X49616Y306581D01*
X48718Y305981D01*
X47782Y305441D01*
X46813Y304963D01*
X45815Y304549D01*
X44792Y304202D01*
X43749Y303922D01*
X42689Y303712D01*
X41618Y303571D01*
X40540Y303500D01*
X39460Y303500D01*
X38382Y303571D01*
X37311Y303712D01*
X36251Y303922D01*
X35208Y304202D01*
X34185Y304549D01*
X33187Y304963D01*
X32218Y305441D01*
X31282Y305981D01*
X30384Y306581D01*
X29527Y307239D01*
X28715Y307951D01*
X27951Y308715D01*
X27239Y309527D01*
X26581Y310384D01*
X25981Y311282D01*
X25441Y312218D01*
X24963Y313187D01*
X24549Y314185D01*
X24202Y315208D01*
X23922Y316251D01*
X23712Y317311D01*
X23571Y318382D01*
X23500Y319460D01*
X23500Y320540D01*
X23571Y321618D01*
X23712Y322689D01*
X23922Y323749D01*
X24202Y324792D01*
X24549Y325815D01*
X24963Y326813D01*
X25441Y327782D01*
X25981Y328718D01*
X26581Y329616D01*
X27239Y330473D01*
X27951Y331285D01*
X28715Y332049D01*
X29527Y332762D01*
X30384Y333419D01*
X31282Y334019D01*
X32218Y334560D01*
X33187Y335037D01*
X34185Y335451D01*
X35208Y335798D01*
X36251Y336078D01*
X37311Y336288D01*
X38382Y336429D01*
X39460Y336500D01*
X40540Y336500D01*
X41618Y336429D01*
X42689Y336288D01*
X43749Y336078D01*
X44792Y335798D01*
X45815Y335451D01*
X46813Y335037D01*
X47782Y334560D01*
X48718Y334019D01*
X49616Y333419D01*
X50473Y332762D01*
X51285Y332049D01*
X52049Y331285D01*
X52762Y330473D01*
X53419Y329616D01*
X54019Y328718D01*
X54560Y327782D01*
X55037Y326813D01*
X55451Y325815D01*
X55798Y324792D01*
X56078Y323749D01*
X56288Y322689D01*
X56429Y321618D01*
X56500Y320540D01*
X56500Y319460D01*
X56500Y39460D02*
X56429Y38382D01*
X56288Y37311D01*
X56078Y36251D01*
X55798Y35208D01*
X55451Y34185D01*
X55037Y33187D01*
X54560Y32218D01*
X54019Y31282D01*
X53419Y30384D01*
X52762Y29527D01*
X52049Y28715D01*
X51285Y27951D01*
X50473Y27239D01*
X49616Y26581D01*
X48718Y25981D01*
X47782Y25441D01*
X46813Y24963D01*
X45815Y24549D01*
X44792Y24202D01*
X43749Y23922D01*
X42689Y23712D01*
X41618Y23571D01*
X40540Y23500D01*
X39460Y23500D01*
X38382Y23571D01*
X37311Y23712D01*
X36251Y23922D01*
X35208Y24202D01*
X34185Y24549D01*
X33187Y24963D01*
X32218Y25441D01*
X31282Y25981D01*
X30384Y26581D01*
X29527Y27239D01*
X28715Y27951D01*
X27951Y28715D01*
X27239Y29527D01*
X26581Y30384D01*
X25981Y31282D01*
X25441Y32218D01*
X24963Y33187D01*
X24549Y34185D01*
X24202Y35208D01*
X23922Y36251D01*
X23712Y37311D01*
X23571Y38382D01*
X23500Y39460D01*
X23500Y40540D01*
X23571Y41618D01*
X23712Y42689D01*
X23922Y43749D01*
X24202Y44792D01*
X24549Y45815D01*
X24963Y46813D01*
X25441Y47782D01*
X25981Y48718D01*
X26581Y49616D01*
X27239Y50473D01*
X27951Y51285D01*
X28715Y52049D01*
X29527Y52762D01*
X30384Y53419D01*
X31282Y54019D01*
X32218Y54560D01*
X33187Y55037D01*
X34185Y55451D01*
X35208Y55798D01*
X36251Y56078D01*
X37311Y56288D01*
X38382Y56429D01*
X39460Y56500D01*
X40540Y56500D01*
X41618Y56429D01*
X42689Y56288D01*
X43749Y56078D01*
X44792Y55798D01*
X45815Y55451D01*
X46813Y55037D01*
X47782Y54560D01*
X48718Y54019D01*
X49616Y53419D01*
X50473Y52762D01*
X51285Y52049D01*
X52049Y51285D01*
X52762Y50473D01*
X53419Y49616D01*
X54019Y48718D01*
X54560Y47782D01*
X55037Y46813D01*
X55451Y45815D01*
X55798Y44792D01*
X56078Y43749D01*
X56288Y42689D01*
X56429Y41618D01*
X56500Y40540D01*
X56500Y39460D01*
X386500Y39460D02*
X386429Y38382D01*
X386288Y37311D01*
X386078Y36251D01*
X385798Y35208D01*
X385451Y34185D01*
X385037Y33187D01*
X384560Y32218D01*
X384019Y31282D01*
X383419Y30384D01*
X382762Y29527D01*
X382049Y28715D01*
X381285Y27951D01*
X380473Y27239D01*
X379616Y26581D01*
X378718Y25981D01*
X377782Y25441D01*
X376813Y24963D01*
X375815Y24549D01*
X374792Y24202D01*
X373749Y23922D01*
X372689Y23712D01*
X371618Y23571D01*
X370540Y23500D01*
X369460Y23500D01*
X368382Y23571D01*
X367311Y23712D01*
X366251Y23922D01*
X365208Y24202D01*
X364185Y24549D01*
X363187Y24963D01*
X362218Y25441D01*
X361282Y25981D01*
X360384Y26581D01*
X359527Y27239D01*
X358715Y27951D01*
X357951Y28715D01*
X357239Y29527D01*
X356581Y30384D01*
X355981Y31282D01*
X355441Y32218D01*
X354963Y33187D01*
X354549Y34185D01*
X354202Y35208D01*
X353922Y36251D01*
X353712Y37311D01*
X353571Y38382D01*
X353500Y39460D01*
X353500Y40540D01*
X353571Y41618D01*
X353712Y42689D01*
X353922Y43749D01*
X354202Y44792D01*
X354549Y45815D01*
X354963Y46813D01*
X355441Y47782D01*
X355981Y48718D01*
X356581Y49616D01*
X357239Y50473D01*
X357951Y51285D01*
X358715Y52049D01*
X359527Y52762D01*
X360384Y53419D01*
X361282Y54019D01*
X362218Y54560D01*
X363187Y55037D01*
X364185Y55451D01*
X365208Y55798D01*
X366251Y56078D01*
X367311Y56288D01*
X368382Y56429D01*
X369460Y56500D01*
X370540Y56500D01*
X371618Y56429D01*
X372689Y56288D01*
X373749Y56078D01*
X374792Y55798D01*
X375815Y55451D01*
X376813Y55037D01*
X377782Y54560D01*
X378718Y54019D01*
X379616Y53419D01*
X380473Y52762D01*
X381285Y52049D01*
X382049Y51285D01*
X382762Y50473D01*
X383419Y49616D01*
X384019Y48718D01*
X384560Y47782D01*
X385037Y46813D01*
X385451Y45815D01*
X385798Y44792D01*
X386078Y43749D01*
X386288Y42689D01*
X386429Y41618D01*
X386500Y40540D01*
X386500Y39460D01*
X386500Y319460D02*
X386429Y318382D01*
X386288Y317311D01*
X386078Y316251D01*
X385798Y315208D01*
X385451Y314185D01*
X385037Y313187D01*
X384560Y312218D01*
X384019Y311282D01*
X383419Y310384D01*
X382762Y309527D01*
X382049Y308715D01*
X381285Y307951D01*
X380473Y307239D01*
X379616Y306581D01*
X378718Y305981D01*
X377782Y305441D01*
X376813Y304963D01*
X375815Y304549D01*
X374792Y304202D01*
X373749Y303922D01*
X372689Y303712D01*
X371618Y303571D01*
X370540Y303500D01*
X369460Y303500D01*
X368382Y303571D01*
X367311Y303712D01*
X366251Y303922D01*
X365208Y304202D01*
X364185Y304549D01*
X363187Y304963D01*
X362218Y305441D01*
X361282Y305981D01*
X360384Y306581D01*
X359527Y307239D01*
X358715Y307951D01*
X357951Y308715D01*
X357239Y309527D01*
X356581Y310384D01*
X355981Y311282D01*
X355441Y312218D01*
X354963Y313187D01*
X354549Y314185D01*
X354202Y315208D01*
X353922Y316251D01*
X353712Y317311D01*
X353571Y318382D01*
X353500Y319460D01*
X353500Y320540D01*
X353571Y321618D01*
X353712Y322689D01*
X353922Y323749D01*
X354202Y324792D01*
X354549Y325815D01*
X354963Y326813D01*
X355441Y327782D01*
X355981Y328718D01*
X356581Y329616D01*
X357239Y330473D01*
X357951Y331285D01*
X358715Y332049D01*
X359527Y332762D01*
X360384Y333419D01*
X361282Y334019D01*
X362218Y334560D01*
X363187Y335037D01*
X364185Y335451D01*
X365208Y335798D01*
X366251Y336078D01*
X367311Y336288D01*
X368382Y336429D01*
X369460Y336500D01*
X370540Y336500D01*
X371618Y336429D01*
X372689Y336288D01*
X373749Y336078D01*
X374792Y335798D01*
X375815Y335451D01*
X376813Y335037D01*
X377782Y334560D01*
X378718Y334019D01*
X379616Y333419D01*
X380473Y332762D01*
X381285Y332049D01*
X382049Y331285D01*
X382762Y330473D01*
X383419Y329616D01*
X384019Y328718D01*
X384560Y327782D01*
X385037Y326813D01*
X385451Y325815D01*
X385798Y324792D01*
X386078Y323749D01*
X386288Y322689D01*
X386429Y321618D01*
X386500Y320540D01*
X386500Y319460D01*
M02*
