G04 EAGLE Gerber RS-274X export*
G75*
%MOMM*%
%FSLAX34Y34*%
%LPD*%
%INSilkscreen Top*%
%IPPOS*%
%AMOC8*
5,1,8,0,0,1.08239X$1,22.5*%
G01*
%ADD10C,0.101600*%
%ADD11C,0.250000*%
%ADD12C,0.254000*%


D10*
X318836Y175608D02*
X316239Y175608D01*
X316140Y175610D01*
X316040Y175616D01*
X315941Y175625D01*
X315843Y175638D01*
X315745Y175655D01*
X315647Y175676D01*
X315551Y175701D01*
X315456Y175729D01*
X315362Y175761D01*
X315269Y175796D01*
X315177Y175835D01*
X315087Y175878D01*
X314999Y175923D01*
X314912Y175973D01*
X314828Y176025D01*
X314745Y176081D01*
X314665Y176139D01*
X314587Y176201D01*
X314512Y176266D01*
X314439Y176334D01*
X314369Y176404D01*
X314301Y176477D01*
X314236Y176552D01*
X314174Y176630D01*
X314116Y176710D01*
X314060Y176793D01*
X314008Y176877D01*
X313958Y176964D01*
X313913Y177052D01*
X313870Y177142D01*
X313831Y177234D01*
X313796Y177327D01*
X313764Y177421D01*
X313736Y177516D01*
X313711Y177612D01*
X313690Y177710D01*
X313673Y177808D01*
X313660Y177906D01*
X313651Y178005D01*
X313645Y178105D01*
X313643Y178204D01*
X313643Y184696D01*
X313645Y184795D01*
X313651Y184895D01*
X313660Y184994D01*
X313673Y185092D01*
X313690Y185190D01*
X313711Y185288D01*
X313736Y185384D01*
X313764Y185479D01*
X313796Y185573D01*
X313831Y185666D01*
X313870Y185758D01*
X313913Y185848D01*
X313958Y185936D01*
X314008Y186023D01*
X314060Y186107D01*
X314116Y186190D01*
X314174Y186270D01*
X314236Y186348D01*
X314301Y186423D01*
X314369Y186496D01*
X314439Y186566D01*
X314512Y186634D01*
X314587Y186699D01*
X314665Y186761D01*
X314745Y186819D01*
X314828Y186875D01*
X314912Y186927D01*
X314999Y186977D01*
X315087Y187022D01*
X315177Y187065D01*
X315269Y187104D01*
X315361Y187139D01*
X315456Y187171D01*
X315551Y187199D01*
X315647Y187224D01*
X315745Y187245D01*
X315843Y187262D01*
X315941Y187275D01*
X316040Y187284D01*
X316140Y187290D01*
X316239Y187292D01*
X318836Y187292D01*
X323201Y184696D02*
X326446Y187292D01*
X326446Y175608D01*
X323201Y175608D02*
X329692Y175608D01*
X318836Y251808D02*
X316239Y251808D01*
X316140Y251810D01*
X316040Y251816D01*
X315941Y251825D01*
X315843Y251838D01*
X315745Y251855D01*
X315647Y251876D01*
X315551Y251901D01*
X315456Y251929D01*
X315362Y251961D01*
X315269Y251996D01*
X315177Y252035D01*
X315087Y252078D01*
X314999Y252123D01*
X314912Y252173D01*
X314828Y252225D01*
X314745Y252281D01*
X314665Y252339D01*
X314587Y252401D01*
X314512Y252466D01*
X314439Y252534D01*
X314369Y252604D01*
X314301Y252677D01*
X314236Y252752D01*
X314174Y252830D01*
X314116Y252910D01*
X314060Y252993D01*
X314008Y253077D01*
X313958Y253164D01*
X313913Y253252D01*
X313870Y253342D01*
X313831Y253434D01*
X313796Y253527D01*
X313764Y253621D01*
X313736Y253716D01*
X313711Y253812D01*
X313690Y253910D01*
X313673Y254008D01*
X313660Y254106D01*
X313651Y254205D01*
X313645Y254305D01*
X313643Y254404D01*
X313643Y260896D01*
X313645Y260995D01*
X313651Y261095D01*
X313660Y261194D01*
X313673Y261292D01*
X313690Y261390D01*
X313711Y261488D01*
X313736Y261584D01*
X313764Y261679D01*
X313796Y261773D01*
X313831Y261866D01*
X313870Y261958D01*
X313913Y262048D01*
X313958Y262136D01*
X314008Y262223D01*
X314060Y262307D01*
X314116Y262390D01*
X314174Y262470D01*
X314236Y262548D01*
X314301Y262623D01*
X314369Y262696D01*
X314439Y262766D01*
X314512Y262834D01*
X314587Y262899D01*
X314665Y262961D01*
X314745Y263019D01*
X314828Y263075D01*
X314912Y263127D01*
X314999Y263177D01*
X315087Y263222D01*
X315177Y263265D01*
X315269Y263304D01*
X315361Y263339D01*
X315456Y263371D01*
X315551Y263399D01*
X315647Y263424D01*
X315745Y263445D01*
X315843Y263462D01*
X315941Y263475D01*
X316040Y263484D01*
X316140Y263490D01*
X316239Y263492D01*
X318836Y263492D01*
X326771Y263492D02*
X326878Y263490D01*
X326984Y263484D01*
X327090Y263474D01*
X327196Y263461D01*
X327302Y263443D01*
X327406Y263422D01*
X327510Y263397D01*
X327613Y263368D01*
X327714Y263336D01*
X327814Y263299D01*
X327913Y263259D01*
X328011Y263216D01*
X328107Y263169D01*
X328201Y263118D01*
X328293Y263064D01*
X328383Y263007D01*
X328471Y262947D01*
X328556Y262883D01*
X328639Y262816D01*
X328720Y262746D01*
X328798Y262674D01*
X328874Y262598D01*
X328946Y262520D01*
X329016Y262439D01*
X329083Y262356D01*
X329147Y262271D01*
X329207Y262183D01*
X329264Y262093D01*
X329318Y262001D01*
X329369Y261907D01*
X329416Y261811D01*
X329459Y261713D01*
X329499Y261614D01*
X329536Y261514D01*
X329568Y261413D01*
X329597Y261310D01*
X329622Y261206D01*
X329643Y261102D01*
X329661Y260996D01*
X329674Y260890D01*
X329684Y260784D01*
X329690Y260678D01*
X329692Y260571D01*
X326771Y263492D02*
X326650Y263490D01*
X326529Y263484D01*
X326409Y263474D01*
X326288Y263461D01*
X326169Y263443D01*
X326049Y263422D01*
X325931Y263397D01*
X325814Y263368D01*
X325697Y263335D01*
X325582Y263299D01*
X325468Y263258D01*
X325355Y263215D01*
X325243Y263167D01*
X325134Y263116D01*
X325026Y263061D01*
X324919Y263003D01*
X324815Y262942D01*
X324713Y262877D01*
X324613Y262809D01*
X324515Y262738D01*
X324419Y262664D01*
X324326Y262587D01*
X324236Y262506D01*
X324148Y262423D01*
X324063Y262337D01*
X323980Y262248D01*
X323901Y262157D01*
X323824Y262063D01*
X323751Y261967D01*
X323681Y261869D01*
X323614Y261768D01*
X323550Y261665D01*
X323490Y261560D01*
X323433Y261453D01*
X323379Y261345D01*
X323329Y261235D01*
X323283Y261123D01*
X323240Y261010D01*
X323201Y260895D01*
X328719Y258299D02*
X328798Y258376D01*
X328874Y258457D01*
X328947Y258540D01*
X329017Y258625D01*
X329084Y258713D01*
X329148Y258803D01*
X329208Y258895D01*
X329265Y258990D01*
X329319Y259086D01*
X329370Y259184D01*
X329417Y259284D01*
X329461Y259386D01*
X329501Y259489D01*
X329537Y259593D01*
X329569Y259699D01*
X329598Y259805D01*
X329623Y259913D01*
X329645Y260021D01*
X329662Y260131D01*
X329676Y260240D01*
X329685Y260350D01*
X329691Y260461D01*
X329693Y260571D01*
X328718Y258299D02*
X323201Y251808D01*
X329692Y251808D01*
X296687Y220792D02*
X293441Y218196D01*
X296687Y220792D02*
X296687Y209108D01*
X299932Y209108D02*
X293441Y209108D01*
X304872Y214950D02*
X304875Y215180D01*
X304883Y215410D01*
X304897Y215639D01*
X304916Y215868D01*
X304941Y216097D01*
X304971Y216324D01*
X305006Y216552D01*
X305047Y216778D01*
X305093Y217003D01*
X305145Y217227D01*
X305202Y217449D01*
X305264Y217671D01*
X305332Y217890D01*
X305405Y218108D01*
X305483Y218325D01*
X305566Y218539D01*
X305654Y218751D01*
X305747Y218961D01*
X305846Y219169D01*
X305845Y219169D02*
X305878Y219259D01*
X305914Y219348D01*
X305954Y219436D01*
X305998Y219521D01*
X306045Y219605D01*
X306095Y219687D01*
X306149Y219767D01*
X306205Y219844D01*
X306265Y219920D01*
X306328Y219993D01*
X306393Y220063D01*
X306462Y220131D01*
X306533Y220195D01*
X306606Y220257D01*
X306682Y220316D01*
X306760Y220372D01*
X306841Y220425D01*
X306923Y220474D01*
X307007Y220520D01*
X307094Y220563D01*
X307181Y220602D01*
X307271Y220638D01*
X307361Y220670D01*
X307453Y220698D01*
X307546Y220723D01*
X307640Y220744D01*
X307734Y220761D01*
X307829Y220775D01*
X307925Y220784D01*
X308021Y220790D01*
X308117Y220792D01*
X308213Y220790D01*
X308309Y220784D01*
X308405Y220775D01*
X308500Y220761D01*
X308594Y220744D01*
X308688Y220723D01*
X308781Y220698D01*
X308873Y220670D01*
X308963Y220638D01*
X309053Y220602D01*
X309140Y220563D01*
X309227Y220520D01*
X309311Y220474D01*
X309393Y220425D01*
X309474Y220372D01*
X309552Y220316D01*
X309628Y220257D01*
X309701Y220195D01*
X309772Y220131D01*
X309841Y220063D01*
X309906Y219993D01*
X309969Y219920D01*
X310029Y219844D01*
X310085Y219767D01*
X310139Y219687D01*
X310189Y219605D01*
X310236Y219521D01*
X310280Y219436D01*
X310320Y219348D01*
X310356Y219259D01*
X310389Y219169D01*
X310488Y218962D01*
X310581Y218752D01*
X310669Y218539D01*
X310752Y218325D01*
X310830Y218109D01*
X310903Y217891D01*
X310971Y217671D01*
X311033Y217450D01*
X311090Y217227D01*
X311142Y217003D01*
X311188Y216778D01*
X311229Y216552D01*
X311264Y216325D01*
X311294Y216097D01*
X311319Y215868D01*
X311338Y215639D01*
X311352Y215410D01*
X311360Y215180D01*
X311363Y214950D01*
X304871Y214950D02*
X304874Y214720D01*
X304882Y214490D01*
X304896Y214261D01*
X304915Y214032D01*
X304940Y213803D01*
X304970Y213575D01*
X305005Y213348D01*
X305046Y213122D01*
X305092Y212897D01*
X305144Y212673D01*
X305201Y212450D01*
X305263Y212229D01*
X305331Y212009D01*
X305404Y211791D01*
X305482Y211575D01*
X305565Y211361D01*
X305653Y211149D01*
X305746Y210938D01*
X305845Y210731D01*
X305878Y210641D01*
X305914Y210552D01*
X305955Y210464D01*
X305998Y210379D01*
X306045Y210295D01*
X306095Y210213D01*
X306149Y210133D01*
X306205Y210056D01*
X306265Y209980D01*
X306328Y209907D01*
X306393Y209837D01*
X306462Y209769D01*
X306533Y209705D01*
X306606Y209643D01*
X306682Y209584D01*
X306760Y209528D01*
X306841Y209475D01*
X306923Y209426D01*
X307007Y209380D01*
X307094Y209337D01*
X307181Y209298D01*
X307271Y209262D01*
X307361Y209230D01*
X307453Y209202D01*
X307546Y209177D01*
X307640Y209156D01*
X307734Y209139D01*
X307829Y209125D01*
X307925Y209116D01*
X308021Y209110D01*
X308117Y209108D01*
X310388Y210731D02*
X310487Y210938D01*
X310580Y211149D01*
X310668Y211361D01*
X310751Y211575D01*
X310829Y211791D01*
X310902Y212009D01*
X310970Y212229D01*
X311032Y212450D01*
X311089Y212673D01*
X311141Y212897D01*
X311187Y213122D01*
X311228Y213348D01*
X311263Y213575D01*
X311293Y213803D01*
X311318Y214032D01*
X311337Y214261D01*
X311351Y214490D01*
X311359Y214720D01*
X311362Y214950D01*
X310389Y210731D02*
X310356Y210641D01*
X310320Y210552D01*
X310280Y210464D01*
X310236Y210379D01*
X310189Y210295D01*
X310139Y210213D01*
X310085Y210133D01*
X310029Y210056D01*
X309969Y209980D01*
X309906Y209907D01*
X309841Y209837D01*
X309772Y209769D01*
X309701Y209705D01*
X309628Y209643D01*
X309552Y209584D01*
X309474Y209528D01*
X309393Y209475D01*
X309311Y209426D01*
X309227Y209380D01*
X309140Y209337D01*
X309053Y209298D01*
X308963Y209262D01*
X308873Y209230D01*
X308781Y209202D01*
X308688Y209177D01*
X308594Y209156D01*
X308500Y209139D01*
X308405Y209125D01*
X308309Y209116D01*
X308213Y209110D01*
X308117Y209108D01*
X305520Y211704D02*
X310713Y218196D01*
X316302Y214950D02*
X316305Y215180D01*
X316313Y215410D01*
X316327Y215639D01*
X316346Y215868D01*
X316371Y216097D01*
X316401Y216324D01*
X316436Y216552D01*
X316477Y216778D01*
X316523Y217003D01*
X316575Y217227D01*
X316632Y217449D01*
X316694Y217671D01*
X316762Y217890D01*
X316835Y218108D01*
X316913Y218325D01*
X316996Y218539D01*
X317084Y218751D01*
X317177Y218961D01*
X317276Y219169D01*
X317275Y219169D02*
X317308Y219259D01*
X317344Y219348D01*
X317384Y219436D01*
X317428Y219521D01*
X317475Y219605D01*
X317525Y219687D01*
X317579Y219767D01*
X317635Y219844D01*
X317695Y219920D01*
X317758Y219993D01*
X317823Y220063D01*
X317892Y220131D01*
X317963Y220195D01*
X318036Y220257D01*
X318112Y220316D01*
X318190Y220372D01*
X318271Y220425D01*
X318353Y220474D01*
X318437Y220520D01*
X318524Y220563D01*
X318611Y220602D01*
X318701Y220638D01*
X318791Y220670D01*
X318883Y220698D01*
X318976Y220723D01*
X319070Y220744D01*
X319164Y220761D01*
X319259Y220775D01*
X319355Y220784D01*
X319451Y220790D01*
X319547Y220792D01*
X319643Y220790D01*
X319739Y220784D01*
X319835Y220775D01*
X319930Y220761D01*
X320024Y220744D01*
X320118Y220723D01*
X320211Y220698D01*
X320303Y220670D01*
X320393Y220638D01*
X320483Y220602D01*
X320570Y220563D01*
X320657Y220520D01*
X320741Y220474D01*
X320823Y220425D01*
X320904Y220372D01*
X320982Y220316D01*
X321058Y220257D01*
X321131Y220195D01*
X321202Y220131D01*
X321271Y220063D01*
X321336Y219993D01*
X321399Y219920D01*
X321459Y219844D01*
X321515Y219767D01*
X321569Y219687D01*
X321619Y219605D01*
X321666Y219521D01*
X321710Y219436D01*
X321750Y219348D01*
X321786Y219259D01*
X321819Y219169D01*
X321918Y218962D01*
X322011Y218752D01*
X322099Y218539D01*
X322182Y218325D01*
X322260Y218109D01*
X322333Y217891D01*
X322401Y217671D01*
X322463Y217450D01*
X322520Y217227D01*
X322572Y217003D01*
X322618Y216778D01*
X322659Y216552D01*
X322694Y216325D01*
X322724Y216097D01*
X322749Y215868D01*
X322768Y215639D01*
X322782Y215410D01*
X322790Y215180D01*
X322793Y214950D01*
X316301Y214950D02*
X316304Y214720D01*
X316312Y214490D01*
X316326Y214261D01*
X316345Y214032D01*
X316370Y213803D01*
X316400Y213575D01*
X316435Y213348D01*
X316476Y213122D01*
X316522Y212897D01*
X316574Y212673D01*
X316631Y212450D01*
X316693Y212229D01*
X316761Y212009D01*
X316834Y211791D01*
X316912Y211575D01*
X316995Y211361D01*
X317083Y211149D01*
X317176Y210938D01*
X317275Y210731D01*
X317308Y210641D01*
X317344Y210552D01*
X317385Y210464D01*
X317428Y210379D01*
X317475Y210295D01*
X317525Y210213D01*
X317579Y210133D01*
X317635Y210056D01*
X317695Y209980D01*
X317758Y209907D01*
X317823Y209837D01*
X317892Y209769D01*
X317963Y209705D01*
X318036Y209643D01*
X318112Y209584D01*
X318190Y209528D01*
X318271Y209475D01*
X318353Y209426D01*
X318437Y209380D01*
X318524Y209337D01*
X318611Y209298D01*
X318701Y209262D01*
X318791Y209230D01*
X318883Y209202D01*
X318976Y209177D01*
X319070Y209156D01*
X319164Y209139D01*
X319259Y209125D01*
X319355Y209116D01*
X319451Y209110D01*
X319547Y209108D01*
X321818Y210731D02*
X321917Y210938D01*
X322010Y211149D01*
X322098Y211361D01*
X322181Y211575D01*
X322259Y211791D01*
X322332Y212009D01*
X322400Y212229D01*
X322462Y212450D01*
X322519Y212673D01*
X322571Y212897D01*
X322617Y213122D01*
X322658Y213348D01*
X322693Y213575D01*
X322723Y213803D01*
X322748Y214032D01*
X322767Y214261D01*
X322781Y214490D01*
X322789Y214720D01*
X322792Y214950D01*
X321819Y210731D02*
X321786Y210641D01*
X321750Y210552D01*
X321710Y210464D01*
X321666Y210379D01*
X321619Y210295D01*
X321569Y210213D01*
X321515Y210133D01*
X321459Y210056D01*
X321399Y209980D01*
X321336Y209907D01*
X321271Y209837D01*
X321202Y209769D01*
X321131Y209705D01*
X321058Y209643D01*
X320982Y209584D01*
X320904Y209528D01*
X320823Y209475D01*
X320741Y209426D01*
X320657Y209380D01*
X320570Y209337D01*
X320483Y209298D01*
X320393Y209262D01*
X320303Y209230D01*
X320211Y209202D01*
X320118Y209177D01*
X320024Y209156D01*
X319930Y209139D01*
X319835Y209125D01*
X319739Y209116D01*
X319643Y209110D01*
X319547Y209108D01*
X316950Y211704D02*
X322143Y218196D01*
X327999Y216897D02*
X327999Y209108D01*
X327999Y216897D02*
X331245Y216897D01*
X331332Y216895D01*
X331420Y216889D01*
X331506Y216879D01*
X331593Y216866D01*
X331678Y216848D01*
X331763Y216827D01*
X331847Y216802D01*
X331929Y216773D01*
X332010Y216740D01*
X332090Y216704D01*
X332168Y216665D01*
X332244Y216621D01*
X332318Y216575D01*
X332389Y216525D01*
X332459Y216472D01*
X332526Y216416D01*
X332590Y216357D01*
X332652Y216296D01*
X332711Y216231D01*
X332767Y216164D01*
X332820Y216094D01*
X332870Y216023D01*
X332916Y215949D01*
X332960Y215873D01*
X332999Y215795D01*
X333035Y215715D01*
X333068Y215634D01*
X333097Y215552D01*
X333122Y215468D01*
X333143Y215383D01*
X333161Y215298D01*
X333174Y215211D01*
X333184Y215125D01*
X333190Y215037D01*
X333192Y214950D01*
X333192Y209108D01*
D11*
X317300Y85900D02*
X317302Y85970D01*
X317308Y86040D01*
X317318Y86109D01*
X317331Y86178D01*
X317349Y86246D01*
X317370Y86313D01*
X317395Y86378D01*
X317424Y86442D01*
X317456Y86505D01*
X317492Y86565D01*
X317531Y86623D01*
X317573Y86679D01*
X317618Y86733D01*
X317666Y86784D01*
X317717Y86832D01*
X317771Y86877D01*
X317827Y86919D01*
X317885Y86958D01*
X317945Y86994D01*
X318008Y87026D01*
X318072Y87055D01*
X318137Y87080D01*
X318204Y87101D01*
X318272Y87119D01*
X318341Y87132D01*
X318410Y87142D01*
X318480Y87148D01*
X318550Y87150D01*
X318620Y87148D01*
X318690Y87142D01*
X318759Y87132D01*
X318828Y87119D01*
X318896Y87101D01*
X318963Y87080D01*
X319028Y87055D01*
X319092Y87026D01*
X319155Y86994D01*
X319215Y86958D01*
X319273Y86919D01*
X319329Y86877D01*
X319383Y86832D01*
X319434Y86784D01*
X319482Y86733D01*
X319527Y86679D01*
X319569Y86623D01*
X319608Y86565D01*
X319644Y86505D01*
X319676Y86442D01*
X319705Y86378D01*
X319730Y86313D01*
X319751Y86246D01*
X319769Y86178D01*
X319782Y86109D01*
X319792Y86040D01*
X319798Y85970D01*
X319800Y85900D01*
X319798Y85830D01*
X319792Y85760D01*
X319782Y85691D01*
X319769Y85622D01*
X319751Y85554D01*
X319730Y85487D01*
X319705Y85422D01*
X319676Y85358D01*
X319644Y85295D01*
X319608Y85235D01*
X319569Y85177D01*
X319527Y85121D01*
X319482Y85067D01*
X319434Y85016D01*
X319383Y84968D01*
X319329Y84923D01*
X319273Y84881D01*
X319215Y84842D01*
X319155Y84806D01*
X319092Y84774D01*
X319028Y84745D01*
X318963Y84720D01*
X318896Y84699D01*
X318828Y84681D01*
X318759Y84668D01*
X318690Y84658D01*
X318620Y84652D01*
X318550Y84650D01*
X318480Y84652D01*
X318410Y84658D01*
X318341Y84668D01*
X318272Y84681D01*
X318204Y84699D01*
X318137Y84720D01*
X318072Y84745D01*
X318008Y84774D01*
X317945Y84806D01*
X317885Y84842D01*
X317827Y84881D01*
X317771Y84923D01*
X317717Y84968D01*
X317666Y85016D01*
X317618Y85067D01*
X317573Y85121D01*
X317531Y85177D01*
X317492Y85235D01*
X317456Y85295D01*
X317424Y85358D01*
X317395Y85422D01*
X317370Y85487D01*
X317349Y85554D01*
X317331Y85622D01*
X317318Y85691D01*
X317308Y85760D01*
X317302Y85830D01*
X317300Y85900D01*
D10*
X325292Y64742D02*
X325292Y53058D01*
X323994Y53058D02*
X326590Y53058D01*
X326590Y64742D02*
X323994Y64742D01*
X333754Y53058D02*
X336350Y53058D01*
X333754Y53058D02*
X333655Y53060D01*
X333555Y53066D01*
X333456Y53075D01*
X333358Y53088D01*
X333260Y53105D01*
X333162Y53126D01*
X333066Y53151D01*
X332971Y53179D01*
X332877Y53211D01*
X332784Y53246D01*
X332692Y53285D01*
X332602Y53328D01*
X332514Y53373D01*
X332427Y53423D01*
X332343Y53475D01*
X332260Y53531D01*
X332180Y53589D01*
X332102Y53651D01*
X332027Y53716D01*
X331954Y53784D01*
X331884Y53854D01*
X331816Y53927D01*
X331751Y54002D01*
X331689Y54080D01*
X331631Y54160D01*
X331575Y54243D01*
X331523Y54327D01*
X331473Y54414D01*
X331428Y54502D01*
X331385Y54592D01*
X331346Y54684D01*
X331311Y54777D01*
X331279Y54871D01*
X331251Y54966D01*
X331226Y55062D01*
X331205Y55160D01*
X331188Y55258D01*
X331175Y55356D01*
X331166Y55455D01*
X331160Y55555D01*
X331158Y55654D01*
X331157Y55654D02*
X331157Y62146D01*
X331158Y62146D02*
X331160Y62245D01*
X331166Y62345D01*
X331175Y62444D01*
X331188Y62542D01*
X331205Y62640D01*
X331226Y62738D01*
X331251Y62834D01*
X331279Y62929D01*
X331311Y63023D01*
X331346Y63116D01*
X331385Y63208D01*
X331428Y63298D01*
X331473Y63386D01*
X331523Y63473D01*
X331575Y63557D01*
X331631Y63640D01*
X331689Y63720D01*
X331751Y63798D01*
X331816Y63873D01*
X331884Y63946D01*
X331954Y64016D01*
X332027Y64084D01*
X332102Y64149D01*
X332180Y64211D01*
X332260Y64269D01*
X332343Y64325D01*
X332427Y64377D01*
X332514Y64427D01*
X332602Y64472D01*
X332692Y64515D01*
X332784Y64554D01*
X332876Y64589D01*
X332971Y64621D01*
X333066Y64649D01*
X333162Y64674D01*
X333260Y64695D01*
X333358Y64712D01*
X333456Y64725D01*
X333555Y64734D01*
X333655Y64740D01*
X333754Y64742D01*
X336350Y64742D01*
X340715Y62146D02*
X343961Y64742D01*
X343961Y53058D01*
X347206Y53058D02*
X340715Y53058D01*
X234177Y70904D02*
X234177Y76096D01*
X234179Y76209D01*
X234185Y76322D01*
X234195Y76435D01*
X234209Y76548D01*
X234226Y76660D01*
X234248Y76771D01*
X234273Y76881D01*
X234303Y76991D01*
X234336Y77099D01*
X234373Y77206D01*
X234413Y77312D01*
X234458Y77416D01*
X234506Y77519D01*
X234557Y77620D01*
X234612Y77719D01*
X234670Y77816D01*
X234732Y77911D01*
X234797Y78004D01*
X234865Y78094D01*
X234936Y78182D01*
X235011Y78268D01*
X235088Y78351D01*
X235168Y78431D01*
X235251Y78508D01*
X235337Y78583D01*
X235425Y78654D01*
X235515Y78722D01*
X235608Y78787D01*
X235703Y78849D01*
X235800Y78907D01*
X235899Y78962D01*
X236000Y79013D01*
X236103Y79061D01*
X236207Y79106D01*
X236313Y79146D01*
X236420Y79183D01*
X236528Y79216D01*
X236638Y79246D01*
X236748Y79271D01*
X236859Y79293D01*
X236971Y79310D01*
X237084Y79324D01*
X237197Y79334D01*
X237310Y79340D01*
X237423Y79342D01*
X237536Y79340D01*
X237649Y79334D01*
X237762Y79324D01*
X237875Y79310D01*
X237987Y79293D01*
X238098Y79271D01*
X238208Y79246D01*
X238318Y79216D01*
X238426Y79183D01*
X238533Y79146D01*
X238639Y79106D01*
X238743Y79061D01*
X238846Y79013D01*
X238947Y78962D01*
X239046Y78907D01*
X239143Y78849D01*
X239238Y78787D01*
X239331Y78722D01*
X239421Y78654D01*
X239509Y78583D01*
X239595Y78508D01*
X239678Y78431D01*
X239758Y78351D01*
X239835Y78268D01*
X239910Y78182D01*
X239981Y78094D01*
X240049Y78004D01*
X240114Y77911D01*
X240176Y77816D01*
X240234Y77719D01*
X240289Y77620D01*
X240340Y77519D01*
X240388Y77416D01*
X240433Y77312D01*
X240473Y77206D01*
X240510Y77099D01*
X240543Y76991D01*
X240573Y76881D01*
X240598Y76771D01*
X240620Y76660D01*
X240637Y76548D01*
X240651Y76435D01*
X240661Y76322D01*
X240667Y76209D01*
X240669Y76096D01*
X240668Y76096D02*
X240668Y70904D01*
X240669Y70904D02*
X240667Y70791D01*
X240661Y70678D01*
X240651Y70565D01*
X240637Y70452D01*
X240620Y70340D01*
X240598Y70229D01*
X240573Y70119D01*
X240543Y70009D01*
X240510Y69901D01*
X240473Y69794D01*
X240433Y69688D01*
X240388Y69584D01*
X240340Y69481D01*
X240289Y69380D01*
X240234Y69281D01*
X240176Y69184D01*
X240114Y69089D01*
X240049Y68996D01*
X239981Y68906D01*
X239910Y68818D01*
X239835Y68732D01*
X239758Y68649D01*
X239678Y68569D01*
X239595Y68492D01*
X239509Y68417D01*
X239421Y68346D01*
X239331Y68278D01*
X239238Y68213D01*
X239143Y68151D01*
X239046Y68093D01*
X238947Y68038D01*
X238846Y67987D01*
X238743Y67939D01*
X238639Y67894D01*
X238533Y67854D01*
X238426Y67817D01*
X238318Y67784D01*
X238208Y67754D01*
X238098Y67729D01*
X237987Y67707D01*
X237875Y67690D01*
X237762Y67676D01*
X237649Y67666D01*
X237536Y67660D01*
X237423Y67658D01*
X237310Y67660D01*
X237197Y67666D01*
X237084Y67676D01*
X236971Y67690D01*
X236859Y67707D01*
X236748Y67729D01*
X236638Y67754D01*
X236528Y67784D01*
X236420Y67817D01*
X236313Y67854D01*
X236207Y67894D01*
X236103Y67939D01*
X236000Y67987D01*
X235899Y68038D01*
X235800Y68093D01*
X235703Y68151D01*
X235608Y68213D01*
X235515Y68278D01*
X235425Y68346D01*
X235337Y68417D01*
X235251Y68492D01*
X235168Y68569D01*
X235088Y68649D01*
X235011Y68732D01*
X234936Y68818D01*
X234865Y68906D01*
X234797Y68996D01*
X234732Y69089D01*
X234670Y69184D01*
X234612Y69281D01*
X234557Y69380D01*
X234506Y69481D01*
X234458Y69584D01*
X234413Y69688D01*
X234373Y69794D01*
X234336Y69901D01*
X234303Y70009D01*
X234273Y70119D01*
X234248Y70229D01*
X234226Y70340D01*
X234209Y70452D01*
X234195Y70565D01*
X234185Y70678D01*
X234179Y70791D01*
X234177Y70904D01*
X246158Y67658D02*
X246158Y79342D01*
X249403Y79342D01*
X249516Y79340D01*
X249629Y79334D01*
X249742Y79324D01*
X249855Y79310D01*
X249967Y79293D01*
X250078Y79271D01*
X250188Y79246D01*
X250298Y79216D01*
X250406Y79183D01*
X250513Y79146D01*
X250619Y79106D01*
X250723Y79061D01*
X250826Y79013D01*
X250927Y78962D01*
X251026Y78907D01*
X251123Y78849D01*
X251218Y78787D01*
X251311Y78722D01*
X251401Y78654D01*
X251489Y78583D01*
X251575Y78508D01*
X251658Y78431D01*
X251738Y78351D01*
X251815Y78268D01*
X251890Y78182D01*
X251961Y78094D01*
X252029Y78004D01*
X252094Y77911D01*
X252156Y77816D01*
X252214Y77719D01*
X252269Y77620D01*
X252320Y77519D01*
X252368Y77416D01*
X252413Y77312D01*
X252453Y77206D01*
X252490Y77099D01*
X252523Y76991D01*
X252553Y76881D01*
X252578Y76771D01*
X252600Y76660D01*
X252617Y76548D01*
X252631Y76435D01*
X252641Y76322D01*
X252647Y76209D01*
X252649Y76096D01*
X252647Y75983D01*
X252641Y75870D01*
X252631Y75757D01*
X252617Y75644D01*
X252600Y75532D01*
X252578Y75421D01*
X252553Y75311D01*
X252523Y75201D01*
X252490Y75093D01*
X252453Y74986D01*
X252413Y74880D01*
X252368Y74776D01*
X252320Y74673D01*
X252269Y74572D01*
X252214Y74473D01*
X252156Y74376D01*
X252094Y74281D01*
X252029Y74188D01*
X251961Y74098D01*
X251890Y74010D01*
X251815Y73924D01*
X251738Y73841D01*
X251658Y73761D01*
X251575Y73684D01*
X251489Y73609D01*
X251401Y73538D01*
X251311Y73470D01*
X251218Y73405D01*
X251123Y73343D01*
X251026Y73285D01*
X250927Y73230D01*
X250826Y73179D01*
X250723Y73131D01*
X250619Y73086D01*
X250513Y73046D01*
X250406Y73009D01*
X250298Y72976D01*
X250188Y72946D01*
X250078Y72921D01*
X249967Y72899D01*
X249855Y72882D01*
X249742Y72868D01*
X249629Y72858D01*
X249516Y72852D01*
X249403Y72850D01*
X249403Y72851D02*
X246158Y72851D01*
X259521Y67658D02*
X259521Y79342D01*
X262766Y79342D02*
X256275Y79342D01*
X266943Y67658D02*
X270189Y67658D01*
X270302Y67660D01*
X270415Y67666D01*
X270528Y67676D01*
X270641Y67690D01*
X270753Y67707D01*
X270864Y67729D01*
X270974Y67754D01*
X271084Y67784D01*
X271192Y67817D01*
X271299Y67854D01*
X271405Y67894D01*
X271509Y67939D01*
X271612Y67987D01*
X271713Y68038D01*
X271812Y68093D01*
X271909Y68151D01*
X272004Y68213D01*
X272097Y68278D01*
X272187Y68346D01*
X272275Y68417D01*
X272361Y68492D01*
X272444Y68569D01*
X272524Y68649D01*
X272601Y68732D01*
X272676Y68818D01*
X272747Y68906D01*
X272815Y68996D01*
X272880Y69089D01*
X272942Y69184D01*
X273000Y69281D01*
X273055Y69380D01*
X273106Y69481D01*
X273154Y69584D01*
X273199Y69688D01*
X273239Y69794D01*
X273276Y69901D01*
X273309Y70009D01*
X273339Y70119D01*
X273364Y70229D01*
X273386Y70340D01*
X273403Y70452D01*
X273417Y70565D01*
X273427Y70678D01*
X273433Y70791D01*
X273435Y70904D01*
X273433Y71017D01*
X273427Y71130D01*
X273417Y71243D01*
X273403Y71356D01*
X273386Y71468D01*
X273364Y71579D01*
X273339Y71689D01*
X273309Y71799D01*
X273276Y71907D01*
X273239Y72014D01*
X273199Y72120D01*
X273154Y72224D01*
X273106Y72327D01*
X273055Y72428D01*
X273000Y72527D01*
X272942Y72624D01*
X272880Y72719D01*
X272815Y72812D01*
X272747Y72902D01*
X272676Y72990D01*
X272601Y73076D01*
X272524Y73159D01*
X272444Y73239D01*
X272361Y73316D01*
X272275Y73391D01*
X272187Y73462D01*
X272097Y73530D01*
X272004Y73595D01*
X271909Y73657D01*
X271812Y73715D01*
X271713Y73770D01*
X271612Y73821D01*
X271509Y73869D01*
X271405Y73914D01*
X271299Y73954D01*
X271192Y73991D01*
X271084Y74024D01*
X270974Y74054D01*
X270864Y74079D01*
X270753Y74101D01*
X270641Y74118D01*
X270528Y74132D01*
X270415Y74142D01*
X270302Y74148D01*
X270189Y74150D01*
X270838Y79342D02*
X266943Y79342D01*
X270838Y79342D02*
X270939Y79340D01*
X271039Y79334D01*
X271139Y79324D01*
X271239Y79311D01*
X271338Y79293D01*
X271437Y79272D01*
X271534Y79247D01*
X271631Y79218D01*
X271726Y79185D01*
X271820Y79149D01*
X271912Y79109D01*
X272003Y79066D01*
X272092Y79019D01*
X272179Y78969D01*
X272265Y78915D01*
X272348Y78858D01*
X272428Y78798D01*
X272507Y78735D01*
X272583Y78668D01*
X272656Y78599D01*
X272726Y78527D01*
X272794Y78453D01*
X272859Y78376D01*
X272920Y78296D01*
X272979Y78214D01*
X273034Y78130D01*
X273086Y78044D01*
X273135Y77956D01*
X273180Y77866D01*
X273222Y77774D01*
X273260Y77681D01*
X273294Y77586D01*
X273325Y77491D01*
X273352Y77394D01*
X273375Y77296D01*
X273395Y77197D01*
X273410Y77097D01*
X273422Y76997D01*
X273430Y76897D01*
X273434Y76796D01*
X273434Y76696D01*
X273430Y76595D01*
X273422Y76495D01*
X273410Y76395D01*
X273395Y76295D01*
X273375Y76196D01*
X273352Y76098D01*
X273325Y76001D01*
X273294Y75906D01*
X273260Y75811D01*
X273222Y75718D01*
X273180Y75626D01*
X273135Y75536D01*
X273086Y75448D01*
X273034Y75362D01*
X272979Y75278D01*
X272920Y75196D01*
X272859Y75116D01*
X272794Y75039D01*
X272726Y74965D01*
X272656Y74893D01*
X272583Y74824D01*
X272507Y74757D01*
X272428Y74694D01*
X272348Y74634D01*
X272265Y74577D01*
X272179Y74523D01*
X272092Y74473D01*
X272003Y74426D01*
X271912Y74383D01*
X271820Y74343D01*
X271726Y74307D01*
X271631Y74274D01*
X271534Y74245D01*
X271437Y74220D01*
X271338Y74199D01*
X271239Y74181D01*
X271139Y74168D01*
X271039Y74158D01*
X270939Y74152D01*
X270838Y74150D01*
X270838Y74149D02*
X268241Y74149D01*
X278374Y73500D02*
X278377Y73730D01*
X278385Y73960D01*
X278399Y74189D01*
X278418Y74418D01*
X278443Y74647D01*
X278473Y74874D01*
X278508Y75102D01*
X278549Y75328D01*
X278595Y75553D01*
X278647Y75777D01*
X278704Y75999D01*
X278766Y76221D01*
X278834Y76440D01*
X278907Y76658D01*
X278985Y76875D01*
X279068Y77089D01*
X279156Y77301D01*
X279249Y77511D01*
X279348Y77719D01*
X279347Y77719D02*
X279380Y77809D01*
X279416Y77898D01*
X279456Y77986D01*
X279500Y78071D01*
X279547Y78155D01*
X279597Y78237D01*
X279651Y78317D01*
X279707Y78394D01*
X279767Y78470D01*
X279830Y78543D01*
X279895Y78613D01*
X279964Y78681D01*
X280035Y78745D01*
X280108Y78807D01*
X280184Y78866D01*
X280262Y78922D01*
X280343Y78975D01*
X280425Y79024D01*
X280509Y79070D01*
X280596Y79113D01*
X280683Y79152D01*
X280773Y79188D01*
X280863Y79220D01*
X280955Y79248D01*
X281048Y79273D01*
X281142Y79294D01*
X281236Y79311D01*
X281331Y79325D01*
X281427Y79334D01*
X281523Y79340D01*
X281619Y79342D01*
X281715Y79340D01*
X281811Y79334D01*
X281907Y79325D01*
X282002Y79311D01*
X282096Y79294D01*
X282190Y79273D01*
X282283Y79248D01*
X282375Y79220D01*
X282465Y79188D01*
X282555Y79152D01*
X282642Y79113D01*
X282729Y79070D01*
X282813Y79024D01*
X282895Y78975D01*
X282976Y78922D01*
X283054Y78866D01*
X283130Y78807D01*
X283203Y78745D01*
X283274Y78681D01*
X283343Y78613D01*
X283408Y78543D01*
X283471Y78470D01*
X283531Y78394D01*
X283587Y78317D01*
X283641Y78237D01*
X283691Y78155D01*
X283738Y78071D01*
X283782Y77986D01*
X283822Y77898D01*
X283858Y77809D01*
X283891Y77719D01*
X283990Y77512D01*
X284083Y77302D01*
X284171Y77089D01*
X284254Y76875D01*
X284332Y76659D01*
X284405Y76441D01*
X284473Y76221D01*
X284535Y76000D01*
X284592Y75777D01*
X284644Y75553D01*
X284690Y75328D01*
X284731Y75102D01*
X284766Y74875D01*
X284796Y74647D01*
X284821Y74418D01*
X284840Y74189D01*
X284854Y73960D01*
X284862Y73730D01*
X284865Y73500D01*
X278373Y73500D02*
X278376Y73270D01*
X278384Y73040D01*
X278398Y72811D01*
X278417Y72582D01*
X278442Y72353D01*
X278472Y72125D01*
X278507Y71898D01*
X278548Y71672D01*
X278594Y71447D01*
X278646Y71223D01*
X278703Y71000D01*
X278765Y70779D01*
X278833Y70559D01*
X278906Y70341D01*
X278984Y70125D01*
X279067Y69911D01*
X279155Y69699D01*
X279248Y69488D01*
X279347Y69281D01*
X279380Y69191D01*
X279416Y69102D01*
X279457Y69014D01*
X279500Y68929D01*
X279547Y68845D01*
X279597Y68763D01*
X279651Y68683D01*
X279707Y68606D01*
X279767Y68530D01*
X279830Y68457D01*
X279895Y68387D01*
X279964Y68319D01*
X280035Y68255D01*
X280108Y68193D01*
X280184Y68134D01*
X280262Y68078D01*
X280343Y68025D01*
X280425Y67976D01*
X280509Y67930D01*
X280596Y67887D01*
X280683Y67848D01*
X280773Y67812D01*
X280863Y67780D01*
X280955Y67752D01*
X281048Y67727D01*
X281142Y67706D01*
X281236Y67689D01*
X281331Y67675D01*
X281427Y67666D01*
X281523Y67660D01*
X281619Y67658D01*
X283891Y69281D02*
X283990Y69488D01*
X284083Y69699D01*
X284171Y69911D01*
X284254Y70125D01*
X284332Y70341D01*
X284405Y70559D01*
X284473Y70779D01*
X284535Y71000D01*
X284592Y71223D01*
X284644Y71447D01*
X284690Y71672D01*
X284731Y71898D01*
X284766Y72125D01*
X284796Y72353D01*
X284821Y72582D01*
X284840Y72811D01*
X284854Y73040D01*
X284862Y73270D01*
X284865Y73500D01*
X283891Y69281D02*
X283858Y69191D01*
X283822Y69102D01*
X283782Y69014D01*
X283738Y68929D01*
X283691Y68845D01*
X283641Y68763D01*
X283587Y68683D01*
X283531Y68606D01*
X283471Y68530D01*
X283408Y68457D01*
X283343Y68387D01*
X283274Y68319D01*
X283203Y68255D01*
X283130Y68193D01*
X283054Y68134D01*
X282976Y68078D01*
X282895Y68025D01*
X282813Y67976D01*
X282729Y67930D01*
X282642Y67887D01*
X282555Y67848D01*
X282465Y67812D01*
X282375Y67780D01*
X282283Y67752D01*
X282190Y67727D01*
X282096Y67706D01*
X282002Y67689D01*
X281907Y67675D01*
X281811Y67666D01*
X281715Y67660D01*
X281619Y67658D01*
X279022Y70254D02*
X284215Y76746D01*
X289804Y73500D02*
X289807Y73730D01*
X289815Y73960D01*
X289829Y74189D01*
X289848Y74418D01*
X289873Y74647D01*
X289903Y74874D01*
X289938Y75102D01*
X289979Y75328D01*
X290025Y75553D01*
X290077Y75777D01*
X290134Y75999D01*
X290196Y76221D01*
X290264Y76440D01*
X290337Y76658D01*
X290415Y76875D01*
X290498Y77089D01*
X290586Y77301D01*
X290679Y77511D01*
X290778Y77719D01*
X290777Y77719D02*
X290810Y77809D01*
X290846Y77898D01*
X290886Y77986D01*
X290930Y78071D01*
X290977Y78155D01*
X291027Y78237D01*
X291081Y78317D01*
X291137Y78394D01*
X291197Y78470D01*
X291260Y78543D01*
X291325Y78613D01*
X291394Y78681D01*
X291465Y78745D01*
X291538Y78807D01*
X291614Y78866D01*
X291692Y78922D01*
X291773Y78975D01*
X291855Y79024D01*
X291939Y79070D01*
X292026Y79113D01*
X292113Y79152D01*
X292203Y79188D01*
X292293Y79220D01*
X292385Y79248D01*
X292478Y79273D01*
X292572Y79294D01*
X292666Y79311D01*
X292761Y79325D01*
X292857Y79334D01*
X292953Y79340D01*
X293049Y79342D01*
X293145Y79340D01*
X293241Y79334D01*
X293337Y79325D01*
X293432Y79311D01*
X293526Y79294D01*
X293620Y79273D01*
X293713Y79248D01*
X293805Y79220D01*
X293895Y79188D01*
X293985Y79152D01*
X294072Y79113D01*
X294159Y79070D01*
X294243Y79024D01*
X294325Y78975D01*
X294406Y78922D01*
X294484Y78866D01*
X294560Y78807D01*
X294633Y78745D01*
X294704Y78681D01*
X294773Y78613D01*
X294838Y78543D01*
X294901Y78470D01*
X294961Y78394D01*
X295017Y78317D01*
X295071Y78237D01*
X295121Y78155D01*
X295168Y78071D01*
X295212Y77986D01*
X295252Y77898D01*
X295288Y77809D01*
X295321Y77719D01*
X295420Y77512D01*
X295513Y77302D01*
X295601Y77089D01*
X295684Y76875D01*
X295762Y76659D01*
X295835Y76441D01*
X295903Y76221D01*
X295965Y76000D01*
X296022Y75777D01*
X296074Y75553D01*
X296120Y75328D01*
X296161Y75102D01*
X296196Y74875D01*
X296226Y74647D01*
X296251Y74418D01*
X296270Y74189D01*
X296284Y73960D01*
X296292Y73730D01*
X296295Y73500D01*
X289803Y73500D02*
X289806Y73270D01*
X289814Y73040D01*
X289828Y72811D01*
X289847Y72582D01*
X289872Y72353D01*
X289902Y72125D01*
X289937Y71898D01*
X289978Y71672D01*
X290024Y71447D01*
X290076Y71223D01*
X290133Y71000D01*
X290195Y70779D01*
X290263Y70559D01*
X290336Y70341D01*
X290414Y70125D01*
X290497Y69911D01*
X290585Y69699D01*
X290678Y69488D01*
X290777Y69281D01*
X290810Y69191D01*
X290846Y69102D01*
X290887Y69014D01*
X290930Y68929D01*
X290977Y68845D01*
X291027Y68763D01*
X291081Y68683D01*
X291137Y68606D01*
X291197Y68530D01*
X291260Y68457D01*
X291325Y68387D01*
X291394Y68319D01*
X291465Y68255D01*
X291538Y68193D01*
X291614Y68134D01*
X291692Y68078D01*
X291773Y68025D01*
X291855Y67976D01*
X291939Y67930D01*
X292026Y67887D01*
X292113Y67848D01*
X292203Y67812D01*
X292293Y67780D01*
X292385Y67752D01*
X292478Y67727D01*
X292572Y67706D01*
X292666Y67689D01*
X292761Y67675D01*
X292857Y67666D01*
X292953Y67660D01*
X293049Y67658D01*
X295321Y69281D02*
X295420Y69488D01*
X295513Y69699D01*
X295601Y69911D01*
X295684Y70125D01*
X295762Y70341D01*
X295835Y70559D01*
X295903Y70779D01*
X295965Y71000D01*
X296022Y71223D01*
X296074Y71447D01*
X296120Y71672D01*
X296161Y71898D01*
X296196Y72125D01*
X296226Y72353D01*
X296251Y72582D01*
X296270Y72811D01*
X296284Y73040D01*
X296292Y73270D01*
X296295Y73500D01*
X295321Y69281D02*
X295288Y69191D01*
X295252Y69102D01*
X295212Y69014D01*
X295168Y68929D01*
X295121Y68845D01*
X295071Y68763D01*
X295017Y68683D01*
X294961Y68606D01*
X294901Y68530D01*
X294838Y68457D01*
X294773Y68387D01*
X294704Y68319D01*
X294633Y68255D01*
X294560Y68193D01*
X294484Y68134D01*
X294406Y68078D01*
X294325Y68025D01*
X294243Y67976D01*
X294159Y67930D01*
X294072Y67887D01*
X293985Y67848D01*
X293895Y67812D01*
X293805Y67780D01*
X293713Y67752D01*
X293620Y67727D01*
X293526Y67706D01*
X293432Y67689D01*
X293337Y67675D01*
X293241Y67666D01*
X293145Y67660D01*
X293049Y67658D01*
X290452Y70254D02*
X295645Y76746D01*
X301233Y76746D02*
X304479Y79342D01*
X304479Y67658D01*
X307724Y67658D02*
X301233Y67658D01*
X313044Y67658D02*
X313044Y79342D01*
X316290Y79342D01*
X316403Y79340D01*
X316516Y79334D01*
X316629Y79324D01*
X316742Y79310D01*
X316854Y79293D01*
X316965Y79271D01*
X317075Y79246D01*
X317185Y79216D01*
X317293Y79183D01*
X317400Y79146D01*
X317506Y79106D01*
X317610Y79061D01*
X317713Y79013D01*
X317814Y78962D01*
X317913Y78907D01*
X318010Y78849D01*
X318105Y78787D01*
X318198Y78722D01*
X318288Y78654D01*
X318376Y78583D01*
X318462Y78508D01*
X318545Y78431D01*
X318625Y78351D01*
X318702Y78268D01*
X318777Y78182D01*
X318848Y78094D01*
X318916Y78004D01*
X318981Y77911D01*
X319043Y77816D01*
X319101Y77719D01*
X319156Y77620D01*
X319207Y77519D01*
X319255Y77416D01*
X319300Y77312D01*
X319340Y77206D01*
X319377Y77099D01*
X319410Y76991D01*
X319440Y76881D01*
X319465Y76771D01*
X319487Y76660D01*
X319504Y76548D01*
X319518Y76435D01*
X319528Y76322D01*
X319534Y76209D01*
X319536Y76096D01*
X319535Y76096D02*
X319535Y70904D01*
X319536Y70904D02*
X319534Y70791D01*
X319528Y70678D01*
X319518Y70565D01*
X319504Y70452D01*
X319487Y70340D01*
X319465Y70229D01*
X319440Y70119D01*
X319410Y70009D01*
X319377Y69901D01*
X319340Y69794D01*
X319300Y69688D01*
X319255Y69584D01*
X319207Y69481D01*
X319156Y69380D01*
X319101Y69281D01*
X319043Y69184D01*
X318981Y69089D01*
X318916Y68996D01*
X318848Y68906D01*
X318777Y68818D01*
X318702Y68732D01*
X318625Y68649D01*
X318545Y68569D01*
X318462Y68492D01*
X318376Y68417D01*
X318288Y68346D01*
X318198Y68278D01*
X318105Y68213D01*
X318010Y68151D01*
X317913Y68093D01*
X317814Y68038D01*
X317713Y67987D01*
X317610Y67939D01*
X317506Y67894D01*
X317400Y67854D01*
X317293Y67817D01*
X317185Y67784D01*
X317075Y67754D01*
X316965Y67729D01*
X316854Y67707D01*
X316742Y67690D01*
X316629Y67676D01*
X316516Y67666D01*
X316403Y67660D01*
X316290Y67658D01*
X313044Y67658D01*
X325236Y67658D02*
X325236Y79342D01*
X331727Y67658D01*
X331727Y79342D01*
X337597Y79342D02*
X337597Y67658D01*
X337597Y79342D02*
X340843Y79342D01*
X340956Y79340D01*
X341069Y79334D01*
X341182Y79324D01*
X341295Y79310D01*
X341407Y79293D01*
X341518Y79271D01*
X341628Y79246D01*
X341738Y79216D01*
X341846Y79183D01*
X341953Y79146D01*
X342059Y79106D01*
X342163Y79061D01*
X342266Y79013D01*
X342367Y78962D01*
X342466Y78907D01*
X342563Y78849D01*
X342658Y78787D01*
X342751Y78722D01*
X342841Y78654D01*
X342929Y78583D01*
X343015Y78508D01*
X343098Y78431D01*
X343178Y78351D01*
X343255Y78268D01*
X343330Y78182D01*
X343401Y78094D01*
X343469Y78004D01*
X343534Y77911D01*
X343596Y77816D01*
X343654Y77719D01*
X343709Y77620D01*
X343760Y77519D01*
X343808Y77416D01*
X343853Y77312D01*
X343893Y77206D01*
X343930Y77099D01*
X343963Y76991D01*
X343993Y76881D01*
X344018Y76771D01*
X344040Y76660D01*
X344057Y76548D01*
X344071Y76435D01*
X344081Y76322D01*
X344087Y76209D01*
X344089Y76096D01*
X344087Y75983D01*
X344081Y75870D01*
X344071Y75757D01*
X344057Y75644D01*
X344040Y75532D01*
X344018Y75421D01*
X343993Y75311D01*
X343963Y75201D01*
X343930Y75093D01*
X343893Y74986D01*
X343853Y74880D01*
X343808Y74776D01*
X343760Y74673D01*
X343709Y74572D01*
X343654Y74473D01*
X343596Y74376D01*
X343534Y74281D01*
X343469Y74188D01*
X343401Y74098D01*
X343330Y74010D01*
X343255Y73924D01*
X343178Y73841D01*
X343098Y73761D01*
X343015Y73684D01*
X342929Y73609D01*
X342841Y73538D01*
X342751Y73470D01*
X342658Y73405D01*
X342563Y73343D01*
X342466Y73285D01*
X342367Y73230D01*
X342266Y73179D01*
X342163Y73131D01*
X342059Y73086D01*
X341953Y73046D01*
X341846Y73009D01*
X341738Y72976D01*
X341628Y72946D01*
X341518Y72921D01*
X341407Y72899D01*
X341295Y72882D01*
X341182Y72868D01*
X341069Y72858D01*
X340956Y72852D01*
X340843Y72850D01*
X340843Y72851D02*
X337597Y72851D01*
X348932Y67658D02*
X348932Y79342D01*
X352177Y79342D01*
X352290Y79340D01*
X352403Y79334D01*
X352516Y79324D01*
X352629Y79310D01*
X352741Y79293D01*
X352852Y79271D01*
X352962Y79246D01*
X353072Y79216D01*
X353180Y79183D01*
X353287Y79146D01*
X353393Y79106D01*
X353497Y79061D01*
X353600Y79013D01*
X353701Y78962D01*
X353800Y78907D01*
X353897Y78849D01*
X353992Y78787D01*
X354085Y78722D01*
X354175Y78654D01*
X354263Y78583D01*
X354349Y78508D01*
X354432Y78431D01*
X354512Y78351D01*
X354589Y78268D01*
X354664Y78182D01*
X354735Y78094D01*
X354803Y78004D01*
X354868Y77911D01*
X354930Y77816D01*
X354988Y77719D01*
X355043Y77620D01*
X355094Y77519D01*
X355142Y77416D01*
X355187Y77312D01*
X355227Y77206D01*
X355264Y77099D01*
X355297Y76991D01*
X355327Y76881D01*
X355352Y76771D01*
X355374Y76660D01*
X355391Y76548D01*
X355405Y76435D01*
X355415Y76322D01*
X355421Y76209D01*
X355423Y76096D01*
X355421Y75983D01*
X355415Y75870D01*
X355405Y75757D01*
X355391Y75644D01*
X355374Y75532D01*
X355352Y75421D01*
X355327Y75311D01*
X355297Y75201D01*
X355264Y75093D01*
X355227Y74986D01*
X355187Y74880D01*
X355142Y74776D01*
X355094Y74673D01*
X355043Y74572D01*
X354988Y74473D01*
X354930Y74376D01*
X354868Y74281D01*
X354803Y74188D01*
X354735Y74098D01*
X354664Y74010D01*
X354589Y73924D01*
X354512Y73841D01*
X354432Y73761D01*
X354349Y73684D01*
X354263Y73609D01*
X354175Y73538D01*
X354085Y73470D01*
X353992Y73405D01*
X353897Y73343D01*
X353800Y73285D01*
X353701Y73230D01*
X353600Y73179D01*
X353497Y73131D01*
X353393Y73086D01*
X353287Y73046D01*
X353180Y73009D01*
X353072Y72976D01*
X352962Y72946D01*
X352852Y72921D01*
X352741Y72899D01*
X352629Y72882D01*
X352516Y72868D01*
X352403Y72858D01*
X352290Y72852D01*
X352177Y72850D01*
X352177Y72851D02*
X348932Y72851D01*
X352826Y72851D02*
X355423Y67658D01*
D11*
X290050Y315350D02*
X290052Y315420D01*
X290058Y315490D01*
X290068Y315559D01*
X290081Y315628D01*
X290099Y315696D01*
X290120Y315763D01*
X290145Y315828D01*
X290174Y315892D01*
X290206Y315955D01*
X290242Y316015D01*
X290281Y316073D01*
X290323Y316129D01*
X290368Y316183D01*
X290416Y316234D01*
X290467Y316282D01*
X290521Y316327D01*
X290577Y316369D01*
X290635Y316408D01*
X290695Y316444D01*
X290758Y316476D01*
X290822Y316505D01*
X290887Y316530D01*
X290954Y316551D01*
X291022Y316569D01*
X291091Y316582D01*
X291160Y316592D01*
X291230Y316598D01*
X291300Y316600D01*
X291370Y316598D01*
X291440Y316592D01*
X291509Y316582D01*
X291578Y316569D01*
X291646Y316551D01*
X291713Y316530D01*
X291778Y316505D01*
X291842Y316476D01*
X291905Y316444D01*
X291965Y316408D01*
X292023Y316369D01*
X292079Y316327D01*
X292133Y316282D01*
X292184Y316234D01*
X292232Y316183D01*
X292277Y316129D01*
X292319Y316073D01*
X292358Y316015D01*
X292394Y315955D01*
X292426Y315892D01*
X292455Y315828D01*
X292480Y315763D01*
X292501Y315696D01*
X292519Y315628D01*
X292532Y315559D01*
X292542Y315490D01*
X292548Y315420D01*
X292550Y315350D01*
X292548Y315280D01*
X292542Y315210D01*
X292532Y315141D01*
X292519Y315072D01*
X292501Y315004D01*
X292480Y314937D01*
X292455Y314872D01*
X292426Y314808D01*
X292394Y314745D01*
X292358Y314685D01*
X292319Y314627D01*
X292277Y314571D01*
X292232Y314517D01*
X292184Y314466D01*
X292133Y314418D01*
X292079Y314373D01*
X292023Y314331D01*
X291965Y314292D01*
X291905Y314256D01*
X291842Y314224D01*
X291778Y314195D01*
X291713Y314170D01*
X291646Y314149D01*
X291578Y314131D01*
X291509Y314118D01*
X291440Y314108D01*
X291370Y314102D01*
X291300Y314100D01*
X291230Y314102D01*
X291160Y314108D01*
X291091Y314118D01*
X291022Y314131D01*
X290954Y314149D01*
X290887Y314170D01*
X290822Y314195D01*
X290758Y314224D01*
X290695Y314256D01*
X290635Y314292D01*
X290577Y314331D01*
X290521Y314373D01*
X290467Y314418D01*
X290416Y314466D01*
X290368Y314517D01*
X290323Y314571D01*
X290281Y314627D01*
X290242Y314685D01*
X290206Y314745D01*
X290174Y314808D01*
X290145Y314872D01*
X290120Y314937D01*
X290099Y315004D01*
X290081Y315072D01*
X290068Y315141D01*
X290058Y315210D01*
X290052Y315280D01*
X290050Y315350D01*
D10*
X325292Y313558D02*
X325292Y325242D01*
X323994Y313558D02*
X326590Y313558D01*
X326590Y325242D02*
X323994Y325242D01*
X333754Y313558D02*
X336350Y313558D01*
X333754Y313558D02*
X333655Y313560D01*
X333555Y313566D01*
X333456Y313575D01*
X333358Y313588D01*
X333260Y313605D01*
X333162Y313626D01*
X333066Y313651D01*
X332971Y313679D01*
X332877Y313711D01*
X332784Y313746D01*
X332692Y313785D01*
X332602Y313828D01*
X332514Y313873D01*
X332427Y313923D01*
X332343Y313975D01*
X332260Y314031D01*
X332180Y314089D01*
X332102Y314151D01*
X332027Y314216D01*
X331954Y314284D01*
X331884Y314354D01*
X331816Y314427D01*
X331751Y314502D01*
X331689Y314580D01*
X331631Y314660D01*
X331575Y314743D01*
X331523Y314827D01*
X331473Y314914D01*
X331428Y315002D01*
X331385Y315092D01*
X331346Y315184D01*
X331311Y315277D01*
X331279Y315371D01*
X331251Y315466D01*
X331226Y315562D01*
X331205Y315660D01*
X331188Y315758D01*
X331175Y315856D01*
X331166Y315955D01*
X331160Y316055D01*
X331158Y316154D01*
X331157Y316154D02*
X331157Y322646D01*
X331158Y322646D02*
X331160Y322745D01*
X331166Y322845D01*
X331175Y322944D01*
X331188Y323042D01*
X331205Y323140D01*
X331226Y323238D01*
X331251Y323334D01*
X331279Y323429D01*
X331311Y323523D01*
X331346Y323616D01*
X331385Y323708D01*
X331428Y323798D01*
X331473Y323886D01*
X331523Y323973D01*
X331575Y324057D01*
X331631Y324140D01*
X331689Y324220D01*
X331751Y324298D01*
X331816Y324373D01*
X331884Y324446D01*
X331954Y324516D01*
X332027Y324584D01*
X332102Y324649D01*
X332180Y324711D01*
X332260Y324769D01*
X332343Y324825D01*
X332427Y324877D01*
X332514Y324927D01*
X332602Y324972D01*
X332692Y325015D01*
X332784Y325054D01*
X332876Y325089D01*
X332971Y325121D01*
X333066Y325149D01*
X333162Y325174D01*
X333260Y325195D01*
X333358Y325212D01*
X333456Y325225D01*
X333555Y325234D01*
X333655Y325240D01*
X333754Y325242D01*
X336350Y325242D01*
X344285Y325242D02*
X344392Y325240D01*
X344498Y325234D01*
X344604Y325224D01*
X344710Y325211D01*
X344816Y325193D01*
X344920Y325172D01*
X345024Y325147D01*
X345127Y325118D01*
X345228Y325086D01*
X345328Y325049D01*
X345427Y325009D01*
X345525Y324966D01*
X345621Y324919D01*
X345715Y324868D01*
X345807Y324814D01*
X345897Y324757D01*
X345985Y324697D01*
X346070Y324633D01*
X346153Y324566D01*
X346234Y324496D01*
X346312Y324424D01*
X346388Y324348D01*
X346460Y324270D01*
X346530Y324189D01*
X346597Y324106D01*
X346661Y324021D01*
X346721Y323933D01*
X346778Y323843D01*
X346832Y323751D01*
X346883Y323657D01*
X346930Y323561D01*
X346973Y323463D01*
X347013Y323364D01*
X347050Y323264D01*
X347082Y323163D01*
X347111Y323060D01*
X347136Y322956D01*
X347157Y322852D01*
X347175Y322746D01*
X347188Y322640D01*
X347198Y322534D01*
X347204Y322428D01*
X347206Y322321D01*
X344285Y325242D02*
X344164Y325240D01*
X344043Y325234D01*
X343923Y325224D01*
X343802Y325211D01*
X343683Y325193D01*
X343563Y325172D01*
X343445Y325147D01*
X343328Y325118D01*
X343211Y325085D01*
X343096Y325049D01*
X342982Y325008D01*
X342869Y324965D01*
X342757Y324917D01*
X342648Y324866D01*
X342540Y324811D01*
X342433Y324753D01*
X342329Y324692D01*
X342227Y324627D01*
X342127Y324559D01*
X342029Y324488D01*
X341933Y324414D01*
X341840Y324337D01*
X341750Y324256D01*
X341662Y324173D01*
X341577Y324087D01*
X341494Y323998D01*
X341415Y323907D01*
X341338Y323813D01*
X341265Y323717D01*
X341195Y323619D01*
X341128Y323518D01*
X341064Y323415D01*
X341004Y323310D01*
X340947Y323203D01*
X340893Y323095D01*
X340843Y322985D01*
X340797Y322873D01*
X340754Y322760D01*
X340715Y322645D01*
X346233Y320049D02*
X346312Y320126D01*
X346388Y320207D01*
X346461Y320290D01*
X346531Y320375D01*
X346598Y320463D01*
X346662Y320553D01*
X346722Y320645D01*
X346779Y320740D01*
X346833Y320836D01*
X346884Y320934D01*
X346931Y321034D01*
X346975Y321136D01*
X347015Y321239D01*
X347051Y321343D01*
X347083Y321449D01*
X347112Y321555D01*
X347137Y321663D01*
X347159Y321771D01*
X347176Y321881D01*
X347190Y321990D01*
X347199Y322100D01*
X347205Y322211D01*
X347207Y322321D01*
X346233Y320049D02*
X340715Y313558D01*
X347206Y313558D01*
X216564Y331658D02*
X216564Y343342D01*
X213319Y343342D02*
X219810Y343342D01*
X224481Y343342D02*
X224481Y331658D01*
X228375Y336851D02*
X224481Y343342D01*
X228375Y336851D02*
X232270Y343342D01*
X232270Y331658D01*
X238253Y331658D02*
X238253Y343342D01*
X241499Y343342D01*
X241612Y343340D01*
X241725Y343334D01*
X241838Y343324D01*
X241951Y343310D01*
X242063Y343293D01*
X242174Y343271D01*
X242284Y343246D01*
X242394Y343216D01*
X242502Y343183D01*
X242609Y343146D01*
X242715Y343106D01*
X242819Y343061D01*
X242922Y343013D01*
X243023Y342962D01*
X243122Y342907D01*
X243219Y342849D01*
X243314Y342787D01*
X243407Y342722D01*
X243497Y342654D01*
X243585Y342583D01*
X243671Y342508D01*
X243754Y342431D01*
X243834Y342351D01*
X243911Y342268D01*
X243986Y342182D01*
X244057Y342094D01*
X244125Y342004D01*
X244190Y341911D01*
X244252Y341816D01*
X244310Y341719D01*
X244365Y341620D01*
X244416Y341519D01*
X244464Y341416D01*
X244509Y341312D01*
X244549Y341206D01*
X244586Y341099D01*
X244619Y340991D01*
X244649Y340881D01*
X244674Y340771D01*
X244696Y340660D01*
X244713Y340548D01*
X244727Y340435D01*
X244737Y340322D01*
X244743Y340209D01*
X244745Y340096D01*
X244743Y339983D01*
X244737Y339870D01*
X244727Y339757D01*
X244713Y339644D01*
X244696Y339532D01*
X244674Y339421D01*
X244649Y339311D01*
X244619Y339201D01*
X244586Y339093D01*
X244549Y338986D01*
X244509Y338880D01*
X244464Y338776D01*
X244416Y338673D01*
X244365Y338572D01*
X244310Y338473D01*
X244252Y338376D01*
X244190Y338281D01*
X244125Y338188D01*
X244057Y338098D01*
X243986Y338010D01*
X243911Y337924D01*
X243834Y337841D01*
X243754Y337761D01*
X243671Y337684D01*
X243585Y337609D01*
X243497Y337538D01*
X243407Y337470D01*
X243314Y337405D01*
X243219Y337343D01*
X243122Y337285D01*
X243023Y337230D01*
X242922Y337179D01*
X242819Y337131D01*
X242715Y337086D01*
X242609Y337046D01*
X242502Y337009D01*
X242394Y336976D01*
X242284Y336946D01*
X242174Y336921D01*
X242063Y336899D01*
X241951Y336882D01*
X241838Y336868D01*
X241725Y336858D01*
X241612Y336852D01*
X241499Y336850D01*
X241499Y336851D02*
X238253Y336851D01*
X249133Y340746D02*
X252378Y343342D01*
X252378Y331658D01*
X249133Y331658D02*
X255624Y331658D01*
X260563Y340746D02*
X263808Y343342D01*
X263808Y331658D01*
X260563Y331658D02*
X267054Y331658D01*
X271993Y338149D02*
X275887Y338149D01*
X275986Y338147D01*
X276086Y338141D01*
X276185Y338132D01*
X276283Y338119D01*
X276381Y338102D01*
X276479Y338081D01*
X276575Y338056D01*
X276670Y338028D01*
X276764Y337996D01*
X276857Y337961D01*
X276949Y337922D01*
X277039Y337879D01*
X277127Y337834D01*
X277214Y337784D01*
X277298Y337732D01*
X277381Y337676D01*
X277461Y337618D01*
X277539Y337556D01*
X277614Y337491D01*
X277687Y337423D01*
X277757Y337353D01*
X277825Y337280D01*
X277890Y337205D01*
X277952Y337127D01*
X278010Y337047D01*
X278066Y336964D01*
X278118Y336880D01*
X278168Y336793D01*
X278213Y336705D01*
X278256Y336615D01*
X278295Y336523D01*
X278330Y336430D01*
X278362Y336336D01*
X278390Y336241D01*
X278415Y336145D01*
X278436Y336047D01*
X278453Y335949D01*
X278466Y335851D01*
X278475Y335752D01*
X278481Y335652D01*
X278483Y335553D01*
X278484Y335553D02*
X278484Y334904D01*
X278482Y334791D01*
X278476Y334678D01*
X278466Y334565D01*
X278452Y334452D01*
X278435Y334340D01*
X278413Y334229D01*
X278388Y334119D01*
X278358Y334009D01*
X278325Y333901D01*
X278288Y333794D01*
X278248Y333688D01*
X278203Y333584D01*
X278155Y333481D01*
X278104Y333380D01*
X278049Y333281D01*
X277991Y333184D01*
X277929Y333089D01*
X277864Y332996D01*
X277796Y332906D01*
X277725Y332818D01*
X277650Y332732D01*
X277573Y332649D01*
X277493Y332569D01*
X277410Y332492D01*
X277324Y332417D01*
X277236Y332346D01*
X277146Y332278D01*
X277053Y332213D01*
X276958Y332151D01*
X276861Y332093D01*
X276762Y332038D01*
X276661Y331987D01*
X276558Y331939D01*
X276454Y331894D01*
X276348Y331854D01*
X276241Y331817D01*
X276133Y331784D01*
X276023Y331754D01*
X275913Y331729D01*
X275802Y331707D01*
X275690Y331690D01*
X275577Y331676D01*
X275464Y331666D01*
X275351Y331660D01*
X275238Y331658D01*
X275125Y331660D01*
X275012Y331666D01*
X274899Y331676D01*
X274786Y331690D01*
X274674Y331707D01*
X274563Y331729D01*
X274453Y331754D01*
X274343Y331784D01*
X274235Y331817D01*
X274128Y331854D01*
X274022Y331894D01*
X273918Y331939D01*
X273815Y331987D01*
X273714Y332038D01*
X273615Y332093D01*
X273518Y332151D01*
X273423Y332213D01*
X273330Y332278D01*
X273240Y332346D01*
X273152Y332417D01*
X273066Y332492D01*
X272983Y332569D01*
X272903Y332649D01*
X272826Y332732D01*
X272751Y332818D01*
X272680Y332906D01*
X272612Y332996D01*
X272547Y333089D01*
X272485Y333184D01*
X272427Y333281D01*
X272372Y333380D01*
X272321Y333481D01*
X272273Y333584D01*
X272228Y333688D01*
X272188Y333794D01*
X272151Y333901D01*
X272118Y334009D01*
X272088Y334119D01*
X272063Y334229D01*
X272041Y334340D01*
X272024Y334452D01*
X272010Y334565D01*
X272000Y334678D01*
X271994Y334791D01*
X271992Y334904D01*
X271993Y334904D02*
X271993Y338149D01*
X271995Y338292D01*
X272001Y338435D01*
X272011Y338578D01*
X272025Y338720D01*
X272042Y338862D01*
X272064Y339004D01*
X272089Y339145D01*
X272119Y339285D01*
X272152Y339424D01*
X272189Y339562D01*
X272230Y339699D01*
X272274Y339835D01*
X272323Y339970D01*
X272375Y340103D01*
X272430Y340235D01*
X272490Y340365D01*
X272553Y340494D01*
X272619Y340621D01*
X272689Y340745D01*
X272762Y340868D01*
X272839Y340989D01*
X272919Y341108D01*
X273002Y341224D01*
X273088Y341339D01*
X273177Y341450D01*
X273270Y341560D01*
X273365Y341666D01*
X273464Y341770D01*
X273565Y341871D01*
X273669Y341970D01*
X273775Y342065D01*
X273885Y342158D01*
X273996Y342247D01*
X274111Y342333D01*
X274227Y342416D01*
X274346Y342496D01*
X274467Y342573D01*
X274589Y342646D01*
X274714Y342716D01*
X274841Y342782D01*
X274970Y342845D01*
X275100Y342905D01*
X275232Y342960D01*
X275365Y343012D01*
X275500Y343061D01*
X275636Y343105D01*
X275773Y343146D01*
X275911Y343183D01*
X276050Y343216D01*
X276190Y343246D01*
X276331Y343271D01*
X276473Y343293D01*
X276615Y343310D01*
X276757Y343324D01*
X276900Y343334D01*
X277043Y343340D01*
X277186Y343342D01*
X283804Y343342D02*
X283804Y331658D01*
X290295Y331658D02*
X283804Y343342D01*
X290295Y343342D02*
X290295Y331658D01*
X294966Y331658D02*
X298860Y343342D01*
X302755Y331658D01*
X301781Y334579D02*
X295939Y334579D01*
X308004Y331658D02*
X308004Y343342D01*
X306706Y331658D02*
X309302Y331658D01*
X309302Y343342D02*
X306706Y343342D01*
X314284Y343342D02*
X314284Y331658D01*
X314284Y343342D02*
X317529Y343342D01*
X317642Y343340D01*
X317755Y343334D01*
X317868Y343324D01*
X317981Y343310D01*
X318093Y343293D01*
X318204Y343271D01*
X318314Y343246D01*
X318424Y343216D01*
X318532Y343183D01*
X318639Y343146D01*
X318745Y343106D01*
X318849Y343061D01*
X318952Y343013D01*
X319053Y342962D01*
X319152Y342907D01*
X319249Y342849D01*
X319344Y342787D01*
X319437Y342722D01*
X319527Y342654D01*
X319615Y342583D01*
X319701Y342508D01*
X319784Y342431D01*
X319864Y342351D01*
X319941Y342268D01*
X320016Y342182D01*
X320087Y342094D01*
X320155Y342004D01*
X320220Y341911D01*
X320282Y341816D01*
X320340Y341719D01*
X320395Y341620D01*
X320446Y341519D01*
X320494Y341416D01*
X320539Y341312D01*
X320579Y341206D01*
X320616Y341099D01*
X320649Y340991D01*
X320679Y340881D01*
X320704Y340771D01*
X320726Y340660D01*
X320743Y340548D01*
X320757Y340435D01*
X320767Y340322D01*
X320773Y340209D01*
X320775Y340096D01*
X320775Y334904D01*
X320773Y334791D01*
X320767Y334678D01*
X320757Y334565D01*
X320743Y334452D01*
X320726Y334340D01*
X320704Y334229D01*
X320679Y334119D01*
X320649Y334009D01*
X320616Y333901D01*
X320579Y333794D01*
X320539Y333688D01*
X320494Y333584D01*
X320446Y333481D01*
X320395Y333380D01*
X320340Y333281D01*
X320282Y333184D01*
X320220Y333089D01*
X320155Y332996D01*
X320087Y332906D01*
X320016Y332818D01*
X319941Y332732D01*
X319864Y332649D01*
X319784Y332569D01*
X319701Y332492D01*
X319615Y332417D01*
X319527Y332346D01*
X319437Y332278D01*
X319344Y332213D01*
X319249Y332151D01*
X319152Y332093D01*
X319053Y332038D01*
X318952Y331987D01*
X318849Y331939D01*
X318745Y331894D01*
X318639Y331854D01*
X318532Y331817D01*
X318424Y331784D01*
X318314Y331754D01*
X318204Y331729D01*
X318093Y331707D01*
X317981Y331690D01*
X317868Y331676D01*
X317755Y331666D01*
X317642Y331660D01*
X317529Y331658D01*
X314284Y331658D01*
X326549Y331658D02*
X326549Y343342D01*
X329795Y343342D01*
X329908Y343340D01*
X330021Y343334D01*
X330134Y343324D01*
X330247Y343310D01*
X330359Y343293D01*
X330470Y343271D01*
X330580Y343246D01*
X330690Y343216D01*
X330798Y343183D01*
X330905Y343146D01*
X331011Y343106D01*
X331115Y343061D01*
X331218Y343013D01*
X331319Y342962D01*
X331418Y342907D01*
X331515Y342849D01*
X331610Y342787D01*
X331703Y342722D01*
X331793Y342654D01*
X331881Y342583D01*
X331967Y342508D01*
X332050Y342431D01*
X332130Y342351D01*
X332207Y342268D01*
X332282Y342182D01*
X332353Y342094D01*
X332421Y342004D01*
X332486Y341911D01*
X332548Y341816D01*
X332606Y341719D01*
X332661Y341620D01*
X332712Y341519D01*
X332760Y341416D01*
X332805Y341312D01*
X332845Y341206D01*
X332882Y341099D01*
X332915Y340991D01*
X332945Y340881D01*
X332970Y340771D01*
X332992Y340660D01*
X333009Y340548D01*
X333023Y340435D01*
X333033Y340322D01*
X333039Y340209D01*
X333041Y340096D01*
X333039Y339983D01*
X333033Y339870D01*
X333023Y339757D01*
X333009Y339644D01*
X332992Y339532D01*
X332970Y339421D01*
X332945Y339311D01*
X332915Y339201D01*
X332882Y339093D01*
X332845Y338986D01*
X332805Y338880D01*
X332760Y338776D01*
X332712Y338673D01*
X332661Y338572D01*
X332606Y338473D01*
X332548Y338376D01*
X332486Y338281D01*
X332421Y338188D01*
X332353Y338098D01*
X332282Y338010D01*
X332207Y337924D01*
X332130Y337841D01*
X332050Y337761D01*
X331967Y337684D01*
X331881Y337609D01*
X331793Y337538D01*
X331703Y337470D01*
X331610Y337405D01*
X331515Y337343D01*
X331418Y337285D01*
X331319Y337230D01*
X331218Y337179D01*
X331115Y337131D01*
X331011Y337086D01*
X330905Y337046D01*
X330798Y337009D01*
X330690Y336976D01*
X330580Y336946D01*
X330470Y336921D01*
X330359Y336899D01*
X330247Y336882D01*
X330134Y336868D01*
X330021Y336858D01*
X329908Y336852D01*
X329795Y336850D01*
X329795Y336851D02*
X326549Y336851D01*
X330444Y336851D02*
X333040Y331658D01*
X341151Y331658D02*
X337256Y343342D01*
X345046Y343342D02*
X341151Y331658D01*
X349790Y331658D02*
X349790Y343342D01*
X353036Y343342D01*
X353149Y343340D01*
X353262Y343334D01*
X353375Y343324D01*
X353488Y343310D01*
X353600Y343293D01*
X353711Y343271D01*
X353821Y343246D01*
X353931Y343216D01*
X354039Y343183D01*
X354146Y343146D01*
X354252Y343106D01*
X354356Y343061D01*
X354459Y343013D01*
X354560Y342962D01*
X354659Y342907D01*
X354756Y342849D01*
X354851Y342787D01*
X354944Y342722D01*
X355034Y342654D01*
X355122Y342583D01*
X355208Y342508D01*
X355291Y342431D01*
X355371Y342351D01*
X355448Y342268D01*
X355523Y342182D01*
X355594Y342094D01*
X355662Y342004D01*
X355727Y341911D01*
X355789Y341816D01*
X355847Y341719D01*
X355902Y341620D01*
X355953Y341519D01*
X356001Y341416D01*
X356046Y341312D01*
X356086Y341206D01*
X356123Y341099D01*
X356156Y340991D01*
X356186Y340881D01*
X356211Y340771D01*
X356233Y340660D01*
X356250Y340548D01*
X356264Y340435D01*
X356274Y340322D01*
X356280Y340209D01*
X356282Y340096D01*
X356280Y339983D01*
X356274Y339870D01*
X356264Y339757D01*
X356250Y339644D01*
X356233Y339532D01*
X356211Y339421D01*
X356186Y339311D01*
X356156Y339201D01*
X356123Y339093D01*
X356086Y338986D01*
X356046Y338880D01*
X356001Y338776D01*
X355953Y338673D01*
X355902Y338572D01*
X355847Y338473D01*
X355789Y338376D01*
X355727Y338281D01*
X355662Y338188D01*
X355594Y338098D01*
X355523Y338010D01*
X355448Y337924D01*
X355371Y337841D01*
X355291Y337761D01*
X355208Y337684D01*
X355122Y337609D01*
X355034Y337538D01*
X354944Y337470D01*
X354851Y337405D01*
X354756Y337343D01*
X354659Y337285D01*
X354560Y337230D01*
X354459Y337179D01*
X354356Y337131D01*
X354252Y337086D01*
X354146Y337046D01*
X354039Y337009D01*
X353931Y336976D01*
X353821Y336946D01*
X353711Y336921D01*
X353600Y336899D01*
X353488Y336882D01*
X353375Y336868D01*
X353262Y336858D01*
X353149Y336852D01*
X353036Y336850D01*
X353036Y336851D02*
X349790Y336851D01*
X353685Y336851D02*
X356281Y331658D01*
X133858Y104742D02*
X133858Y93058D01*
X133858Y104742D02*
X137104Y104742D01*
X137217Y104740D01*
X137330Y104734D01*
X137443Y104724D01*
X137556Y104710D01*
X137668Y104693D01*
X137779Y104671D01*
X137889Y104646D01*
X137999Y104616D01*
X138107Y104583D01*
X138214Y104546D01*
X138320Y104506D01*
X138424Y104461D01*
X138527Y104413D01*
X138628Y104362D01*
X138727Y104307D01*
X138824Y104249D01*
X138919Y104187D01*
X139012Y104122D01*
X139102Y104054D01*
X139190Y103983D01*
X139276Y103908D01*
X139359Y103831D01*
X139439Y103751D01*
X139516Y103668D01*
X139591Y103582D01*
X139662Y103494D01*
X139730Y103404D01*
X139795Y103311D01*
X139857Y103216D01*
X139915Y103119D01*
X139970Y103020D01*
X140021Y102919D01*
X140069Y102816D01*
X140114Y102712D01*
X140154Y102606D01*
X140191Y102499D01*
X140224Y102391D01*
X140254Y102281D01*
X140279Y102171D01*
X140301Y102060D01*
X140318Y101948D01*
X140332Y101835D01*
X140342Y101722D01*
X140348Y101609D01*
X140350Y101496D01*
X140348Y101383D01*
X140342Y101270D01*
X140332Y101157D01*
X140318Y101044D01*
X140301Y100932D01*
X140279Y100821D01*
X140254Y100711D01*
X140224Y100601D01*
X140191Y100493D01*
X140154Y100386D01*
X140114Y100280D01*
X140069Y100176D01*
X140021Y100073D01*
X139970Y99972D01*
X139915Y99873D01*
X139857Y99776D01*
X139795Y99681D01*
X139730Y99588D01*
X139662Y99498D01*
X139591Y99410D01*
X139516Y99324D01*
X139439Y99241D01*
X139359Y99161D01*
X139276Y99084D01*
X139190Y99009D01*
X139102Y98938D01*
X139012Y98870D01*
X138919Y98805D01*
X138824Y98743D01*
X138727Y98685D01*
X138628Y98630D01*
X138527Y98579D01*
X138424Y98531D01*
X138320Y98486D01*
X138214Y98446D01*
X138107Y98409D01*
X137999Y98376D01*
X137889Y98346D01*
X137779Y98321D01*
X137668Y98299D01*
X137556Y98282D01*
X137443Y98268D01*
X137330Y98258D01*
X137217Y98252D01*
X137104Y98250D01*
X137104Y98251D02*
X133858Y98251D01*
X137753Y98251D02*
X140349Y93058D01*
X145214Y102146D02*
X148460Y104742D01*
X148460Y93058D01*
X151705Y93058D02*
X145214Y93058D01*
X203858Y86746D02*
X207104Y89342D01*
X207104Y77658D01*
X210349Y77658D02*
X203858Y77658D01*
X215288Y83500D02*
X215291Y83730D01*
X215299Y83960D01*
X215313Y84189D01*
X215332Y84418D01*
X215357Y84647D01*
X215387Y84874D01*
X215422Y85102D01*
X215463Y85328D01*
X215509Y85553D01*
X215561Y85777D01*
X215618Y85999D01*
X215680Y86221D01*
X215748Y86440D01*
X215821Y86658D01*
X215899Y86875D01*
X215982Y87089D01*
X216070Y87301D01*
X216163Y87511D01*
X216262Y87719D01*
X216295Y87809D01*
X216331Y87898D01*
X216371Y87986D01*
X216415Y88071D01*
X216462Y88155D01*
X216512Y88237D01*
X216566Y88317D01*
X216622Y88394D01*
X216682Y88470D01*
X216745Y88543D01*
X216810Y88613D01*
X216879Y88681D01*
X216950Y88745D01*
X217023Y88807D01*
X217099Y88866D01*
X217177Y88922D01*
X217258Y88975D01*
X217340Y89024D01*
X217424Y89070D01*
X217511Y89113D01*
X217598Y89152D01*
X217688Y89188D01*
X217778Y89220D01*
X217870Y89248D01*
X217963Y89273D01*
X218057Y89294D01*
X218151Y89311D01*
X218246Y89325D01*
X218342Y89334D01*
X218438Y89340D01*
X218534Y89342D01*
X218630Y89340D01*
X218726Y89334D01*
X218822Y89325D01*
X218917Y89311D01*
X219011Y89294D01*
X219105Y89273D01*
X219198Y89248D01*
X219290Y89220D01*
X219380Y89188D01*
X219470Y89152D01*
X219557Y89113D01*
X219644Y89070D01*
X219728Y89024D01*
X219810Y88975D01*
X219891Y88922D01*
X219969Y88866D01*
X220045Y88807D01*
X220118Y88745D01*
X220189Y88681D01*
X220258Y88613D01*
X220323Y88543D01*
X220386Y88470D01*
X220446Y88394D01*
X220502Y88317D01*
X220556Y88237D01*
X220606Y88155D01*
X220653Y88071D01*
X220697Y87986D01*
X220737Y87898D01*
X220773Y87809D01*
X220806Y87719D01*
X220905Y87512D01*
X220998Y87302D01*
X221086Y87089D01*
X221169Y86875D01*
X221247Y86659D01*
X221320Y86441D01*
X221388Y86221D01*
X221450Y86000D01*
X221507Y85777D01*
X221559Y85553D01*
X221605Y85328D01*
X221646Y85102D01*
X221681Y84875D01*
X221711Y84647D01*
X221736Y84418D01*
X221755Y84189D01*
X221769Y83960D01*
X221777Y83730D01*
X221780Y83500D01*
X215288Y83500D02*
X215291Y83270D01*
X215299Y83040D01*
X215313Y82811D01*
X215332Y82582D01*
X215357Y82353D01*
X215387Y82125D01*
X215422Y81898D01*
X215463Y81672D01*
X215509Y81447D01*
X215561Y81223D01*
X215618Y81000D01*
X215680Y80779D01*
X215748Y80559D01*
X215821Y80341D01*
X215899Y80125D01*
X215982Y79911D01*
X216070Y79699D01*
X216163Y79488D01*
X216262Y79281D01*
X216295Y79191D01*
X216331Y79102D01*
X216372Y79014D01*
X216415Y78929D01*
X216462Y78845D01*
X216512Y78763D01*
X216566Y78683D01*
X216622Y78606D01*
X216682Y78530D01*
X216745Y78457D01*
X216810Y78387D01*
X216879Y78319D01*
X216950Y78255D01*
X217023Y78193D01*
X217099Y78134D01*
X217177Y78078D01*
X217258Y78025D01*
X217340Y77976D01*
X217424Y77930D01*
X217511Y77887D01*
X217598Y77848D01*
X217688Y77812D01*
X217778Y77780D01*
X217870Y77752D01*
X217963Y77727D01*
X218057Y77706D01*
X218151Y77689D01*
X218246Y77675D01*
X218342Y77666D01*
X218438Y77660D01*
X218534Y77658D01*
X220805Y79281D02*
X220904Y79488D01*
X220997Y79699D01*
X221085Y79911D01*
X221168Y80125D01*
X221246Y80341D01*
X221319Y80559D01*
X221387Y80779D01*
X221449Y81000D01*
X221506Y81223D01*
X221558Y81447D01*
X221604Y81672D01*
X221645Y81898D01*
X221680Y82125D01*
X221710Y82353D01*
X221735Y82582D01*
X221754Y82811D01*
X221768Y83040D01*
X221776Y83270D01*
X221779Y83500D01*
X220806Y79281D02*
X220773Y79191D01*
X220737Y79102D01*
X220697Y79014D01*
X220653Y78929D01*
X220606Y78845D01*
X220556Y78763D01*
X220502Y78683D01*
X220446Y78606D01*
X220386Y78530D01*
X220323Y78457D01*
X220258Y78387D01*
X220189Y78319D01*
X220118Y78255D01*
X220045Y78193D01*
X219969Y78134D01*
X219891Y78078D01*
X219810Y78025D01*
X219728Y77976D01*
X219644Y77930D01*
X219557Y77887D01*
X219470Y77848D01*
X219380Y77812D01*
X219290Y77780D01*
X219198Y77752D01*
X219105Y77727D01*
X219011Y77706D01*
X218917Y77689D01*
X218822Y77675D01*
X218726Y77666D01*
X218630Y77660D01*
X218534Y77658D01*
X215937Y80254D02*
X221130Y86746D01*
X227122Y89342D02*
X227122Y77658D01*
X227122Y81553D02*
X232314Y85447D01*
X229393Y83175D02*
X232314Y77658D01*
X133858Y169258D02*
X133858Y180942D01*
X137104Y180942D01*
X137217Y180940D01*
X137330Y180934D01*
X137443Y180924D01*
X137556Y180910D01*
X137668Y180893D01*
X137779Y180871D01*
X137889Y180846D01*
X137999Y180816D01*
X138107Y180783D01*
X138214Y180746D01*
X138320Y180706D01*
X138424Y180661D01*
X138527Y180613D01*
X138628Y180562D01*
X138727Y180507D01*
X138824Y180449D01*
X138919Y180387D01*
X139012Y180322D01*
X139102Y180254D01*
X139190Y180183D01*
X139276Y180108D01*
X139359Y180031D01*
X139439Y179951D01*
X139516Y179868D01*
X139591Y179782D01*
X139662Y179694D01*
X139730Y179604D01*
X139795Y179511D01*
X139857Y179416D01*
X139915Y179319D01*
X139970Y179220D01*
X140021Y179119D01*
X140069Y179016D01*
X140114Y178912D01*
X140154Y178806D01*
X140191Y178699D01*
X140224Y178591D01*
X140254Y178481D01*
X140279Y178371D01*
X140301Y178260D01*
X140318Y178148D01*
X140332Y178035D01*
X140342Y177922D01*
X140348Y177809D01*
X140350Y177696D01*
X140348Y177583D01*
X140342Y177470D01*
X140332Y177357D01*
X140318Y177244D01*
X140301Y177132D01*
X140279Y177021D01*
X140254Y176911D01*
X140224Y176801D01*
X140191Y176693D01*
X140154Y176586D01*
X140114Y176480D01*
X140069Y176376D01*
X140021Y176273D01*
X139970Y176172D01*
X139915Y176073D01*
X139857Y175976D01*
X139795Y175881D01*
X139730Y175788D01*
X139662Y175698D01*
X139591Y175610D01*
X139516Y175524D01*
X139439Y175441D01*
X139359Y175361D01*
X139276Y175284D01*
X139190Y175209D01*
X139102Y175138D01*
X139012Y175070D01*
X138919Y175005D01*
X138824Y174943D01*
X138727Y174885D01*
X138628Y174830D01*
X138527Y174779D01*
X138424Y174731D01*
X138320Y174686D01*
X138214Y174646D01*
X138107Y174609D01*
X137999Y174576D01*
X137889Y174546D01*
X137779Y174521D01*
X137668Y174499D01*
X137556Y174482D01*
X137443Y174468D01*
X137330Y174458D01*
X137217Y174452D01*
X137104Y174450D01*
X137104Y174451D02*
X133858Y174451D01*
X137753Y174451D02*
X140349Y169258D01*
X151705Y178021D02*
X151703Y178128D01*
X151697Y178234D01*
X151687Y178340D01*
X151674Y178446D01*
X151656Y178552D01*
X151635Y178656D01*
X151610Y178760D01*
X151581Y178863D01*
X151549Y178964D01*
X151512Y179064D01*
X151472Y179163D01*
X151429Y179261D01*
X151382Y179357D01*
X151331Y179451D01*
X151277Y179543D01*
X151220Y179633D01*
X151160Y179721D01*
X151096Y179806D01*
X151029Y179889D01*
X150959Y179970D01*
X150887Y180048D01*
X150811Y180124D01*
X150733Y180196D01*
X150652Y180266D01*
X150569Y180333D01*
X150484Y180397D01*
X150396Y180457D01*
X150306Y180514D01*
X150214Y180568D01*
X150120Y180619D01*
X150024Y180666D01*
X149926Y180709D01*
X149827Y180749D01*
X149727Y180786D01*
X149626Y180818D01*
X149523Y180847D01*
X149419Y180872D01*
X149315Y180893D01*
X149209Y180911D01*
X149103Y180924D01*
X148997Y180934D01*
X148891Y180940D01*
X148784Y180942D01*
X148663Y180940D01*
X148542Y180934D01*
X148422Y180924D01*
X148301Y180911D01*
X148182Y180893D01*
X148062Y180872D01*
X147944Y180847D01*
X147827Y180818D01*
X147710Y180785D01*
X147595Y180749D01*
X147481Y180708D01*
X147368Y180665D01*
X147256Y180617D01*
X147147Y180566D01*
X147039Y180511D01*
X146932Y180453D01*
X146828Y180392D01*
X146726Y180327D01*
X146626Y180259D01*
X146528Y180188D01*
X146432Y180114D01*
X146339Y180037D01*
X146249Y179956D01*
X146161Y179873D01*
X146076Y179787D01*
X145993Y179698D01*
X145914Y179607D01*
X145837Y179513D01*
X145764Y179417D01*
X145694Y179319D01*
X145627Y179218D01*
X145563Y179115D01*
X145503Y179010D01*
X145446Y178903D01*
X145392Y178795D01*
X145342Y178685D01*
X145296Y178573D01*
X145253Y178460D01*
X145214Y178345D01*
X150732Y175749D02*
X150811Y175826D01*
X150887Y175907D01*
X150960Y175990D01*
X151030Y176075D01*
X151097Y176163D01*
X151161Y176253D01*
X151221Y176345D01*
X151278Y176440D01*
X151332Y176536D01*
X151383Y176634D01*
X151430Y176734D01*
X151474Y176836D01*
X151514Y176939D01*
X151550Y177043D01*
X151582Y177149D01*
X151611Y177255D01*
X151636Y177363D01*
X151658Y177471D01*
X151675Y177581D01*
X151689Y177690D01*
X151698Y177800D01*
X151704Y177911D01*
X151706Y178021D01*
X150732Y175749D02*
X145214Y169258D01*
X151705Y169258D01*
X133858Y232758D02*
X133858Y244442D01*
X137104Y244442D01*
X137217Y244440D01*
X137330Y244434D01*
X137443Y244424D01*
X137556Y244410D01*
X137668Y244393D01*
X137779Y244371D01*
X137889Y244346D01*
X137999Y244316D01*
X138107Y244283D01*
X138214Y244246D01*
X138320Y244206D01*
X138424Y244161D01*
X138527Y244113D01*
X138628Y244062D01*
X138727Y244007D01*
X138824Y243949D01*
X138919Y243887D01*
X139012Y243822D01*
X139102Y243754D01*
X139190Y243683D01*
X139276Y243608D01*
X139359Y243531D01*
X139439Y243451D01*
X139516Y243368D01*
X139591Y243282D01*
X139662Y243194D01*
X139730Y243104D01*
X139795Y243011D01*
X139857Y242916D01*
X139915Y242819D01*
X139970Y242720D01*
X140021Y242619D01*
X140069Y242516D01*
X140114Y242412D01*
X140154Y242306D01*
X140191Y242199D01*
X140224Y242091D01*
X140254Y241981D01*
X140279Y241871D01*
X140301Y241760D01*
X140318Y241648D01*
X140332Y241535D01*
X140342Y241422D01*
X140348Y241309D01*
X140350Y241196D01*
X140348Y241083D01*
X140342Y240970D01*
X140332Y240857D01*
X140318Y240744D01*
X140301Y240632D01*
X140279Y240521D01*
X140254Y240411D01*
X140224Y240301D01*
X140191Y240193D01*
X140154Y240086D01*
X140114Y239980D01*
X140069Y239876D01*
X140021Y239773D01*
X139970Y239672D01*
X139915Y239573D01*
X139857Y239476D01*
X139795Y239381D01*
X139730Y239288D01*
X139662Y239198D01*
X139591Y239110D01*
X139516Y239024D01*
X139439Y238941D01*
X139359Y238861D01*
X139276Y238784D01*
X139190Y238709D01*
X139102Y238638D01*
X139012Y238570D01*
X138919Y238505D01*
X138824Y238443D01*
X138727Y238385D01*
X138628Y238330D01*
X138527Y238279D01*
X138424Y238231D01*
X138320Y238186D01*
X138214Y238146D01*
X138107Y238109D01*
X137999Y238076D01*
X137889Y238046D01*
X137779Y238021D01*
X137668Y237999D01*
X137556Y237982D01*
X137443Y237968D01*
X137330Y237958D01*
X137217Y237952D01*
X137104Y237950D01*
X137104Y237951D02*
X133858Y237951D01*
X137753Y237951D02*
X140349Y232758D01*
X145214Y232758D02*
X148460Y232758D01*
X148573Y232760D01*
X148686Y232766D01*
X148799Y232776D01*
X148912Y232790D01*
X149024Y232807D01*
X149135Y232829D01*
X149245Y232854D01*
X149355Y232884D01*
X149463Y232917D01*
X149570Y232954D01*
X149676Y232994D01*
X149780Y233039D01*
X149883Y233087D01*
X149984Y233138D01*
X150083Y233193D01*
X150180Y233251D01*
X150275Y233313D01*
X150368Y233378D01*
X150458Y233446D01*
X150546Y233517D01*
X150632Y233592D01*
X150715Y233669D01*
X150795Y233749D01*
X150872Y233832D01*
X150947Y233918D01*
X151018Y234006D01*
X151086Y234096D01*
X151151Y234189D01*
X151213Y234284D01*
X151271Y234381D01*
X151326Y234480D01*
X151377Y234581D01*
X151425Y234684D01*
X151470Y234788D01*
X151510Y234894D01*
X151547Y235001D01*
X151580Y235109D01*
X151610Y235219D01*
X151635Y235329D01*
X151657Y235440D01*
X151674Y235552D01*
X151688Y235665D01*
X151698Y235778D01*
X151704Y235891D01*
X151706Y236004D01*
X151704Y236117D01*
X151698Y236230D01*
X151688Y236343D01*
X151674Y236456D01*
X151657Y236568D01*
X151635Y236679D01*
X151610Y236789D01*
X151580Y236899D01*
X151547Y237007D01*
X151510Y237114D01*
X151470Y237220D01*
X151425Y237324D01*
X151377Y237427D01*
X151326Y237528D01*
X151271Y237627D01*
X151213Y237724D01*
X151151Y237819D01*
X151086Y237912D01*
X151018Y238002D01*
X150947Y238090D01*
X150872Y238176D01*
X150795Y238259D01*
X150715Y238339D01*
X150632Y238416D01*
X150546Y238491D01*
X150458Y238562D01*
X150368Y238630D01*
X150275Y238695D01*
X150180Y238757D01*
X150083Y238815D01*
X149984Y238870D01*
X149883Y238921D01*
X149780Y238969D01*
X149676Y239014D01*
X149570Y239054D01*
X149463Y239091D01*
X149355Y239124D01*
X149245Y239154D01*
X149135Y239179D01*
X149024Y239201D01*
X148912Y239218D01*
X148799Y239232D01*
X148686Y239242D01*
X148573Y239248D01*
X148460Y239250D01*
X149109Y244442D02*
X145214Y244442D01*
X149109Y244442D02*
X149210Y244440D01*
X149310Y244434D01*
X149410Y244424D01*
X149510Y244411D01*
X149609Y244393D01*
X149708Y244372D01*
X149805Y244347D01*
X149902Y244318D01*
X149997Y244285D01*
X150091Y244249D01*
X150183Y244209D01*
X150274Y244166D01*
X150363Y244119D01*
X150450Y244069D01*
X150536Y244015D01*
X150619Y243958D01*
X150699Y243898D01*
X150778Y243835D01*
X150854Y243768D01*
X150927Y243699D01*
X150997Y243627D01*
X151065Y243553D01*
X151130Y243476D01*
X151191Y243396D01*
X151250Y243314D01*
X151305Y243230D01*
X151357Y243144D01*
X151406Y243056D01*
X151451Y242966D01*
X151493Y242874D01*
X151531Y242781D01*
X151565Y242686D01*
X151596Y242591D01*
X151623Y242494D01*
X151646Y242396D01*
X151666Y242297D01*
X151681Y242197D01*
X151693Y242097D01*
X151701Y241997D01*
X151705Y241896D01*
X151705Y241796D01*
X151701Y241695D01*
X151693Y241595D01*
X151681Y241495D01*
X151666Y241395D01*
X151646Y241296D01*
X151623Y241198D01*
X151596Y241101D01*
X151565Y241006D01*
X151531Y240911D01*
X151493Y240818D01*
X151451Y240726D01*
X151406Y240636D01*
X151357Y240548D01*
X151305Y240462D01*
X151250Y240378D01*
X151191Y240296D01*
X151130Y240216D01*
X151065Y240139D01*
X150997Y240065D01*
X150927Y239993D01*
X150854Y239924D01*
X150778Y239857D01*
X150699Y239794D01*
X150619Y239734D01*
X150536Y239677D01*
X150450Y239623D01*
X150363Y239573D01*
X150274Y239526D01*
X150183Y239483D01*
X150091Y239443D01*
X149997Y239407D01*
X149902Y239374D01*
X149805Y239345D01*
X149708Y239320D01*
X149609Y239299D01*
X149510Y239281D01*
X149410Y239268D01*
X149310Y239258D01*
X149210Y239252D01*
X149109Y239250D01*
X149109Y239249D02*
X146513Y239249D01*
D12*
X31750Y256700D02*
X31750Y104300D01*
X31750Y256700D02*
X50800Y256700D01*
X95250Y256700D01*
X95250Y104300D01*
X50800Y104300D01*
X31750Y104300D01*
X50800Y104300D02*
X50800Y256700D01*
D10*
X15748Y110904D02*
X24892Y104808D01*
X24892Y110904D02*
X15748Y104808D01*
X15748Y117254D02*
X15750Y117348D01*
X15756Y117443D01*
X15766Y117537D01*
X15779Y117630D01*
X15797Y117723D01*
X15818Y117815D01*
X15843Y117906D01*
X15872Y117996D01*
X15904Y118085D01*
X15941Y118172D01*
X15980Y118258D01*
X16024Y118342D01*
X16070Y118424D01*
X16120Y118504D01*
X16174Y118582D01*
X16230Y118658D01*
X16290Y118731D01*
X16352Y118802D01*
X16418Y118870D01*
X16486Y118936D01*
X16557Y118998D01*
X16630Y119058D01*
X16706Y119114D01*
X16784Y119168D01*
X16864Y119218D01*
X16946Y119264D01*
X17030Y119308D01*
X17116Y119347D01*
X17203Y119384D01*
X17292Y119416D01*
X17382Y119445D01*
X17473Y119470D01*
X17565Y119491D01*
X17658Y119509D01*
X17751Y119522D01*
X17845Y119532D01*
X17940Y119538D01*
X18034Y119540D01*
X15748Y117254D02*
X15750Y117148D01*
X15756Y117043D01*
X15765Y116938D01*
X15778Y116833D01*
X15795Y116729D01*
X15816Y116626D01*
X15840Y116523D01*
X15869Y116421D01*
X15900Y116321D01*
X15936Y116221D01*
X15974Y116123D01*
X16017Y116027D01*
X16063Y115931D01*
X16112Y115838D01*
X16164Y115747D01*
X16220Y115657D01*
X16279Y115569D01*
X16341Y115484D01*
X16406Y115401D01*
X16474Y115320D01*
X16545Y115242D01*
X16619Y115167D01*
X16695Y115094D01*
X16774Y115024D01*
X16855Y114957D01*
X16939Y114892D01*
X17025Y114831D01*
X17113Y114773D01*
X17203Y114718D01*
X17295Y114667D01*
X17389Y114618D01*
X17485Y114573D01*
X17582Y114532D01*
X17680Y114494D01*
X17780Y114460D01*
X19812Y118778D02*
X19745Y118845D01*
X19676Y118910D01*
X19604Y118972D01*
X19531Y119031D01*
X19454Y119087D01*
X19376Y119141D01*
X19296Y119191D01*
X19214Y119238D01*
X19130Y119282D01*
X19044Y119322D01*
X18957Y119360D01*
X18869Y119394D01*
X18779Y119424D01*
X18689Y119451D01*
X18597Y119475D01*
X18504Y119495D01*
X18411Y119511D01*
X18317Y119524D01*
X18223Y119533D01*
X18129Y119538D01*
X18034Y119540D01*
X19812Y118778D02*
X24892Y114460D01*
X24892Y119540D01*
X133858Y296258D02*
X133858Y307942D01*
X137104Y307942D01*
X137217Y307940D01*
X137330Y307934D01*
X137443Y307924D01*
X137556Y307910D01*
X137668Y307893D01*
X137779Y307871D01*
X137889Y307846D01*
X137999Y307816D01*
X138107Y307783D01*
X138214Y307746D01*
X138320Y307706D01*
X138424Y307661D01*
X138527Y307613D01*
X138628Y307562D01*
X138727Y307507D01*
X138824Y307449D01*
X138919Y307387D01*
X139012Y307322D01*
X139102Y307254D01*
X139190Y307183D01*
X139276Y307108D01*
X139359Y307031D01*
X139439Y306951D01*
X139516Y306868D01*
X139591Y306782D01*
X139662Y306694D01*
X139730Y306604D01*
X139795Y306511D01*
X139857Y306416D01*
X139915Y306319D01*
X139970Y306220D01*
X140021Y306119D01*
X140069Y306016D01*
X140114Y305912D01*
X140154Y305806D01*
X140191Y305699D01*
X140224Y305591D01*
X140254Y305481D01*
X140279Y305371D01*
X140301Y305260D01*
X140318Y305148D01*
X140332Y305035D01*
X140342Y304922D01*
X140348Y304809D01*
X140350Y304696D01*
X140348Y304583D01*
X140342Y304470D01*
X140332Y304357D01*
X140318Y304244D01*
X140301Y304132D01*
X140279Y304021D01*
X140254Y303911D01*
X140224Y303801D01*
X140191Y303693D01*
X140154Y303586D01*
X140114Y303480D01*
X140069Y303376D01*
X140021Y303273D01*
X139970Y303172D01*
X139915Y303073D01*
X139857Y302976D01*
X139795Y302881D01*
X139730Y302788D01*
X139662Y302698D01*
X139591Y302610D01*
X139516Y302524D01*
X139439Y302441D01*
X139359Y302361D01*
X139276Y302284D01*
X139190Y302209D01*
X139102Y302138D01*
X139012Y302070D01*
X138919Y302005D01*
X138824Y301943D01*
X138727Y301885D01*
X138628Y301830D01*
X138527Y301779D01*
X138424Y301731D01*
X138320Y301686D01*
X138214Y301646D01*
X138107Y301609D01*
X137999Y301576D01*
X137889Y301546D01*
X137779Y301521D01*
X137668Y301499D01*
X137556Y301482D01*
X137443Y301468D01*
X137330Y301458D01*
X137217Y301452D01*
X137104Y301450D01*
X137104Y301451D02*
X133858Y301451D01*
X137753Y301451D02*
X140349Y296258D01*
X145214Y298854D02*
X147811Y307942D01*
X145214Y298854D02*
X151705Y298854D01*
X149758Y301451D02*
X149758Y296258D01*
M02*
