G04 EAGLE Gerber RS-274X export*
G75*
%MOMM*%
%FSLAX34Y34*%
%LPD*%
%INSilkscreen Bottom*%
%IPPOS*%
%AMOC8*
5,1,8,0,0,1.08239X$1,22.5*%
G01*
%ADD10C,0.152400*%


D10*
X339238Y335278D02*
X339238Y342502D01*
X339236Y342635D01*
X339230Y342767D01*
X339220Y342899D01*
X339207Y343031D01*
X339189Y343163D01*
X339168Y343293D01*
X339143Y343424D01*
X339114Y343553D01*
X339081Y343681D01*
X339045Y343809D01*
X339005Y343935D01*
X338961Y344060D01*
X338913Y344184D01*
X338862Y344306D01*
X338807Y344427D01*
X338749Y344546D01*
X338687Y344664D01*
X338622Y344779D01*
X338553Y344893D01*
X338482Y345004D01*
X338406Y345113D01*
X338328Y345220D01*
X338247Y345325D01*
X338162Y345427D01*
X338075Y345527D01*
X337985Y345624D01*
X337892Y345719D01*
X337796Y345810D01*
X337698Y345899D01*
X337597Y345985D01*
X337493Y346068D01*
X337387Y346148D01*
X337279Y346224D01*
X337169Y346298D01*
X337056Y346368D01*
X336942Y346435D01*
X336825Y346498D01*
X336707Y346558D01*
X336587Y346615D01*
X336465Y346668D01*
X336342Y346717D01*
X336218Y346763D01*
X336092Y346805D01*
X335965Y346843D01*
X335837Y346878D01*
X335708Y346909D01*
X335579Y346936D01*
X335448Y346959D01*
X335317Y346979D01*
X335185Y346994D01*
X335053Y347006D01*
X334921Y347014D01*
X334788Y347018D01*
X334656Y347018D01*
X334523Y347014D01*
X334391Y347006D01*
X334259Y346994D01*
X334127Y346979D01*
X333996Y346959D01*
X333865Y346936D01*
X333736Y346909D01*
X333607Y346878D01*
X333479Y346843D01*
X333352Y346805D01*
X333226Y346763D01*
X333102Y346717D01*
X332979Y346668D01*
X332857Y346615D01*
X332737Y346558D01*
X332619Y346498D01*
X332502Y346435D01*
X332388Y346368D01*
X332275Y346298D01*
X332165Y346224D01*
X332057Y346148D01*
X331951Y346068D01*
X331847Y345985D01*
X331746Y345899D01*
X331648Y345810D01*
X331552Y345719D01*
X331459Y345624D01*
X331369Y345527D01*
X331282Y345427D01*
X331197Y345325D01*
X331116Y345220D01*
X331038Y345113D01*
X330962Y345004D01*
X330891Y344893D01*
X330822Y344779D01*
X330757Y344664D01*
X330695Y344546D01*
X330637Y344427D01*
X330582Y344306D01*
X330531Y344184D01*
X330483Y344060D01*
X330439Y343935D01*
X330399Y343809D01*
X330363Y343681D01*
X330330Y343553D01*
X330301Y343424D01*
X330276Y343293D01*
X330255Y343163D01*
X330237Y343031D01*
X330224Y342899D01*
X330214Y342767D01*
X330208Y342635D01*
X330206Y342502D01*
X330207Y342502D02*
X330207Y335278D01*
X330206Y335278D02*
X330208Y335145D01*
X330214Y335013D01*
X330224Y334881D01*
X330237Y334749D01*
X330255Y334617D01*
X330276Y334487D01*
X330301Y334356D01*
X330330Y334227D01*
X330363Y334099D01*
X330399Y333971D01*
X330439Y333845D01*
X330483Y333720D01*
X330531Y333596D01*
X330582Y333474D01*
X330637Y333353D01*
X330695Y333234D01*
X330757Y333116D01*
X330822Y333001D01*
X330891Y332887D01*
X330962Y332776D01*
X331038Y332667D01*
X331116Y332560D01*
X331197Y332455D01*
X331282Y332353D01*
X331369Y332253D01*
X331459Y332156D01*
X331552Y332061D01*
X331648Y331970D01*
X331746Y331881D01*
X331847Y331795D01*
X331951Y331712D01*
X332057Y331632D01*
X332165Y331556D01*
X332275Y331482D01*
X332388Y331412D01*
X332502Y331345D01*
X332619Y331282D01*
X332737Y331222D01*
X332857Y331165D01*
X332979Y331112D01*
X333102Y331063D01*
X333226Y331017D01*
X333352Y330975D01*
X333479Y330937D01*
X333607Y330902D01*
X333736Y330871D01*
X333865Y330844D01*
X333996Y330821D01*
X334127Y330801D01*
X334259Y330786D01*
X334391Y330774D01*
X334523Y330766D01*
X334656Y330762D01*
X334788Y330762D01*
X334921Y330766D01*
X335053Y330774D01*
X335185Y330786D01*
X335317Y330801D01*
X335448Y330821D01*
X335579Y330844D01*
X335708Y330871D01*
X335837Y330902D01*
X335965Y330937D01*
X336092Y330975D01*
X336218Y331017D01*
X336342Y331063D01*
X336465Y331112D01*
X336587Y331165D01*
X336707Y331222D01*
X336825Y331282D01*
X336942Y331345D01*
X337056Y331412D01*
X337169Y331482D01*
X337279Y331556D01*
X337387Y331632D01*
X337493Y331712D01*
X337597Y331795D01*
X337698Y331881D01*
X337796Y331970D01*
X337892Y332061D01*
X337985Y332156D01*
X338075Y332253D01*
X338162Y332353D01*
X338247Y332455D01*
X338328Y332560D01*
X338406Y332667D01*
X338482Y332776D01*
X338553Y332887D01*
X338622Y333001D01*
X338687Y333116D01*
X338749Y333234D01*
X338807Y333353D01*
X338862Y333474D01*
X338913Y333596D01*
X338961Y333720D01*
X339005Y333845D01*
X339045Y333971D01*
X339081Y334099D01*
X339114Y334227D01*
X339143Y334356D01*
X339168Y334487D01*
X339189Y334617D01*
X339207Y334749D01*
X339220Y334881D01*
X339230Y335013D01*
X339236Y335145D01*
X339238Y335278D01*
X323989Y341599D02*
X321280Y330762D01*
X318570Y337987D01*
X315861Y330762D01*
X313152Y341599D01*
X304363Y330762D02*
X299848Y330762D01*
X304363Y330762D02*
X304464Y330764D01*
X304565Y330770D01*
X304666Y330779D01*
X304767Y330792D01*
X304867Y330809D01*
X304966Y330830D01*
X305064Y330854D01*
X305161Y330882D01*
X305258Y330914D01*
X305353Y330949D01*
X305446Y330988D01*
X305538Y331030D01*
X305629Y331076D01*
X305718Y331125D01*
X305804Y331177D01*
X305889Y331233D01*
X305972Y331291D01*
X306052Y331353D01*
X306130Y331418D01*
X306206Y331485D01*
X306279Y331555D01*
X306349Y331628D01*
X306416Y331704D01*
X306481Y331782D01*
X306543Y331862D01*
X306601Y331945D01*
X306657Y332030D01*
X306709Y332117D01*
X306758Y332205D01*
X306804Y332296D01*
X306846Y332388D01*
X306885Y332481D01*
X306920Y332576D01*
X306952Y332673D01*
X306980Y332770D01*
X307004Y332868D01*
X307025Y332967D01*
X307042Y333067D01*
X307055Y333168D01*
X307064Y333269D01*
X307070Y333370D01*
X307072Y333471D01*
X307072Y337987D01*
X307070Y338106D01*
X307064Y338226D01*
X307054Y338345D01*
X307040Y338463D01*
X307023Y338582D01*
X307001Y338699D01*
X306976Y338816D01*
X306946Y338931D01*
X306913Y339046D01*
X306876Y339160D01*
X306836Y339272D01*
X306791Y339383D01*
X306743Y339492D01*
X306692Y339600D01*
X306637Y339706D01*
X306578Y339810D01*
X306516Y339912D01*
X306451Y340012D01*
X306382Y340110D01*
X306310Y340206D01*
X306235Y340299D01*
X306158Y340389D01*
X306077Y340477D01*
X305993Y340562D01*
X305906Y340644D01*
X305817Y340724D01*
X305725Y340800D01*
X305631Y340874D01*
X305534Y340944D01*
X305436Y341011D01*
X305335Y341075D01*
X305231Y341135D01*
X305126Y341192D01*
X305019Y341245D01*
X304911Y341295D01*
X304801Y341341D01*
X304689Y341383D01*
X304576Y341422D01*
X304462Y341457D01*
X304347Y341488D01*
X304230Y341516D01*
X304113Y341539D01*
X303996Y341559D01*
X303877Y341575D01*
X303758Y341587D01*
X303639Y341595D01*
X303520Y341599D01*
X303400Y341599D01*
X303281Y341595D01*
X303162Y341587D01*
X303043Y341575D01*
X302924Y341559D01*
X302807Y341539D01*
X302690Y341516D01*
X302573Y341488D01*
X302458Y341457D01*
X302344Y341422D01*
X302231Y341383D01*
X302119Y341341D01*
X302009Y341295D01*
X301901Y341245D01*
X301794Y341192D01*
X301689Y341135D01*
X301585Y341075D01*
X301484Y341011D01*
X301386Y340944D01*
X301289Y340874D01*
X301195Y340800D01*
X301103Y340724D01*
X301014Y340644D01*
X300927Y340562D01*
X300843Y340477D01*
X300762Y340389D01*
X300685Y340299D01*
X300610Y340206D01*
X300538Y340110D01*
X300469Y340012D01*
X300404Y339912D01*
X300342Y339810D01*
X300283Y339706D01*
X300228Y339600D01*
X300177Y339492D01*
X300129Y339383D01*
X300084Y339272D01*
X300044Y339160D01*
X300007Y339046D01*
X299974Y338931D01*
X299944Y338816D01*
X299919Y338699D01*
X299897Y338582D01*
X299880Y338463D01*
X299866Y338345D01*
X299856Y338226D01*
X299850Y338106D01*
X299848Y337987D01*
X299848Y336181D01*
X307072Y336181D01*
X293004Y330762D02*
X293004Y341599D01*
X288489Y341599D01*
X288385Y341597D01*
X288282Y341591D01*
X288178Y341581D01*
X288075Y341567D01*
X287973Y341549D01*
X287872Y341528D01*
X287771Y341502D01*
X287672Y341473D01*
X287573Y341440D01*
X287476Y341403D01*
X287381Y341362D01*
X287287Y341318D01*
X287195Y341270D01*
X287105Y341219D01*
X287016Y341164D01*
X286930Y341106D01*
X286847Y341044D01*
X286765Y340980D01*
X286687Y340912D01*
X286611Y340842D01*
X286537Y340769D01*
X286467Y340692D01*
X286399Y340614D01*
X286335Y340532D01*
X286273Y340449D01*
X286215Y340363D01*
X286160Y340274D01*
X286109Y340184D01*
X286061Y340092D01*
X286017Y339998D01*
X285976Y339903D01*
X285939Y339806D01*
X285906Y339707D01*
X285877Y339608D01*
X285851Y339507D01*
X285830Y339406D01*
X285812Y339304D01*
X285798Y339201D01*
X285788Y339097D01*
X285782Y338994D01*
X285780Y338890D01*
X285779Y338890D02*
X285779Y330762D01*
X267473Y330762D02*
X271086Y347018D01*
X263861Y341599D02*
X267473Y330762D01*
X260249Y330762D02*
X263861Y341599D01*
X256636Y347018D02*
X260249Y330762D01*
X250835Y330762D02*
X250835Y341599D01*
X251286Y346115D02*
X251286Y347018D01*
X250383Y347018D01*
X250383Y346115D01*
X251286Y346115D01*
X244311Y347018D02*
X244311Y333471D01*
X244310Y333471D02*
X244308Y333370D01*
X244302Y333269D01*
X244293Y333168D01*
X244280Y333067D01*
X244263Y332967D01*
X244242Y332868D01*
X244218Y332770D01*
X244190Y332673D01*
X244158Y332576D01*
X244123Y332481D01*
X244084Y332388D01*
X244042Y332296D01*
X243996Y332205D01*
X243947Y332117D01*
X243895Y332030D01*
X243839Y331945D01*
X243781Y331862D01*
X243719Y331782D01*
X243654Y331704D01*
X243587Y331628D01*
X243517Y331555D01*
X243444Y331485D01*
X243368Y331418D01*
X243290Y331353D01*
X243210Y331291D01*
X243127Y331233D01*
X243042Y331177D01*
X242956Y331125D01*
X242867Y331076D01*
X242776Y331030D01*
X242684Y330988D01*
X242591Y330949D01*
X242496Y330914D01*
X242399Y330882D01*
X242302Y330854D01*
X242204Y330830D01*
X242105Y330809D01*
X242005Y330792D01*
X241904Y330779D01*
X241803Y330770D01*
X241702Y330764D01*
X241601Y330762D01*
X234856Y337084D02*
X230341Y335278D01*
X234857Y337084D02*
X234945Y337121D01*
X235031Y337162D01*
X235116Y337206D01*
X235199Y337254D01*
X235279Y337305D01*
X235358Y337359D01*
X235434Y337417D01*
X235508Y337477D01*
X235580Y337541D01*
X235648Y337607D01*
X235714Y337677D01*
X235777Y337748D01*
X235838Y337823D01*
X235895Y337899D01*
X235948Y337978D01*
X235999Y338059D01*
X236046Y338142D01*
X236090Y338227D01*
X236130Y338314D01*
X236167Y338402D01*
X236200Y338492D01*
X236230Y338583D01*
X236255Y338675D01*
X236277Y338768D01*
X236295Y338862D01*
X236310Y338956D01*
X236320Y339051D01*
X236326Y339147D01*
X236329Y339242D01*
X236328Y339338D01*
X236322Y339433D01*
X236313Y339529D01*
X236300Y339623D01*
X236284Y339717D01*
X236263Y339811D01*
X236238Y339903D01*
X236210Y339994D01*
X236178Y340084D01*
X236143Y340173D01*
X236104Y340260D01*
X236061Y340346D01*
X236015Y340430D01*
X235965Y340511D01*
X235913Y340591D01*
X235857Y340669D01*
X235797Y340744D01*
X235735Y340816D01*
X235670Y340886D01*
X235602Y340954D01*
X235532Y341018D01*
X235459Y341080D01*
X235383Y341138D01*
X235305Y341194D01*
X235225Y341246D01*
X235143Y341295D01*
X235059Y341340D01*
X234973Y341382D01*
X234886Y341421D01*
X234797Y341456D01*
X234706Y341487D01*
X234615Y341514D01*
X234522Y341538D01*
X234429Y341558D01*
X234335Y341574D01*
X234240Y341586D01*
X234145Y341595D01*
X234049Y341599D01*
X233954Y341600D01*
X233707Y341593D01*
X233461Y341581D01*
X233215Y341563D01*
X232969Y341538D01*
X232725Y341508D01*
X232481Y341472D01*
X232238Y341431D01*
X231996Y341383D01*
X231755Y341329D01*
X231516Y341270D01*
X231278Y341205D01*
X231042Y341134D01*
X230807Y341058D01*
X230574Y340976D01*
X230344Y340888D01*
X230116Y340795D01*
X229889Y340697D01*
X230340Y335277D02*
X230252Y335240D01*
X230166Y335199D01*
X230081Y335155D01*
X229998Y335107D01*
X229918Y335056D01*
X229839Y335002D01*
X229763Y334944D01*
X229689Y334884D01*
X229617Y334820D01*
X229549Y334754D01*
X229483Y334684D01*
X229420Y334613D01*
X229359Y334538D01*
X229302Y334462D01*
X229249Y334383D01*
X229198Y334302D01*
X229151Y334219D01*
X229107Y334134D01*
X229067Y334047D01*
X229030Y333959D01*
X228997Y333869D01*
X228967Y333778D01*
X228942Y333686D01*
X228920Y333593D01*
X228902Y333499D01*
X228887Y333405D01*
X228877Y333310D01*
X228871Y333214D01*
X228868Y333119D01*
X228869Y333023D01*
X228875Y332928D01*
X228884Y332832D01*
X228897Y332738D01*
X228913Y332644D01*
X228934Y332550D01*
X228959Y332458D01*
X228987Y332367D01*
X229019Y332277D01*
X229054Y332188D01*
X229093Y332101D01*
X229136Y332015D01*
X229182Y331931D01*
X229232Y331850D01*
X229284Y331770D01*
X229340Y331692D01*
X229400Y331617D01*
X229462Y331545D01*
X229527Y331475D01*
X229595Y331407D01*
X229665Y331343D01*
X229738Y331281D01*
X229814Y331223D01*
X229892Y331167D01*
X229972Y331115D01*
X230054Y331066D01*
X230138Y331021D01*
X230224Y330979D01*
X230311Y330940D01*
X230400Y330905D01*
X230491Y330874D01*
X230582Y330847D01*
X230675Y330823D01*
X230768Y330803D01*
X230862Y330787D01*
X230957Y330775D01*
X231052Y330766D01*
X231148Y330762D01*
X231243Y330761D01*
X231244Y330762D02*
X231606Y330771D01*
X231968Y330789D01*
X232329Y330816D01*
X232689Y330851D01*
X233049Y330894D01*
X233408Y330946D01*
X233765Y331007D01*
X234120Y331076D01*
X234474Y331153D01*
X234826Y331239D01*
X235176Y331333D01*
X235524Y331436D01*
X235869Y331546D01*
X236211Y331665D01*
X222664Y334374D02*
X222664Y337987D01*
X222663Y337987D02*
X222661Y338106D01*
X222655Y338226D01*
X222645Y338345D01*
X222631Y338463D01*
X222614Y338582D01*
X222592Y338699D01*
X222567Y338816D01*
X222537Y338931D01*
X222504Y339046D01*
X222467Y339160D01*
X222427Y339272D01*
X222382Y339383D01*
X222334Y339492D01*
X222283Y339600D01*
X222228Y339706D01*
X222169Y339810D01*
X222107Y339912D01*
X222042Y340012D01*
X221973Y340110D01*
X221901Y340206D01*
X221826Y340299D01*
X221749Y340389D01*
X221668Y340477D01*
X221584Y340562D01*
X221497Y340644D01*
X221408Y340724D01*
X221316Y340800D01*
X221222Y340874D01*
X221125Y340944D01*
X221027Y341011D01*
X220926Y341075D01*
X220822Y341135D01*
X220717Y341192D01*
X220610Y341245D01*
X220502Y341295D01*
X220392Y341341D01*
X220280Y341383D01*
X220167Y341422D01*
X220053Y341457D01*
X219938Y341488D01*
X219821Y341516D01*
X219704Y341539D01*
X219587Y341559D01*
X219468Y341575D01*
X219349Y341587D01*
X219230Y341595D01*
X219111Y341599D01*
X218991Y341599D01*
X218872Y341595D01*
X218753Y341587D01*
X218634Y341575D01*
X218515Y341559D01*
X218398Y341539D01*
X218281Y341516D01*
X218164Y341488D01*
X218049Y341457D01*
X217935Y341422D01*
X217822Y341383D01*
X217710Y341341D01*
X217600Y341295D01*
X217492Y341245D01*
X217385Y341192D01*
X217280Y341135D01*
X217176Y341075D01*
X217075Y341011D01*
X216977Y340944D01*
X216880Y340874D01*
X216786Y340800D01*
X216694Y340724D01*
X216605Y340644D01*
X216518Y340562D01*
X216434Y340477D01*
X216353Y340389D01*
X216276Y340299D01*
X216201Y340206D01*
X216129Y340110D01*
X216060Y340012D01*
X215995Y339912D01*
X215933Y339810D01*
X215874Y339706D01*
X215819Y339600D01*
X215768Y339492D01*
X215720Y339383D01*
X215675Y339272D01*
X215635Y339160D01*
X215598Y339046D01*
X215565Y338931D01*
X215535Y338816D01*
X215510Y338699D01*
X215488Y338582D01*
X215471Y338463D01*
X215457Y338345D01*
X215447Y338226D01*
X215441Y338106D01*
X215439Y337987D01*
X215439Y334374D01*
X215441Y334255D01*
X215447Y334135D01*
X215457Y334016D01*
X215471Y333898D01*
X215488Y333779D01*
X215510Y333662D01*
X215535Y333545D01*
X215565Y333430D01*
X215598Y333315D01*
X215635Y333201D01*
X215675Y333089D01*
X215720Y332978D01*
X215768Y332869D01*
X215819Y332761D01*
X215874Y332655D01*
X215933Y332551D01*
X215995Y332449D01*
X216060Y332349D01*
X216129Y332251D01*
X216201Y332155D01*
X216276Y332062D01*
X216353Y331972D01*
X216434Y331884D01*
X216518Y331799D01*
X216605Y331717D01*
X216694Y331637D01*
X216786Y331561D01*
X216880Y331487D01*
X216977Y331417D01*
X217075Y331350D01*
X217176Y331286D01*
X217280Y331226D01*
X217385Y331169D01*
X217492Y331116D01*
X217600Y331066D01*
X217710Y331020D01*
X217822Y330978D01*
X217935Y330939D01*
X218049Y330904D01*
X218164Y330873D01*
X218281Y330845D01*
X218398Y330822D01*
X218515Y330802D01*
X218634Y330786D01*
X218753Y330774D01*
X218872Y330766D01*
X218991Y330762D01*
X219111Y330762D01*
X219230Y330766D01*
X219349Y330774D01*
X219468Y330786D01*
X219587Y330802D01*
X219704Y330822D01*
X219821Y330845D01*
X219938Y330873D01*
X220053Y330904D01*
X220167Y330939D01*
X220280Y330978D01*
X220392Y331020D01*
X220502Y331066D01*
X220610Y331116D01*
X220717Y331169D01*
X220822Y331226D01*
X220926Y331286D01*
X221027Y331350D01*
X221125Y331417D01*
X221222Y331487D01*
X221316Y331561D01*
X221408Y331637D01*
X221497Y331717D01*
X221584Y331799D01*
X221668Y331884D01*
X221749Y331972D01*
X221826Y332062D01*
X221901Y332155D01*
X221973Y332251D01*
X222042Y332349D01*
X222107Y332449D01*
X222169Y332551D01*
X222228Y332655D01*
X222283Y332761D01*
X222334Y332869D01*
X222382Y332978D01*
X222427Y333089D01*
X222467Y333201D01*
X222504Y333315D01*
X222537Y333430D01*
X222567Y333545D01*
X222592Y333662D01*
X222614Y333779D01*
X222631Y333898D01*
X222645Y334016D01*
X222655Y334135D01*
X222661Y334255D01*
X222663Y334374D01*
X208596Y330762D02*
X208596Y341599D01*
X204080Y341599D01*
X203976Y341597D01*
X203873Y341591D01*
X203769Y341581D01*
X203666Y341567D01*
X203564Y341549D01*
X203463Y341528D01*
X203362Y341502D01*
X203263Y341473D01*
X203164Y341440D01*
X203067Y341403D01*
X202972Y341362D01*
X202878Y341318D01*
X202786Y341270D01*
X202696Y341219D01*
X202607Y341164D01*
X202521Y341106D01*
X202438Y341044D01*
X202356Y340980D01*
X202278Y340912D01*
X202202Y340842D01*
X202128Y340769D01*
X202058Y340692D01*
X201990Y340614D01*
X201926Y340532D01*
X201864Y340449D01*
X201806Y340363D01*
X201751Y340274D01*
X201700Y340184D01*
X201652Y340092D01*
X201608Y339998D01*
X201567Y339903D01*
X201530Y339806D01*
X201497Y339707D01*
X201468Y339608D01*
X201442Y339507D01*
X201421Y339406D01*
X201403Y339304D01*
X201389Y339201D01*
X201379Y339097D01*
X201373Y338994D01*
X201371Y338890D01*
X201371Y330762D01*
X181085Y347018D02*
X180960Y347016D01*
X180835Y347010D01*
X180710Y347001D01*
X180586Y346987D01*
X180462Y346970D01*
X180338Y346949D01*
X180216Y346924D01*
X180094Y346895D01*
X179973Y346863D01*
X179853Y346827D01*
X179734Y346787D01*
X179617Y346744D01*
X179501Y346697D01*
X179386Y346646D01*
X179274Y346592D01*
X179162Y346534D01*
X179053Y346474D01*
X178946Y346409D01*
X178840Y346342D01*
X178737Y346271D01*
X178636Y346197D01*
X178537Y346120D01*
X178441Y346040D01*
X178347Y345957D01*
X178256Y345872D01*
X178167Y345783D01*
X178082Y345692D01*
X177999Y345598D01*
X177919Y345502D01*
X177842Y345403D01*
X177768Y345302D01*
X177697Y345199D01*
X177630Y345093D01*
X177565Y344986D01*
X177505Y344877D01*
X177447Y344765D01*
X177393Y344653D01*
X177342Y344538D01*
X177295Y344422D01*
X177252Y344305D01*
X177212Y344186D01*
X177176Y344066D01*
X177144Y343945D01*
X177115Y343823D01*
X177090Y343701D01*
X177069Y343577D01*
X177052Y343453D01*
X177038Y343329D01*
X177029Y343204D01*
X177023Y343079D01*
X177021Y342954D01*
X181085Y347018D02*
X181228Y347016D01*
X181370Y347010D01*
X181513Y347000D01*
X181655Y346987D01*
X181796Y346969D01*
X181938Y346948D01*
X182078Y346923D01*
X182218Y346894D01*
X182357Y346861D01*
X182495Y346824D01*
X182632Y346784D01*
X182767Y346740D01*
X182902Y346692D01*
X183035Y346640D01*
X183167Y346585D01*
X183297Y346526D01*
X183425Y346464D01*
X183552Y346398D01*
X183677Y346329D01*
X183800Y346257D01*
X183921Y346181D01*
X184039Y346102D01*
X184156Y346019D01*
X184270Y345934D01*
X184382Y345845D01*
X184491Y345754D01*
X184598Y345659D01*
X184703Y345562D01*
X184804Y345461D01*
X184903Y345358D01*
X184999Y345253D01*
X185092Y345144D01*
X185182Y345033D01*
X185269Y344920D01*
X185353Y344805D01*
X185433Y344687D01*
X185511Y344567D01*
X185585Y344445D01*
X185655Y344321D01*
X185723Y344195D01*
X185786Y344067D01*
X185847Y343938D01*
X185904Y343807D01*
X185957Y343675D01*
X186006Y343541D01*
X186052Y343406D01*
X178376Y339793D02*
X178282Y339885D01*
X178192Y339979D01*
X178104Y340076D01*
X178019Y340176D01*
X177937Y340278D01*
X177858Y340383D01*
X177783Y340490D01*
X177711Y340599D01*
X177642Y340710D01*
X177576Y340824D01*
X177514Y340939D01*
X177455Y341056D01*
X177400Y341175D01*
X177349Y341295D01*
X177301Y341417D01*
X177256Y341540D01*
X177216Y341664D01*
X177179Y341790D01*
X177146Y341917D01*
X177117Y342044D01*
X177091Y342173D01*
X177070Y342302D01*
X177052Y342432D01*
X177039Y342562D01*
X177029Y342692D01*
X177023Y342823D01*
X177021Y342954D01*
X178376Y339793D02*
X186052Y330762D01*
X177021Y330762D01*
X170421Y338890D02*
X170417Y339210D01*
X170406Y339529D01*
X170387Y339849D01*
X170360Y340167D01*
X170326Y340485D01*
X170284Y340802D01*
X170234Y341118D01*
X170177Y341433D01*
X170113Y341746D01*
X170041Y342058D01*
X169962Y342368D01*
X169875Y342675D01*
X169781Y342981D01*
X169680Y343284D01*
X169571Y343585D01*
X169456Y343883D01*
X169333Y344179D01*
X169203Y344471D01*
X169066Y344760D01*
X169066Y344761D02*
X169027Y344869D01*
X168984Y344976D01*
X168938Y345081D01*
X168887Y345185D01*
X168834Y345287D01*
X168777Y345387D01*
X168716Y345485D01*
X168652Y345580D01*
X168585Y345674D01*
X168514Y345765D01*
X168441Y345854D01*
X168364Y345940D01*
X168285Y346023D01*
X168203Y346104D01*
X168118Y346182D01*
X168030Y346256D01*
X167940Y346328D01*
X167848Y346396D01*
X167753Y346462D01*
X167656Y346524D01*
X167557Y346582D01*
X167455Y346638D01*
X167353Y346689D01*
X167248Y346737D01*
X167142Y346782D01*
X167034Y346823D01*
X166925Y346860D01*
X166815Y346893D01*
X166703Y346922D01*
X166591Y346948D01*
X166478Y346970D01*
X166364Y346987D01*
X166250Y347001D01*
X166135Y347011D01*
X166020Y347017D01*
X165905Y347019D01*
X165905Y347018D02*
X165790Y347016D01*
X165675Y347010D01*
X165560Y347000D01*
X165446Y346986D01*
X165332Y346969D01*
X165219Y346947D01*
X165107Y346921D01*
X164995Y346892D01*
X164885Y346859D01*
X164776Y346822D01*
X164668Y346781D01*
X164562Y346736D01*
X164458Y346688D01*
X164355Y346637D01*
X164254Y346581D01*
X164154Y346523D01*
X164057Y346461D01*
X163963Y346396D01*
X163870Y346327D01*
X163780Y346255D01*
X163692Y346181D01*
X163607Y346103D01*
X163525Y346022D01*
X163446Y345939D01*
X163369Y345853D01*
X163296Y345764D01*
X163225Y345673D01*
X163158Y345579D01*
X163094Y345484D01*
X163033Y345386D01*
X162976Y345286D01*
X162923Y345184D01*
X162872Y345080D01*
X162826Y344975D01*
X162783Y344868D01*
X162744Y344760D01*
X162745Y344760D02*
X162608Y344471D01*
X162478Y344179D01*
X162355Y343883D01*
X162240Y343585D01*
X162131Y343284D01*
X162030Y342981D01*
X161936Y342675D01*
X161849Y342368D01*
X161770Y342058D01*
X161698Y341746D01*
X161634Y341433D01*
X161577Y341118D01*
X161527Y340802D01*
X161485Y340485D01*
X161451Y340167D01*
X161424Y339849D01*
X161405Y339529D01*
X161394Y339210D01*
X161390Y338890D01*
X170421Y338890D02*
X170417Y338570D01*
X170406Y338251D01*
X170387Y337931D01*
X170360Y337613D01*
X170326Y337295D01*
X170284Y336978D01*
X170234Y336662D01*
X170177Y336347D01*
X170113Y336034D01*
X170041Y335722D01*
X169962Y335412D01*
X169875Y335105D01*
X169781Y334799D01*
X169680Y334496D01*
X169571Y334195D01*
X169456Y333897D01*
X169333Y333601D01*
X169203Y333309D01*
X169066Y333020D01*
X169027Y332912D01*
X168984Y332805D01*
X168938Y332700D01*
X168887Y332596D01*
X168834Y332494D01*
X168777Y332394D01*
X168716Y332296D01*
X168652Y332201D01*
X168585Y332107D01*
X168514Y332016D01*
X168441Y331927D01*
X168364Y331841D01*
X168285Y331758D01*
X168203Y331677D01*
X168118Y331599D01*
X168030Y331525D01*
X167940Y331453D01*
X167847Y331384D01*
X167753Y331319D01*
X167656Y331257D01*
X167556Y331199D01*
X167455Y331143D01*
X167353Y331092D01*
X167248Y331044D01*
X167142Y330999D01*
X167034Y330958D01*
X166925Y330921D01*
X166815Y330888D01*
X166703Y330859D01*
X166591Y330833D01*
X166478Y330811D01*
X166364Y330794D01*
X166250Y330780D01*
X166135Y330770D01*
X166020Y330764D01*
X165905Y330762D01*
X162745Y333020D02*
X162608Y333309D01*
X162478Y333601D01*
X162355Y333897D01*
X162240Y334195D01*
X162131Y334496D01*
X162030Y334799D01*
X161936Y335105D01*
X161849Y335412D01*
X161770Y335722D01*
X161698Y336034D01*
X161634Y336347D01*
X161577Y336662D01*
X161527Y336978D01*
X161485Y337295D01*
X161451Y337613D01*
X161424Y337931D01*
X161405Y338251D01*
X161394Y338570D01*
X161390Y338890D01*
X162744Y333020D02*
X162783Y332912D01*
X162826Y332805D01*
X162872Y332700D01*
X162923Y332596D01*
X162976Y332494D01*
X163034Y332394D01*
X163094Y332296D01*
X163158Y332201D01*
X163225Y332107D01*
X163296Y332016D01*
X163369Y331927D01*
X163446Y331841D01*
X163525Y331758D01*
X163607Y331677D01*
X163692Y331599D01*
X163780Y331525D01*
X163870Y331453D01*
X163963Y331384D01*
X164057Y331319D01*
X164154Y331257D01*
X164254Y331199D01*
X164355Y331143D01*
X164458Y331092D01*
X164562Y331044D01*
X164668Y330999D01*
X164776Y330958D01*
X164885Y330921D01*
X164995Y330888D01*
X165107Y330859D01*
X165219Y330833D01*
X165332Y330811D01*
X165446Y330794D01*
X165560Y330780D01*
X165675Y330770D01*
X165790Y330764D01*
X165905Y330762D01*
X169518Y334374D02*
X162293Y343406D01*
X149823Y347018D02*
X149698Y347016D01*
X149573Y347010D01*
X149448Y347001D01*
X149324Y346987D01*
X149200Y346970D01*
X149076Y346949D01*
X148954Y346924D01*
X148832Y346895D01*
X148711Y346863D01*
X148591Y346827D01*
X148472Y346787D01*
X148355Y346744D01*
X148239Y346697D01*
X148124Y346646D01*
X148012Y346592D01*
X147900Y346534D01*
X147791Y346474D01*
X147684Y346409D01*
X147578Y346342D01*
X147475Y346271D01*
X147374Y346197D01*
X147275Y346120D01*
X147179Y346040D01*
X147085Y345957D01*
X146994Y345872D01*
X146905Y345783D01*
X146820Y345692D01*
X146737Y345598D01*
X146657Y345502D01*
X146580Y345403D01*
X146506Y345302D01*
X146435Y345199D01*
X146368Y345093D01*
X146303Y344986D01*
X146243Y344877D01*
X146185Y344765D01*
X146131Y344653D01*
X146080Y344538D01*
X146033Y344422D01*
X145990Y344305D01*
X145950Y344186D01*
X145914Y344066D01*
X145882Y343945D01*
X145853Y343823D01*
X145828Y343701D01*
X145807Y343577D01*
X145790Y343453D01*
X145776Y343329D01*
X145767Y343204D01*
X145761Y343079D01*
X145759Y342954D01*
X149823Y347018D02*
X149966Y347016D01*
X150108Y347010D01*
X150251Y347000D01*
X150393Y346987D01*
X150534Y346969D01*
X150676Y346948D01*
X150816Y346923D01*
X150956Y346894D01*
X151095Y346861D01*
X151233Y346824D01*
X151370Y346784D01*
X151505Y346740D01*
X151640Y346692D01*
X151773Y346640D01*
X151905Y346585D01*
X152035Y346526D01*
X152163Y346464D01*
X152290Y346398D01*
X152415Y346329D01*
X152538Y346257D01*
X152659Y346181D01*
X152777Y346102D01*
X152894Y346019D01*
X153008Y345934D01*
X153120Y345845D01*
X153229Y345754D01*
X153336Y345659D01*
X153441Y345562D01*
X153542Y345461D01*
X153641Y345358D01*
X153737Y345253D01*
X153830Y345144D01*
X153920Y345033D01*
X154007Y344920D01*
X154091Y344805D01*
X154171Y344687D01*
X154249Y344567D01*
X154323Y344445D01*
X154393Y344321D01*
X154461Y344195D01*
X154524Y344067D01*
X154585Y343938D01*
X154642Y343807D01*
X154695Y343675D01*
X154744Y343541D01*
X154790Y343406D01*
X147114Y339793D02*
X147020Y339885D01*
X146930Y339979D01*
X146842Y340076D01*
X146757Y340176D01*
X146675Y340278D01*
X146596Y340383D01*
X146521Y340490D01*
X146449Y340599D01*
X146380Y340710D01*
X146314Y340824D01*
X146252Y340939D01*
X146193Y341056D01*
X146138Y341175D01*
X146087Y341295D01*
X146039Y341417D01*
X145994Y341540D01*
X145954Y341664D01*
X145917Y341790D01*
X145884Y341917D01*
X145855Y342044D01*
X145829Y342173D01*
X145808Y342302D01*
X145790Y342432D01*
X145777Y342562D01*
X145767Y342692D01*
X145761Y342823D01*
X145759Y342954D01*
X147113Y339793D02*
X154790Y330762D01*
X145759Y330762D01*
X139158Y343406D02*
X134643Y347018D01*
X134643Y330762D01*
X139158Y330762D02*
X130127Y330762D01*
M02*
